<?xml version="1.0" encoding="UTF-8"?>
<svg version="1.1" xmlns="http://www.w3.org/2000/svg" width="1848" height="1472">
<path d="M0 0 C4.05640915 2.3843588 6.67141484 4.69224295 8.67578125 9.0546875 C9.00578125 9.7146875 9.33578125 10.3746875 9.67578125 11.0546875 C10.54201665 18.71922606 10.13406046 24.79020626 7.0234375 31.83984375 C3.22881035 40.79228556 0.46752557 50.00069063 -2.32421875 59.3046875 C-3.0730527 61.77886217 -3.82377871 64.25245685 -4.57475281 66.72598267 C-5.07380177 68.37024214 -5.57202368 70.01475287 -6.06941223 71.65951538 C-7.82337307 77.44847914 -9.62962097 83.21945704 -11.4609375 88.984375 C-13.77562058 96.27448581 -15.99449097 103.58681665 -18.13671875 110.9296875 C-21.7595725 123.24146399 -25.53726532 135.50058998 -29.3636322 147.75041199 C-30.82154555 152.42473721 -32.26328852 157.10389401 -33.69911194 161.78504944 C-34.83262022 165.48048784 -35.9690206 169.17503502 -37.1053772 172.86959839 C-37.65649093 174.66405148 -38.20633199 176.45889607 -38.75473022 178.25418091 C-42.63979505 190.96851502 -46.84895498 203.53581833 -51.32421875 216.0546875 C-49.71281006 215.61878296 -49.71281006 215.61878296 -48.06884766 215.17407227 C-34.34475112 211.49431809 -20.5408072 208.1981146 -6.69921875 204.9921875 C-4.88046234 204.5707547 -4.88046234 204.5707547 -3.02496338 204.14080811 C37.41858175 194.79173575 78.04992823 186.47114385 118.80513763 178.61067963 C121.31611828 178.12628572 123.82691642 177.64095391 126.33770752 177.15557861 C142.67956646 174.00023916 159.02939446 170.92335577 175.4453125 168.17578125 C177.26333626 167.87124779 177.26333626 167.87124779 179.11808777 167.56056213 C188.80411344 165.97047613 198.23265043 164.86321585 208.05078125 164.8046875 C209.38302734 164.77375 209.38302734 164.77375 210.7421875 164.7421875 C212.02029297 164.73445313 212.02029297 164.73445313 213.32421875 164.7265625 C214.47156494 164.71254395 214.47156494 164.71254395 215.64208984 164.69824219 C218.25037102 165.15539591 219.11716612 165.9396413 220.67578125 168.0546875 C221.31214489 173.99408144 221.31214489 173.99408144 219.55078125 176.9296875 C215.16984686 179.55824814 209.34767807 179.27701861 204.34667969 179.64941406 C121.14469849 185.85270454 38.67851101 205.95854591 -41.77050781 227.36376953 C-42.83791199 227.64571922 -42.83791199 227.64571922 -43.92687988 227.93336487 C-45.76336345 228.41975819 -47.59808585 228.91278863 -49.43261719 229.40649414 C-52.32421875 230.0546875 -52.32421875 230.0546875 -56.32421875 230.0546875 C-56.47697266 230.64354736 -56.62972656 231.23240723 -56.78710938 231.83911133 C-58.34113463 237.68914091 -60.04733527 243.47859498 -61.85546875 249.25390625 C-62.08926239 250.00078201 -62.32305603 250.74765778 -62.56393433 251.51716614 C-63.05951747 253.09977594 -63.55511312 254.68238183 -64.05072021 256.26498413 C-78.63666497 302.97787349 -93.58952561 351.33212554 -93.51171875 400.6796875 C-93.5111145 401.38811798 -93.51051025 402.09654846 -93.5098877 402.82644653 C-93.4259726 439.07725555 -84.09303879 472.6243472 -58.51171875 499.2421875 C-18.48513005 537.71253247 41.91269757 546.27119263 95.17578125 546.3046875 C96.15020172 546.30536224 97.12462219 546.30603699 98.12857056 546.30673218 C168.85870371 546.23013406 239.960356 535.29971033 308.67578125 519.0546875 C309.67591248 518.81878906 310.6760437 518.58289063 311.70648193 518.33984375 C342.39438521 511.07925967 372.75032557 503.02983939 402.67578125 493.0546875 C408.94514152 492.60687605 408.94514152 492.60687605 411.61328125 494.2421875 C413.06296559 496.71517843 413.09895448 498.23353262 412.67578125 501.0546875 C410.18743406 504.44713784 406.85992309 505.21830432 402.96484375 506.47265625 C402.29448593 506.6906488 401.62412811 506.90864136 400.93345642 507.13323975 C398.7258456 507.84695849 396.51386563 508.5456395 394.30078125 509.2421875 C393.53305389 509.48623322 392.76532654 509.73027893 391.97433472 509.98171997 C318.6098079 533.29117641 241.20808742 548.83645328 164.67578125 557.0546875 C163.54849609 557.1784375 163.54849609 557.1784375 162.3984375 557.3046875 C139.59908505 559.78973803 116.82498157 560.33580901 93.90839767 560.36431503 C91.83981243 560.3671343 89.77124634 560.37265391 87.70266724 560.37832642 C64.86290961 560.42363401 42.02714615 559.7949684 19.48828125 555.8046875 C17.61342041 555.47827271 17.61342041 555.47827271 15.70068359 555.14526367 C-23.46516322 548.09941031 -64.97735589 532.60395901 -89.11767578 499.02661133 C-90.92058621 496.4115063 -92.62693485 493.73916714 -94.32421875 491.0546875 C-94.85273437 490.27222656 -95.38125 489.48976563 -95.92578125 488.68359375 C-104.43414937 475.55704721 -109.60393525 460.37203316 -112.32421875 445.0546875 C-112.54851563 443.85199219 -112.7728125 442.64929688 -113.00390625 441.41015625 C-121.16784611 387.11436446 -104.8546202 331.2957864 -88.65014648 280.05541992 C-84.03017306 265.44001281 -79.63871517 250.76309703 -75.32421875 236.0546875 C-175.48900969 263.05673271 -274.9376744 292.55559648 -401.32421875 338.0546875 C-400.77109512 338.10622482 -400.2179715 338.15776215 -399.64808655 338.21086121 C-352.62777081 342.60720504 -305.46864758 347.44803033 -260.32421875 362.0546875 C-259.2892627 362.38162598 -258.25430664 362.70856445 -257.18798828 363.04541016 C-229.12276766 371.97120938 -202.17664945 383.97928333 -180.32421875 404.0546875 C-179.36773438 404.91707031 -178.41125 405.77945312 -177.42578125 406.66796875 C-160.05118882 423.09352882 -149.7996436 445.10041048 -148.92382812 469.05639648 C-148.53949834 494.28309573 -160.21576317 514.20679169 -177.38671875 532.1796875 C-182.24353817 537.06261885 -187.71084984 541.09155621 -193.32421875 545.0546875 C-193.88028809 545.45365234 -194.43635742 545.85261719 -195.00927734 546.26367188 C-202.72380838 551.76235052 -210.7735342 556.55723604 -219.07421875 561.1171875 C-220.32126587 561.80433838 -220.32126587 561.80433838 -221.59350586 562.50537109 C-236.78275087 570.69774172 -252.47001457 577.5207281 -268.57421875 583.6796875 C-270.36227742 584.3691481 -272.15011421 585.05918437 -273.93774414 585.74975586 C-277.60500814 587.16522654 -281.27384742 588.57650327 -284.94384766 589.98486328 C-290.0290193 591.93806647 -295.10507101 593.91410299 -300.1796875 595.89453125 C-334.75959083 609.36556 -369.69671693 621.81743114 -404.98834229 633.29473877 C-407.35396928 634.06436647 -409.71874298 634.83657861 -412.08349609 635.60888672 C-497.71958599 663.52550226 -584.81948134 688.66383225 -683.71124268 709.51293945 C-686.29908712 710.04947696 -688.88575506 710.59137309 -691.47216797 711.13476562 C-738.21276771 720.93549452 -785.62676157 728.91124814 -833.32421875 732.0546875 C-834.09185547 732.11108398 -834.85949219 732.16748047 -835.65039062 732.22558594 C-914.14899432 737.97851917 -914.14899432 737.97851917 -939.359375 716.87109375 C-948.74246206 708.19686813 -952.3878566 699.28896157 -953.546875 686.62109375 C-954.46608945 662.28189368 -939.11590021 638.95400961 -923.51171875 621.4921875 C-922.86589844 620.81027344 -922.22007812 620.12835937 -921.5546875 619.42578125 C-919.71324657 617.46824247 -917.96318198 615.4766703 -916.21484375 613.4375 C-911.67197645 608.22458254 -906.78457449 603.36915686 -901.88671875 598.4921875 C-900.98373047 597.58533203 -900.08074219 596.67847656 -899.15039062 595.74414062 C-894.03600533 590.63716211 -888.81189276 585.75538469 -883.32421875 581.0546875 C-881.71653502 579.60023233 -880.1118216 578.14247855 -878.51171875 576.6796875 C-874.18809937 572.77788464 -869.73679423 569.07320252 -865.20703125 565.4140625 C-862.7498774 563.40305854 -860.33983066 561.34863529 -857.94018555 559.26977539 C-849.56726475 552.04693046 -840.72364433 545.48289074 -831.83251953 538.91601562 C-829.53546786 537.21144857 -827.25358109 535.48899556 -824.9765625 533.7578125 C-810.1668208 522.56935119 -794.62698445 512.44687147 -779.1307373 502.24536133 C-776.66328647 500.61906797 -774.2011317 498.98481146 -771.73828125 497.3515625 C-742.4030807 477.98991617 -711.81574701 460.54068934 -680.84228516 443.95727539 C-678.07647755 442.46151282 -675.3202094 440.95162909 -672.56787109 439.43139648 C-658.77253317 431.82604832 -644.80248834 424.63304426 -630.69921875 417.6171875 C-629.60216614 417.0702121 -628.50511353 416.52323669 -627.37481689 415.95968628 C-612.00886521 408.30210593 -596.61818329 400.7489269 -580.96337891 393.69677734 C-577.54210475 392.1530037 -574.12726719 390.59590452 -570.71363831 389.03533936 C-551.43510362 380.22901111 -532.04259784 371.72428387 -512.51171875 363.4921875 C-511.51657257 363.07273865 -510.52142639 362.65328979 -509.49612427 362.22113037 C-506.68325624 361.03708153 -503.8693448 359.85556977 -501.0546875 358.67578125 C-500.21285919 358.32250259 -499.37103088 357.96922394 -498.50369263 357.60523987 C-497.73056732 357.28232468 -496.95744202 356.95940948 -496.16088867 356.62670898 C-495.48877853 356.34568832 -494.8166684 356.06466766 -494.12419128 355.77513123 C-492.54623209 355.14354892 -490.93665985 354.59216787 -489.32421875 354.0546875 C-503.38592223 353.88844683 -517.34969329 354.36215931 -531.38671875 355.1796875 C-532.50445679 355.24403992 -533.62219482 355.30839233 -534.77380371 355.37469482 C-618.79058182 360.27316862 -702.48808398 369.53668121 -786.11474609 378.78027344 C-890.41306014 390.29228551 -890.41306014 390.29228551 -911.32421875 374.1796875 C-917.04538888 368.87713957 -919.40374683 361.69150032 -919.69921875 354.0546875 C-919.48949122 338.28317738 -907.57055102 325.86342566 -897.32421875 315.0546875 C-896.24333984 313.91193359 -896.24333984 313.91193359 -895.140625 312.74609375 C-890.3780264 307.84766346 -885.32480249 303.49265449 -879.9921875 299.2265625 C-877.6265257 297.30078218 -875.37849912 295.3088955 -873.13671875 293.2421875 C-854.73283404 276.75672893 -833.12169151 263.26824038 -812.32421875 250.0546875 C-811.49341797 249.52520508 -810.66261719 248.99572266 -809.80664062 248.45019531 C-795.61318685 239.43543413 -781.05770115 231.15049618 -766.32421875 223.0546875 C-765.35242676 222.51924316 -764.38063477 221.98379883 -763.37939453 221.43212891 C-757.04332428 217.94377923 -750.69089855 214.48683039 -744.32421875 211.0546875 C-743.5235498 210.6220459 -742.72288086 210.1894043 -741.89794922 209.74365234 C-728.90915092 202.74513403 -715.69040913 196.29870718 -702.32421875 190.0546875 C-701.65998901 189.74384216 -700.99575928 189.43299683 -700.31140137 189.11273193 C-679.68468835 179.4629567 -658.95899593 170.15206374 -637.88671875 161.51611328 C-634.48652628 160.12127007 -631.09234017 158.71272158 -627.69921875 157.30078125 C-563.20052544 130.5842563 -491.04719564 101.24753201 -420.13671875 100.8046875 C-419.29947266 100.7840625 -418.46222656 100.7634375 -417.59960938 100.7421875 C-410.98298753 100.70093031 -405.31486414 101.61111139 -400.08203125 105.88671875 C-395.6796668 111.22642874 -393.00909307 115.30352543 -393.38671875 122.4296875 C-394.24484858 128.15698098 -396.4383142 132.83133057 -401.09375 136.41796875 C-403.4473452 137.79952463 -405.83459236 138.93470237 -408.32421875 140.0546875 C-409.43539062 140.56386719 -410.5465625 141.07304687 -411.69140625 141.59765625 C-420.34762124 145.49613543 -429.14805696 149.05888649 -437.94213867 152.63208008 C-445.04336306 155.51863116 -452.11258608 158.47502746 -459.15942383 161.49194336 C-466.6089448 164.65974966 -473.10499005 167.13722006 -481.32421875 166.0546875 C-485.73030618 163.89169913 -488.52296845 161.65788271 -490.32421875 157.0546875 C-490.99348834 152.12192277 -490.85843586 148.256676 -488.82421875 143.6796875 C-484.5140125 139.15397094 -479.40914312 137.3604568 -473.5546875 135.44140625 C-472.36008911 135.04828247 -472.36008911 135.04828247 -471.14135742 134.6472168 C-470.54170166 134.45168213 -469.9420459 134.25614746 -469.32421875 134.0546875 C-550.9889747 141.80920439 -632.90516981 173.61406325 -797.32421875 258.0546875 C-798.30132813 258.69374023 -799.2784375 259.33279297 -800.28515625 259.99121094 C-817.15994647 271.02350228 -817.15994647 271.02350228 -833.32421875 283.0546875 C-833.93136719 283.53470215 -834.53851562 284.0147168 -835.1640625 284.50927734 C-849.68802501 296.01798296 -849.68802501 296.01798296 -863.0234375 308.859375 C-864.32421875 310.0546875 -864.32421875 310.0546875 -866.32421875 310.0546875 C-866.32421875 310.7146875 -866.32421875 311.3746875 -866.32421875 312.0546875 C-866.98421875 312.0546875 -867.64421875 312.0546875 -868.32421875 312.0546875 C-868.32421875 312.7146875 -868.32421875 313.3746875 -868.32421875 314.0546875 C-868.98421875 314.0546875 -869.64421875 314.0546875 -870.32421875 314.0546875 C-870.67419922 314.87453125 -870.67419922 314.87453125 -871.03125 315.7109375 C-872.6751276 318.69077606 -874.76694278 320.9970867 -877.01171875 323.5546875 C-884.05007267 331.8150488 -889.68803417 340.14679033 -891.32421875 351.0546875 C-868.09901762 360.39216632 -843.44083011 360.56822418 -818.76171875 360.6171875 C-818.04866074 360.6192218 -817.33560272 360.6212561 -816.60093689 360.62335205 C-777.63842018 360.7089774 -739.05236122 356.98615325 -700.32421875 353.0546875 C-699.055532 352.92615639 -699.055532 352.92615639 -697.76121521 352.79502869 C-683.5081243 351.35080645 -669.25623379 349.89431587 -655.00643921 348.41790771 C-621.49045971 344.94797779 -587.94863893 342.23172372 -554.32421875 340.0546875 C-552.87263367 339.95991119 -552.87263367 339.95991119 -551.39172363 339.86322021 C-546.51667632 339.5475991 -541.64114384 339.25190007 -536.76296997 338.98880005 C-535.26661348 338.9079669 -533.77041126 338.82422356 -532.27438354 338.73751831 C-523.08973803 338.21597197 -513.9498191 338.02544182 -504.7498045 338.15208912 C-463.11171049 338.72462508 -431.14425629 334.19552048 -392.51513672 317.65869141 C-384.74530749 314.3493667 -376.8368107 311.5177124 -368.8475647 308.79006958 C-366.50485936 307.98984446 -364.16653813 307.17781263 -361.82885742 306.36303711 C-287.13226582 280.40806667 -211.19324953 257.97496597 -107.32421875 230.0546875 C-106.39623474 229.81022888 -105.46825073 229.56577026 -104.512146 229.31390381 C-98.59831025 227.75761748 -92.6813717 226.21368734 -86.76171875 224.6796875 C-86.02385132 224.48760712 -85.28598389 224.29552673 -84.52575684 224.09762573 C-82.49995752 223.57145196 -80.4729332 223.05035426 -78.4453125 222.53125 C-77.32568115 222.24330566 -76.2060498 221.95536133 -75.05249023 221.65869141 C-72.32421875 221.0546875 -72.32421875 221.0546875 -69.32421875 221.0546875 C-69.05702026 219.93803711 -69.05702026 219.93803711 -68.78442383 218.79882812 C-67.3523192 212.92743125 -65.78268505 207.15195926 -63.92749023 201.40112305 C-52.64922186 166.34558294 -42.93572974 130.4761635 -37.32421875 94.0546875 C-37.21934143 93.37398193 -37.11446411 92.69327637 -37.00640869 91.99194336 C-34.61499486 76.28827918 -33.05949433 60.58621725 -32.03515625 44.73657227 C-29.88574182 12.65980461 -29.88574182 12.65980461 -19.76171875 3.5546875 C-13.83992446 -1.14992505 -7.27683007 -2.9596519 0 0 Z M-466.8467865 362.10690308 C-472.49623653 364.72263447 -478.22338185 367.10977502 -483.9921875 369.44921875 C-484.93245285 369.83088196 -485.8727182 370.21254517 -486.84147644 370.60577393 C-488.78557161 371.39479378 -490.72969947 372.18373307 -492.67385864 372.97259521 C-515.41143407 382.23606055 -537.91714559 392.02185983 -560.32421875 402.0546875 C-561.08160339 402.39330811 -561.83898804 402.73192871 -562.61932373 403.08081055 C-604.17729991 421.67120249 -645.51836379 441.32374451 -685.0078125 464.0234375 C-689.42300823 466.5579522 -693.88223613 468.99823409 -698.36547852 471.40991211 C-712.25952152 478.88476949 -725.8209426 486.90040515 -739.32421875 495.0546875 C-740.44473633 495.73112305 -741.56525391 496.40755859 -742.71972656 497.10449219 C-757.507177 506.05942514 -772.0294521 515.33401946 -786.32421875 525.0546875 C-787.95435404 526.15635809 -789.58456179 527.25792147 -791.21484375 528.359375 C-806.80284406 538.92392639 -822.10054206 549.7887933 -836.68261719 561.71289062 C-838.18615955 562.94184196 -839.69627323 564.16274233 -841.20703125 565.3828125 C-860.30463796 580.86133922 -879.59908642 597.06282706 -895.32421875 616.0546875 C-895.77200684 616.58336426 -896.21979492 617.11204102 -896.68115234 617.65673828 C-913.59511183 637.64792627 -933.72794899 662.73256589 -932.6484375 690.46484375 C-931.90790569 696.38017613 -929.32806363 700.66250984 -925.32421875 705.0546875 C-922.9428601 706.58800836 -920.72306488 707.88005029 -918.19921875 709.1171875 C-917.49692139 709.46152832 -916.79462402 709.80586914 -916.07104492 710.16064453 C-861.80494645 735.45167751 -779.14679769 714.52142105 -723.32421875 704.0546875 C-722.50598633 703.90126892 -721.68775391 703.74785034 -720.84472656 703.58978271 C-610.77097651 682.85660565 -502.92881443 651.45464178 -365.32421875 604.0546875 C-364.3224762 603.69528076 -363.32073364 603.33587402 -362.28863525 602.96557617 C-325.91083551 590.0072757 -325.91083551 590.0072757 -290.32421875 575.0546875 C-289.3609668 574.61640625 -288.39771484 574.178125 -287.40527344 573.7265625 C-260.3721952 561.32786566 -232.99388116 547.1891963 -209.32421875 529.0546875 C-208.38835938 528.34183594 -207.4525 527.62898437 -206.48828125 526.89453125 C-190.01105338 513.88743589 -176.08076265 499.1123803 -171.32421875 478.0546875 C-170.64678237 467.04912273 -171.06275819 457.39189381 -175.32421875 447.0546875 C-175.66324219 446.22066406 -176.00226562 445.38664062 -176.3515625 444.52734375 C-188.22461284 418.45733641 -212.54054765 400.76223861 -237.32421875 388.0546875 C-237.98711914 387.71099121 -238.65001953 387.36729492 -239.33300781 387.01318359 C-282.41564558 364.9330727 -333.73849755 359.23336194 -381.32421875 355.0546875 C-382.34902344 354.96380859 -382.34902344 354.96380859 -383.39453125 354.87109375 C-391.46002121 354.1622128 -399.52037179 353.61074655 -407.60839844 353.23925781 C-410.81918265 353.07977339 -414.02250265 352.86827537 -417.22937012 352.6459198 C-435.6204018 351.45310656 -449.94690698 354.26032026 -466.8467865 362.10690308 Z " fill="#000000" transform="translate(1178.32421875,310.9453125)"/>
<path d="M0 0 C0.99 0 1.98 0 3 0 C3 485.76 3 971.52 3 1472 C2.01 1472 1.02 1472 0 1472 C0 986.24 0 500.48 0 0 Z " fill="#000000" transform="translate(1723,0)"/>
</svg>
