<?xml version="1.0" standalone="no"?>
<!DOCTYPE svg PUBLIC "-//W3C//DTD SVG 20010904//EN"
 "http://www.w3.org/TR/2001/REC-SVG-20010904/DTD/svg10.dtd">
<svg version="1.0" xmlns="http://www.w3.org/2000/svg"
 width="512.000000pt" height="512.000000pt" viewBox="0 0 512.000000 512.000000"
 preserveAspectRatio="xMidYMid meet">
<metadata>
Created by potrace 1.16, written by Peter Selinger 2001-2019
</metadata>
<g transform="translate(0.000000,512.000000) scale(0.100000,-0.100000)"
fill="#000000" stroke="none">
<path d="M4020 4594 c-74 -19 -234 -64 -355 -99 -482 -140 -806 -225 -1135
-299 -304 -68 -850 -186 -1030 -221 -74 -15 -145 -33 -157 -41 -31 -19 -40
-62 -58 -259 -17 -186 -69 -699 -116 -1145 -16 -157 -48 -458 -69 -670 -22
-212 -42 -413 -46 -447 -6 -60 -6 -63 17 -71 23 -8 107 -18 854 -97 632 -68
1020 -115 1045 -129 38 -20 191 -31 201 -14 7 10 9 9 9 -3 0 -12 11 -18 35
-21 24 -3 35 0 35 9 0 7 5 13 10 13 6 0 10 -7 10 -15 0 -19 56 -21 63 -2 3 7
6 5 6 -5 1 -10 9 -18 19 -18 9 0 27 -3 40 -6 16 -5 22 -2 22 10 0 9 5 16 10
16 6 0 10 -7 10 -15 0 -8 6 -16 13 -17 6 0 23 -2 37 -4 14 -2 94 -12 179 -23
253 -34 304 -36 324 -17 26 26 22 -4 -6 -45 -39 -58 -51 -60 -247 -38 -96 10
-254 25 -350 34 -366 32 -676 66 -1520 166 -814 96 -783 91 -807 116 -13 12
-23 18 -23 14 0 -21 46 -45 103 -53 129 -18 1548 -188 1566 -188 18 0 64 -125
69 -186 6 -78 -2 -109 -31 -129 -20 -12 -204 -44 -597 -102 l-45 -7 35 -8 c58
-13 73 -16 130 -33 30 -9 98 -27 150 -41 52 -14 128 -36 169 -49 40 -14 79
-25 86 -25 8 0 20 -6 28 -14 8 -8 27 -16 43 -18 19 -3 4 -7 -40 -12 -59 -7
-95 -4 -260 28 -105 19 -270 50 -366 67 -96 17 -183 35 -192 40 -20 11 -28 11
-28 2 1 -22 23 -34 90 -47 293 -59 687 -126 733 -126 31 0 100 9 154 19 127
25 320 42 470 41 65 -1 132 3 148 8 l30 9 -25 11 c-14 5 -32 17 -40 27 -12 14
-12 18 1 26 11 7 11 9 0 9 -7 0 0 13 17 28 59 55 56 116 -13 286 -26 64 -45
120 -41 123 3 3 119 -6 258 -21 139 -14 271 -26 293 -26 59 0 108 17 135 45
27 29 33 85 70 740 11 204 29 489 40 635 38 522 106 1574 136 2100 l7 115 -28
28 c-35 34 -82 64 -115 71 -14 3 -84 -10 -160 -30z m226 -222 c-21 -229 -24
-270 -41 -557 -20 -336 -27 -426 -33 -421 -5 5 20 423 49 820 10 149 19 293
19 320 1 40 3 47 11 33 7 -13 6 -70 -5 -195z m-114 116 c6 -15 -3 -167 -32
-533 -11 -143 -36 -480 -55 -750 -19 -269 -39 -548 -45 -620 -5 -71 -19 -283
-30 -470 -34 -575 -51 -857 -58 -930 -7 -67 -8 -70 -32 -68 -14 1 -86 9 -160
18 -650 75 -882 100 -1260 139 -239 25 -509 52 -600 61 -242 22 -650 64 -689
71 l-34 5 7 67 c26 286 60 623 80 812 48 433 87 808 125 1183 20 208 42 382
47 387 6 6 277 64 604 129 327 66 692 142 811 170 369 86 427 101 1129 297
171 47 186 50 192 32z m35 -1185 c-2 -16 -4 -5 -4 22 0 28 2 40 4 28 2 -13 2
-35 0 -50z m-10 -115 c-2 -13 -4 -5 -4 17 -1 22 1 32 4 23 2 -10 2 -28 0 -40z
m-10 -120 c-2 -13 -4 -5 -4 17 -1 22 1 32 4 23 2 -10 2 -28 0 -40z m-10 -130
c-2 -13 -4 -5 -4 17 -1 22 1 32 4 23 2 -10 2 -28 0 -40z m-10 -130 c-2 -13 -4
-5 -4 17 -1 22 1 32 4 23 2 -10 2 -28 0 -40z m-10 -140 c-2 -13 -4 -3 -4 22 0
25 2 35 4 23 2 -13 2 -33 0 -45z m-10 -160 c-2 -13 -4 -3 -4 22 0 25 2 35 4
23 2 -13 2 -33 0 -45z m-10 -155 c-2 -16 -4 -5 -4 22 0 28 2 40 4 28 2 -13 2
-35 0 -50z m-10 -185 c-2 -18 -4 -6 -4 27 0 33 2 48 4 33 2 -15 2 -42 0 -60z
m-10 -170 c-2 -13 -4 -3 -4 22 0 25 2 35 4 23 2 -13 2 -33 0 -45z m-10 -160
c-2 -13 -4 -5 -4 17 -1 22 1 32 4 23 2 -10 2 -28 0 -40z m-10 -170 c-2 -13 -4
-3 -4 22 0 25 2 35 4 23 2 -13 2 -33 0 -45z m-10 -180 c-2 -13 -4 -3 -4 22 0
25 2 35 4 23 2 -13 2 -33 0 -45z m-10 -165 c-3 -10 -5 -2 -5 17 0 19 2 27 5
18 2 -10 2 -26 0 -35z m-10 -140 c-3 -10 -5 -4 -5 12 0 17 2 24 5 18 2 -7 2
-21 0 -30z m-10 -145 c-3 -8 -6 -5 -6 6 -1 11 2 17 5 13 3 -3 4 -12 1 -19z
m-899 -283 c145 -19 267 -37 273 -40 5 -4 9 -13 9 -21 0 -18 -34 -18 -175 0
-61 8 -173 22 -250 31 -186 21 -185 21 -185 50 0 21 4 23 33 19 17 -2 150 -20
295 -39z m313 -195 c-13 -11 -28 -20 -35 -20 -6 0 3 9 19 20 38 25 47 25 16 0z
m-88 -37 c-7 -2 -19 -2 -25 0 -7 3 -2 5 12 5 14 0 19 -2 13 -5z m-46 -9 c-3
-3 -12 -4 -19 -1 -8 3 -5 6 6 6 11 1 17 -2 13 -5z m-130 -30 c-3 -3 -12 -4
-19 -1 -8 3 -5 6 6 6 11 1 17 -2 13 -5z m-350 -80 c-3 -3 -12 -4 -19 -1 -8 3
-5 6 6 6 11 1 17 -2 13 -5z"/>
<path d="M3988 4363 c7 -3 16 -2 19 1 4 3 -2 6 -13 5 -11 0 -14 -3 -6 -6z"/>
<path d="M3948 4353 c7 -3 16 -2 19 1 4 3 -2 6 -13 5 -11 0 -14 -3 -6 -6z"/>
<path d="M3880 4340 c-20 -6 -21 -8 -5 -8 11 0 29 3 40 8 25 11 -1 11 -35 0z"/>
<path d="M3590 4269 c-227 -56 -508 -120 -923 -209 -108 -24 -195 -45 -193
-47 13 -13 1354 292 1375 313 9 9 -31 0 -259 -57z"/>
<path d="M3978 4273 c21 -4 23 -9 18 -41 -3 -20 -8 -91 -12 -157 -4 -66 -10
-129 -14 -139 -5 -16 -41 -27 -204 -62 -170 -36 -236 -54 -200 -54 14 0 334
70 379 83 l40 12 7 115 c3 63 9 145 12 183 l6 67 -27 -1 c-25 -2 -26 -2 -5 -6z"/>
<path d="M3928 4263 c7 -3 16 -2 19 1 4 3 -2 6 -13 5 -11 0 -14 -3 -6 -6z"/>
<path d="M3740 4224 c-74 -19 -145 -37 -157 -39 -27 -6 -30 -18 -36 -140 -4
-73 -3 -86 3 -50 4 28 9 76 9 108 1 69 -9 63 191 112 160 39 174 44 145 43
-11 0 -81 -15 -155 -34z"/>
<path d="M3285 4010 l-7 -109 -44 -7 c-24 -3 -44 -10 -44 -14 0 -5 15 -4 32 1
18 5 37 9 42 9 5 0 6 -39 4 -86 -5 -87 -14 -108 -48 -101 -19 3 -17 77 2 89
10 6 9 8 -3 8 -17 0 -29 -37 -29 -86 0 -29 9 -30 139 -9 63 10 97 12 101 6 7
-13 35 -8 333 49 120 23 216 44 214 47 -3 2 -103 -14 -223 -37 -292 -56 -313
-59 -317 -47 -1 5 -33 4 -81 -3 -43 -6 -79 -10 -80 -8 -2 2 0 43 3 92 l6 89
40 13 40 13 -38 -6 -38 -5 7 106 c4 58 5 106 2 106 -3 0 -9 -49 -13 -110z"/>
<path d="M2705 4005 c-147 -31 -235 -53 -235 -58 0 -1 -13 -171 -30 -377 -44
-569 -55 -759 -43 -771 6 -6 95 -1 259 15 137 14 314 30 394 37 80 7 147 13
148 15 2 1 10 76 17 166 8 90 21 246 30 347 8 101 13 186 11 189 -6 6 -11 -45
-36 -338 -11 -140 -23 -279 -26 -307 l-5 -53 -42 0 c-23 0 -132 -9 -242 -20
-376 -37 -500 -48 -504 -44 -10 9 75 1124 86 1135 4 4 96 26 203 49 107 22
200 42 205 44 30 13 -49 0 -190 -29z"/>
<path d="M2080 3935 c-135 -30 -312 -68 -395 -85 -161 -33 -188 -40 -183 -45
3 -3 59 8 563 114 231 49 313 70 275 70 -8 -1 -125 -25 -260 -54z"/>
<path d="M2095 3874 c-99 -24 -268 -62 -375 -85 -107 -23 -202 -46 -210 -51
-11 -7 -10 -8 5 -4 11 3 85 19 165 36 264 55 595 133 605 142 13 11 14 11
-190 -38z"/>
<path d="M3005 3900 c-16 -4 -97 -22 -180 -39 -195 -40 -198 -41 -193 -47 5
-4 418 80 443 90 18 8 -39 4 -70 -4z"/>
<path d="M2150 3824 c-85 -18 -245 -52 -355 -74 -110 -22 -210 -43 -222 -45
-21 -5 -23 -11 -21 -58 l1 -52 6 50 6 49 45 9 c132 23 688 139 705 147 35 15
-5 9 -165 -26z"/>
<path d="M2838 3761 c-103 -20 -190 -39 -193 -42 -7 -8 117 13 274 45 159 33
155 34 147 -6 -3 -18 -17 -181 -31 -363 -14 -181 -27 -340 -29 -352 -2 -13 1
-23 5 -23 5 0 9 12 9 28 0 38 48 646 56 705 6 47 6 47 -23 46 -15 0 -112 -17
-215 -38z"/>
<path d="M2153 3751 c-67 -14 -124 -29 -128 -32 -3 -4 56 6 132 22 76 15 141
28 144 29 8 0 -2 -113 -10 -123 -6 -5 -483 -97 -507 -97 -2 0 -4 -4 -4 -9 0
-6 11 -6 28 0 15 5 130 27 257 49 126 23 233 44 236 48 4 4 9 37 12 75 6 80
19 76 -160 38z"/>
<path d="M3101 3730 c-1 -19 -8 -118 -16 -220 -15 -190 -18 -266 -11 -259 7 7
38 477 33 496 -3 10 -5 2 -6 -17z"/>
<path d="M2905 3719 c-214 -39 -275 -52 -271 -56 2 -3 84 10 181 27 96 18 178
30 182 27 6 -7 -16 -338 -23 -346 -4 -4 -298 -50 -323 -51 -8 0 -12 -3 -8 -6
9 -9 339 39 343 51 6 17 30 343 26 354 -4 13 -37 12 -107 0z"/>
<path d="M1492 3690 c0 -19 2 -27 5 -17 2 9 2 25 0 35 -3 9 -5 1 -5 -18z"/>
<path d="M3959 3676 c-2 -3 -103 -21 -224 -40 -121 -20 -230 -38 -242 -41 -21
-5 -23 -12 -23 -63 0 -31 -4 -63 -9 -70 -4 -8 -27 -16 -50 -19 -22 -3 -41 -9
-41 -13 0 -5 8 -6 18 -4 9 2 127 22 262 44 231 38 326 57 318 65 -1 2 -48 -6
-103 -16 -55 -11 -154 -28 -220 -39 -66 -11 -131 -23 -145 -25 l-25 -6 5 68
c5 64 7 68 30 71 59 7 455 74 459 78 2 2 2 6 -1 9 -2 3 -7 3 -9 1z"/>
<path d="M1593 3600 c0 -25 2 -35 4 -22 2 12 2 32 0 45 -2 12 -4 2 -4 -23z"/>
<path d="M1633 3570 c0 -30 2 -43 4 -27 2 15 2 39 0 55 -2 15 -4 2 -4 -28z"/>
<path d="M1472 3570 c-11 -44 -3 -57 25 -41 17 10 17 10 -1 11 -15 0 -17 5
-12 35 9 48 1 44 -12 -5z"/>
<path d="M1543 3535 c0 -27 2 -38 4 -22 2 15 2 37 0 50 -2 12 -4 0 -4 -28z"/>
<path d="M2055 3541 c-110 -21 -217 -41 -237 -45 -30 -5 -37 -4 -41 11 -4 14
-5 13 -6 -4 0 -13 2 -23 5 -23 17 0 509 91 513 95 9 9 -36 3 -234 -34z"/>
<path d="M2880 3565 c-36 -7 -98 -18 -138 -25 -40 -7 -71 -14 -68 -18 8 -7
276 41 276 50 0 4 -1 8 -2 7 -2 0 -32 -7 -68 -14z"/>
<path d="M1583 3505 c0 -22 2 -30 4 -17 2 12 2 30 0 40 -3 9 -5 -1 -4 -23z"/>
<path d="M1623 3465 c0 -27 2 -38 4 -22 2 15 2 37 0 50 -2 12 -4 0 -4 -28z"/>
<path d="M2105 3485 c-66 -13 -154 -28 -195 -35 -41 -7 -70 -15 -63 -17 6 -2
99 11 205 31 106 19 204 37 218 39 18 3 15 4 -10 4 -19 1 -89 -10 -155 -22z"/>
<path d="M1693 3455 c0 -27 2 -38 4 -22 2 15 2 37 0 50 -2 12 -4 0 -4 -28z"/>
<path d="M1721 3443 c1 -53 6 -49 11 10 2 20 0 37 -4 37 -4 0 -8 -21 -7 -47z"/>
<path d="M1533 3435 c0 -27 2 -38 4 -22 2 15 2 37 0 50 -2 12 -4 0 -4 -28z"/>
<path d="M1483 3435 c0 -22 2 -30 4 -17 2 12 2 30 0 40 -3 9 -5 -1 -4 -23z"/>
<path d="M2788 3436 c-69 -11 -130 -24 -134 -29 -4 -4 6 -5 22 -2 16 3 85 14
153 25 68 11 126 22 129 25 9 9 -37 3 -170 -19z"/>
<path d="M1573 3410 c0 -25 2 -35 4 -22 2 12 2 32 0 45 -2 12 -4 2 -4 -23z"/>
<path d="M2030 3410 c-102 -15 -188 -26 -192 -23 -5 2 -8 -1 -8 -7 0 -7 12 -9
33 -6 17 3 115 17 217 31 102 14 190 28 195 30 29 11 -81 -1 -245 -25z"/>
<path d="M3680 3406 c-107 -17 -187 -32 -177 -34 17 -4 429 57 436 64 10 9
-77 -1 -259 -30z"/>
<path d="M1613 3370 c0 -25 2 -35 4 -22 2 12 2 32 0 45 -2 12 -4 2 -4 -23z"/>
<path d="M1681 3388 c0 -10 -7 -18 -15 -18 -11 0 -13 -10 -9 -42 8 -57 13 -61
13 -10 0 22 5 42 11 44 6 2 9 13 6 23 -4 17 -5 17 -6 3z"/>
<path d="M2165 3390 c-153 -25 -195 -33 -191 -37 5 -5 268 35 275 42 6 6 -22
5 -84 -5z"/>
<path d="M1713 3345 c0 -27 2 -38 4 -22 2 15 2 37 0 50 -2 12 -4 0 -4 -28z"/>
<path d="M1473 3345 c0 -22 2 -30 4 -17 2 12 2 30 0 40 -3 9 -5 -1 -4 -23z"/>
<path d="M1523 3330 c0 -25 2 -35 4 -22 2 12 2 32 0 45 -2 12 -4 2 -4 -23z"/>
<path d="M3365 3363 c-16 -3 -34 -9 -39 -13 -10 -10 49 -3 94 11 l25 7 -25 0
c-14 -1 -38 -3 -55 -5z"/>
<path d="M3605 3316 c-165 -28 -292 -52 -283 -54 25 -5 581 88 593 99 5 6 5 9
0 8 -6 -1 -145 -25 -310 -53z"/>
<path d="M1555 3265 c-4 -48 -5 -89 -2 -91 2 -3 8 34 12 81 4 48 5 89 2 91 -2
3 -8 -34 -12 -81z"/>
<path d="M2060 3315 c-69 -13 -168 -30 -220 -39 -52 -9 -103 -19 -112 -22 -10
-3 -18 2 -21 13 -4 16 -5 16 -6 1 0 -9 2 -19 7 -22 4 -2 91 11 192 29 295 53
347 63 315 63 -16 0 -86 -11 -155 -23z"/>
<path d="M2341 3300 c-1 -14 -4 -36 -6 -50 l-6 -25 11 25 c6 13 9 36 7 50 l-4
25 -2 -25z"/>
<path d="M1603 3260 c0 -30 2 -43 4 -27 2 15 2 39 0 55 -2 15 -4 2 -4 -28z"/>
<path d="M1463 3265 c0 -22 2 -30 4 -17 2 12 2 30 0 40 -3 9 -5 -1 -4 -23z"/>
<path d="M1513 3245 c0 -22 2 -30 4 -17 2 12 2 30 0 40 -3 9 -5 -1 -4 -23z"/>
<path d="M1653 3235 c0 -22 2 -30 4 -17 2 12 2 30 0 40 -3 9 -5 -1 -4 -23z"/>
<path d="M2055 3244 c-77 -13 -113 -21 -80 -18 78 6 289 42 250 42 -16 0 -93
-11 -170 -24z"/>
<path d="M1453 3185 c0 -22 2 -30 4 -17 2 12 2 30 0 40 -3 9 -5 -1 -4 -23z"/>
<path d="M1995 3185 c-375 -53 -343 -51 -348 -18 -4 27 -4 27 -6 -4 -1 -28 2
-33 22 -33 39 1 588 78 595 84 8 9 -12 7 -263 -29z"/>
<path d="M3915 3215 c-13 -5 -379 -50 -525 -65 -112 -12 -153 -20 -94 -20 34
0 322 32 507 56 70 9 127 21 127 25 0 5 -1 9 -2 8 -2 0 -7 -2 -13 -4z"/>
<path d="M1592 3175 c0 -16 2 -22 5 -12 2 9 2 23 0 30 -3 6 -5 -1 -5 -18z"/>
<path d="M1502 3170 c0 -14 2 -19 5 -12 2 6 2 18 0 25 -3 6 -5 1 -5 -13z"/>
<path d="M1543 3125 c0 -22 2 -30 4 -17 2 12 2 30 0 40 -3 9 -5 -1 -4 -23z"/>
<path d="M2075 3139 c-82 -11 -156 -21 -162 -24 -8 -3 -13 -24 -13 -58 l0 -54
-99 -11 c-282 -33 -342 -36 -353 -21 -8 12 -9 12 -5 -1 2 -8 18 -16 35 -18 34
-3 410 36 424 44 4 3 8 27 8 54 0 27 4 51 8 54 10 6 249 36 286 36 23 0 26 -4
26 -37 0 -46 6 -40 13 15 3 28 1 42 -6 41 -7 -1 -79 -10 -162 -20z"/>
<path d="M1443 3075 c0 -38 2 -53 4 -32 2 20 2 52 0 70 -2 17 -4 1 -4 -38z"/>
<path d="M2330 3105 c0 -15 -7 -120 -16 -231 -8 -112 -14 -214 -12 -226 2 -13
12 88 22 225 10 136 16 250 12 254 -3 3 -6 -6 -6 -22z"/>
<path d="M3688 3111 c-75 -9 -140 -20 -145 -25 -4 -5 5 -6 22 -3 17 4 82 11
145 18 63 6 119 15 125 20 5 6 5 9 0 8 -6 -1 -72 -9 -147 -18z"/>
<path d="M3324 3080 c-29 -4 -56 -10 -62 -14 -5 -3 -13 -62 -17 -131 -8 -145
8 -131 -155 -140 -148 -8 -170 -13 -170 -37 0 -53 -3 -54 -251 -68 -227 -13
-231 -14 -242 -37 -6 -14 -7 -27 -1 -32 8 -8 336 1 479 12 83 7 -156 5 -305
-2 -85 -4 -159 -5 -163 -1 -4 4 -5 13 -2 21 4 12 51 18 238 28 128 7 238 17
245 23 6 6 12 23 12 38 0 33 9 36 182 46 70 4 121 11 127 18 6 6 13 65 17 130
8 134 3 128 111 139 l62 7 4 -63 3 -62 2 68 2 67 -32 -1 c-18 -1 -56 -5 -84
-9z"/>
<path d="M1383 3020 c0 -25 2 -35 4 -22 2 12 2 32 0 45 -2 12 -4 2 -4 -23z"/>
<path d="M3948 2958 c-3 -67 -5 -73 -28 -80 -23 -6 -23 -7 5 -5 l30 2 5 78 c3
42 2 77 -2 77 -4 0 -8 -32 -10 -72z"/>
<path d="M1373 2915 c0 -27 2 -38 4 -22 2 15 2 37 0 50 -2 12 -4 0 -4 -28z"/>
<path d="M3571 2931 c-167 -18 -236 -30 -239 -39 -3 -10 0 -11 14 -4 16 9 356
48 467 54 21 1 41 6 43 10 7 11 -21 9 -285 -21z"/>
<path d="M1815 2935 c-7 -11 -57 -20 -195 -34 -102 -10 -169 -19 -149 -20 43
-1 316 27 342 35 9 3 17 12 17 20 0 18 -3 18 -15 -1z"/>
<path d="M2170 2893 c-19 -2 -138 -13 -265 -24 -126 -12 -293 -27 -370 -35
-140 -13 -140 -13 -30 -8 61 3 254 18 430 35 176 16 325 27 331 25 8 -3 10
-55 6 -186 -5 -190 -2 -207 38 -195 8 2 191 9 405 15 215 7 442 15 505 20
l115 7 -85 1 c-47 1 -186 -2 -310 -8 -124 -5 -324 -12 -444 -16 l-219 -7 5
181 c4 122 2 184 -5 191 -11 11 -35 12 -107 4z"/>
<path d="M1361 2849 c-1 -9 7 -23 17 -30 15 -12 16 -12 6 1 -6 8 -14 22 -17
30 -5 13 -6 12 -6 -1z"/>
<path d="M3559 2840 c-204 -18 -271 -26 -219 -29 39 -2 503 38 508 44 8 8 -65
4 -289 -15z"/>
<path d="M2072 2630 c-7 -107 -15 -207 -17 -222 -3 -16 -1 -28 4 -28 4 0 9 28
9 63 1 34 7 123 13 197 6 74 9 146 7 160 -2 14 -9 -63 -16 -170z"/>
<path d="M2122 2687 c-11 -126 -25 -420 -16 -347 9 81 36 472 32 476 -3 2 -10
-56 -16 -129z"/>
<path d="M1830 2794 c-80 -7 -156 -13 -169 -13 -13 -1 -22 -3 -19 -6 8 -9 338
18 338 27 0 4 -1 7 -2 7 -2 -1 -68 -7 -148 -15z"/>
<path d="M2230 2755 c-1 -33 -5 -86 -9 -117 -4 -32 -4 -58 0 -58 9 0 23 203
16 222 -3 7 -6 -14 -7 -47z"/>
<path d="M1493 2763 c9 -2 25 -2 35 0 9 3 1 5 -18 5 -19 0 -27 -2 -17 -5z"/>
<path d="M3590 2751 c-166 -13 -205 -19 -207 -31 -3 -15 -21 -307 -48 -740 -8
-135 -16 -273 -19 -307 -2 -35 -1 -63 3 -63 3 0 14 132 24 293 28 490 48 801
52 813 2 6 83 15 204 23 111 7 214 17 229 21 l27 8 -30 0 c-16 -1 -122 -8
-235 -17z"/>
<path d="M1383 2753 c15 -2 39 -2 55 0 15 2 2 4 -28 4 -30 0 -43 -2 -27 -4z"/>
<path d="M2645 2743 c-203 -15 -269 -23 -263 -29 6 -6 438 26 478 35 l35 9
-35 0 c-19 -1 -116 -7 -215 -15z"/>
<path d="M1675 2689 c-148 -9 -283 -18 -299 -18 -16 -1 -27 -3 -24 -6 3 -3
155 3 338 14 183 11 337 18 343 14 6 -3 7 -1 3 5 -9 14 -14 14 -361 -9z"/>
<path d="M3598 2670 c-76 -3 -142 -10 -147 -15 -8 -9 -26 -268 -61 -888 -5
-98 -10 -193 -10 -212 0 -35 0 -35 -46 -35 -25 0 -121 7 -212 15 -92 8 -266
24 -386 35 -121 11 -222 18 -224 15 -7 -7 36 -13 168 -25 69 -6 253 -22 409
-36 156 -14 288 -21 292 -17 4 4 19 215 34 468 36 653 37 665 46 671 13 7 343
22 351 15 4 -3 5 -16 2 -28 -5 -19 -14 -22 -62 -25 -39 -2 -57 -8 -60 -18 -4
-12 -2 -13 9 -2 7 6 37 12 66 12 48 0 53 2 59 25 3 14 4 32 0 40 -6 16 3 16
-228 5z"/>
<path d="M2015 2570 c-3 -56 -5 -104 -2 -106 3 -3 8 40 12 96 4 56 5 103 2
106 -2 3 -8 -41 -12 -96z"/>
<path d="M3908 2641 c-5 -18 -8 -50 -7 -70 0 -34 1 -34 10 -11 6 13 9 45 7 70
-3 45 -3 45 -10 11z"/>
<path d="M1485 2530 l-140 -7 187 1 c113 1 191 -3 197 -9 5 -5 11 -41 13 -80
l3 -70 110 -1 110 0 -107 3 -108 4 0 74 c0 86 -9 96 -82 93 -24 -1 -106 -5
-183 -8z"/>
<path d="M2796 2479 c-169 -4 -313 -10 -320 -13 -14 -6 606 2 723 10 l84 5 -6
-88 c-4 -48 -9 -142 -11 -208 -4 -95 -3 -105 3 -50 5 39 12 134 16 213 l7 142
-93 -2 c-52 0 -233 -5 -403 -9z"/>
<path d="M1693 2430 c0 -25 2 -35 4 -22 2 12 2 32 0 45 -2 12 -4 2 -4 -23z"/>
<path d="M1383 2453 c26 -2 68 -2 95 0 26 2 4 3 -48 3 -52 0 -74 -1 -47 -3z"/>
<path d="M1335 2410 c-11 -4 47 -6 130 -3 83 3 152 7 154 9 9 8 -265 2 -284
-6z"/>
<path d="M2242 2412 c-6 -5 133 -6 310 -4 178 2 325 5 327 8 8 8 -624 4 -637
-4z"/>
<path d="M1681 2364 c-1 -12 5 -26 12 -32 15 -12 357 -22 357 -11 0 5 -80 10
-177 11 l-177 3 -7 25 c-6 22 -7 23 -8 4z"/>
<path d="M3566 2353 c-2 -10 -7 -83 -11 -163 -3 -80 -8 -157 -11 -172 -3 -16
-1 -28 4 -28 6 0 13 73 17 174 4 95 10 178 14 184 4 6 36 13 71 15 l65 3 -72
2 c-61 2 -72 -1 -77 -15z"/>
<path d="M1388 2343 c39 -2 105 -2 145 0 39 1 7 3 -73 3 -80 0 -112 -2 -72 -3z"/>
<path d="M2225 2338 c-2 -7 -11 -134 -20 -283 -30 -507 -30 -481 -12 -488 9
-3 65 -11 124 -17 60 -6 207 -22 328 -35 121 -14 236 -24 255 -24 51 2 -28 13
-325 44 -137 14 -279 29 -315 33 l-65 7 0 75 c0 90 24 526 31 558 l5 23 257
-6 c141 -3 310 -8 375 -10 77 -4 117 -2 117 5 0 6 -53 10 -148 10 -82 0 -250
3 -373 7 l-224 6 2 54 c2 51 -3 67 -12 41z"/>
<path d="M2290 2330 c0 -6 72 -10 195 -10 123 0 195 4 195 10 0 6 -72 10 -195
10 -123 0 -195 -4 -195 -10z"/>
<path d="M3643 2313 c-8 -3 -13 -25 -13 -59 0 -30 -7 -141 -15 -247 -26 -340
-46 -669 -41 -674 8 -9 15 72 62 817 3 47 7 100 10 118 l5 32 104 0 c98 0 105
-1 105 -20 0 -11 5 -20 10 -20 11 0 13 20 4 44 -5 13 -24 16 -113 15 -58 0
-112 -3 -118 -6z"/>
<path d="M1296 2258 c-3 -13 -5 -39 -5 -58 1 -27 3 -22 9 20 9 58 7 77 -4 38z"/>
<path d="M1372 2241 c-7 -19 -10 -36 -7 -39 6 -7 26 49 22 62 -2 6 -9 -5 -15
-23z"/>
<path d="M1695 2259 c99 -3 200 -7 224 -8 l44 -1 -7 -162 c-4 -90 -11 -205
-15 -255 -3 -51 -4 -93 0 -93 6 0 29 358 29 456 l0 61 -67 6 c-38 4 -140 6
-228 5 l-160 -2 180 -7z"/>
<path d="M1442 2248 c-7 -7 -11 -37 -10 -72 l1 -61 6 65 c5 51 10 66 24 68 10
2 21 -5 26 -20 6 -13 10 -18 10 -11 2 38 -31 57 -57 31z"/>
<path d="M1552 2225 c0 -16 2 -22 5 -12 2 9 2 23 0 30 -3 6 -5 -1 -5 -18z"/>
<path d="M3686 2189 c-3 -13 -8 -80 -11 -149 -5 -107 -22 -363 -40 -590 -3
-48 -2 -57 4 -35 8 27 23 213 51 639 9 140 7 190 -4 135z"/>
<path d="M3791 2200 c-4 -39 -41 -649 -41 -678 0 -20 4 -31 10 -27 6 4 8 10 6
14 -3 4 4 155 15 336 11 181 18 339 16 350 -2 11 -5 13 -6 5z"/>
<path d="M1483 2145 c0 -33 2 -45 4 -27 2 18 2 45 0 60 -2 15 -4 0 -4 -33z"/>
<path d="M1543 2120 c0 -36 2 -50 4 -32 2 17 2 47 0 65 -2 17 -4 3 -4 -33z"/>
<path d="M3871 2155 c-9 -178 -59 -906 -62 -909 -2 -2 -41 1 -85 5 -109 11
-446 43 -837 79 -174 16 -401 39 -504 49 -103 11 -189 18 -191 16 -9 -9 150
-27 773 -85 116 -10 354 -33 529 -50 205 -20 322 -27 326 -21 8 14 64 902 57
926 -3 14 -5 12 -6 -10z"/>
<path d="M1363 2120 c0 -25 2 -35 4 -22 2 12 2 32 0 45 -2 12 -4 2 -4 -23z"/>
<path d="M1283 2115 c0 -22 2 -30 4 -17 2 12 2 30 0 40 -3 9 -5 -1 -4 -23z"/>
<path d="M1323 2065 c0 -27 2 -38 4 -22 2 15 2 37 0 50 -2 12 -4 0 -4 -28z"/>
<path d="M1423 2060 c0 -30 2 -43 4 -27 2 15 2 39 0 55 -2 15 -4 2 -4 -28z"/>
<path d="M2077 2023 c-4 -49 -12 -203 -18 -343 -6 -140 -15 -259 -20 -264 -9
-10 -438 27 -514 44 -48 11 -277 31 -283 25 -5 -4 58 -12 163 -20 44 -4 96
-10 115 -15 52 -13 460 -52 500 -48 l35 3 7 120 c18 326 29 577 25 581 -2 3
-7 -35 -10 -83z"/>
<path d="M1473 2040 c0 -25 2 -35 4 -22 2 12 2 32 0 45 -2 12 -4 2 -4 -23z"/>
<path d="M1341 1909 c-7 -88 -11 -162 -8 -165 2 -3 10 68 17 156 7 88 11 163
8 165 -3 3 -10 -67 -17 -156z"/>
<path d="M1273 2020 c0 -25 2 -35 4 -22 2 12 2 32 0 45 -2 12 -4 2 -4 -23z"/>
<path d="M1533 2000 c0 -30 2 -43 4 -27 2 15 2 39 0 55 -2 15 -4 2 -4 -28z"/>
<path d="M3696 1744 c-10 -157 -16 -288 -13 -290 6 -6 14 89 27 321 6 99 13
197 15 218 3 20 2 37 -3 37 -5 0 -16 -129 -26 -286z"/>
<path d="M1313 1950 c0 -30 2 -43 4 -27 2 15 2 39 0 55 -2 15 -4 2 -4 -28z"/>
<path d="M1460 1956 c0 -24 -5 -36 -17 -39 -14 -4 -12 -5 5 -6 19 -1 22 4 22
39 0 22 -2 40 -5 40 -3 0 -5 -15 -5 -34z"/>
<path d="M1263 1920 c0 -25 2 -35 4 -22 2 12 2 32 0 45 -2 12 -4 2 -4 -23z"/>
<path d="M1376 1929 c-3 -17 -5 -48 -5 -68 1 -24 4 -15 10 29 9 68 6 92 -5 39z"/>
<path d="M1520 1853 c-3 -40 -1 -68 3 -64 4 4 7 37 5 72 l-3 64 -5 -72z"/>
<path d="M1423 1845 c0 -33 2 -45 4 -27 2 18 2 45 0 60 -2 15 -4 0 -4 -33z"/>
<path d="M1303 1830 c0 -30 2 -43 4 -27 2 15 2 39 0 55 -2 15 -4 2 -4 -28z"/>
<path d="M1253 1825 c0 -22 2 -30 4 -17 2 12 2 30 0 40 -3 9 -5 -1 -4 -23z"/>
<path d="M1363 1770 c0 -30 2 -43 4 -27 2 15 2 39 0 55 -2 15 -4 2 -4 -28z"/>
<path d="M1413 1745 c0 -22 2 -30 4 -17 2 12 2 30 0 40 -3 9 -5 -1 -4 -23z"/>
<path d="M1243 1735 c0 -22 2 -30 4 -17 2 12 2 30 0 40 -3 9 -5 -1 -4 -23z"/>
<path d="M3458 1729 c-4 -25 -9 -124 -12 -220 l-5 -174 14 200 c15 198 16 282
3 194z"/>
<path d="M1285 1660 c-3 -56 -5 -104 -2 -106 3 -3 8 40 12 96 4 56 5 103 2
106 -2 3 -8 -41 -12 -96z"/>
<path d="M1322 1690 c0 -19 2 -27 5 -17 2 9 2 25 0 35 -3 9 -5 1 -5 -18z"/>
<path d="M1348 1670 c-2 -22 0 -40 4 -40 5 0 8 18 8 40 0 22 -2 40 -4 40 -2 0
-6 -18 -8 -40z"/>
<path d="M1461 1706 c4 -5 351 -36 393 -36 11 0 17 2 15 5 -5 4 -347 35 -391
35 -12 0 -19 -2 -17 -4z"/>
<path d="M1232 1650 c0 -19 2 -27 5 -17 2 9 2 25 0 35 -3 9 -5 1 -5 -18z"/>
<path d="M1312 1604 l-2 -41 53 -6 c161 -19 225 -20 242 -3 9 9 12 16 6 16 -5
0 -13 -5 -17 -11 -7 -11 -102 -8 -226 8 -45 5 -47 7 -51 42 l-4 36 -1 -41z"/>
<path d="M1700 1550 c137 -15 226 -20 205 -11 -11 5 -79 11 -150 14 -99 4
-112 4 -55 -3z"/>
<path d="M1610 1490 c-41 -23 -38 -24 11 -7 37 13 74 12 284 -8 44 -4 78 -5
75 -2 -4 4 -73 12 -285 32 -37 3 -59 0 -85 -15z"/>
<path d="M2210 1491 c14 -4 68 -11 120 -15 52 -4 106 -10 119 -13 15 -4 22 -2
18 4 -4 6 -50 13 -104 17 -54 4 -116 9 -138 12 -31 3 -35 2 -15 -5z"/>
<path d="M3065 1452 c9 -8 229 -32 296 -32 16 0 30 7 33 16 5 14 4 15 -8 5
-11 -10 -43 -10 -138 -1 -68 6 -139 13 -158 16 -22 4 -31 2 -25 -4z"/>
<path d="M1041 1324 c0 -11 3 -14 6 -6 3 7 2 16 -1 19 -3 4 -6 -2 -5 -13z"/>
<path d="M2658 393 c12 -2 30 -2 40 0 9 3 -1 5 -23 4 -22 0 -30 -2 -17 -4z"/>
</g>
</svg>