<?xml version="1.0" standalone="no"?>
<!DOCTYPE svg PUBLIC "-//W3C//DTD SVG 20010904//EN"
 "http://www.w3.org/TR/2001/REC-SVG-20010904/DTD/svg10.dtd">
<svg version="1.0" xmlns="http://www.w3.org/2000/svg"
 width="512.000000pt" height="512.000000pt" viewBox="0 0 512.000000 512.000000"
 preserveAspectRatio="xMidYMid meet">
<metadata>
Created by potrace 1.16, written by Peter Selinger 2001-2019
</metadata>
<g transform="translate(0.000000,512.000000) scale(0.100000,-0.100000)"
fill="#000000" stroke="none">
<path d="M2823 4445 c-72 -20 -122 -47 -180 -96 -78 -68 -114 -80 -257 -82
-122 -2 -125 -2 -163 -33 -51 -41 -77 -96 -78 -164 0 -96 71 -186 153 -192 29
-2 31 -5 41 -63 6 -34 11 -87 11 -119 0 -32 4 -65 10 -75 7 -14 5 -23 -10 -36
-17 -16 -18 -20 -6 -44 8 -14 28 -39 45 -55 30 -29 31 -32 25 -91 -7 -71 5
-89 61 -87 32 1 35 -1 35 -29 0 -22 6 -32 25 -41 14 -6 25 -19 25 -28 0 -9 9
-25 20 -35 11 -10 20 -30 20 -44 1 -44 36 -108 69 -125 45 -24 73 -20 157 24
73 38 79 39 96 23 25 -22 23 -35 -13 -69 -49 -46 -53 -61 -33 -105 15 -35 16
-41 2 -57 -55 -62 -93 -198 -108 -391 -6 -78 -18 -157 -26 -177 -8 -20 -13
-38 -11 -41 3 -2 11 11 18 29 12 30 13 23 19 -102 4 -74 13 -168 20 -208 15
-84 11 -91 -50 -92 l-35 -1 38 -30 c20 -17 37 -38 37 -46 0 -8 -3 -13 -7 -11
-174 81 -195 104 -162 177 23 52 16 54 -11 1 -27 -52 -25 -70 9 -117 l28 -39
-26 -31 c-18 -21 -60 -44 -141 -76 -147 -58 -177 -65 -338 -71 -155 -7 -218
-19 -249 -48 l-23 -21 -117 38 c-116 37 -119 37 -183 25 -48 -10 -65 -10 -68
-1 -6 17 -20 13 -27 -9 -3 -10 -23 -29 -43 -41 -47 -28 -157 -134 -183 -176
-20 -31 -39 -43 -39 -24 0 17 103 167 143 209 l42 44 -35 -21 c-19 -11 -49
-21 -67 -21 -51 0 -63 -9 -63 -46 0 -24 5 -34 15 -34 21 0 19 -13 -4 -34 -11
-10 -28 -38 -38 -62 -10 -24 -22 -44 -28 -44 -12 0 -365 -206 -400 -234 -21
-17 -25 -27 -20 -48 9 -35 13 -36 499 -38 397 -1 409 -1 430 19 20 19 28 20
141 11 66 -5 157 -7 203 -3 58 4 82 3 82 -6 0 -7 23 -11 65 -11 58 0 142 -22
183 -48 10 -7 82 -236 82 -263 0 -5 -470 -9 -1215 -9 l-1215 0 0 -30 0 -29
1067 0 c734 -1 1070 -4 1077 -11 7 -7 13 -102 16 -248 3 -130 7 -192 8 -137
l2 100 128 37 c237 70 456 107 728 123 126 8 118 10 286 -91 l93 -56 -50 51
c-27 28 -46 51 -42 51 13 0 144 -68 208 -109 68 -43 89 -40 63 11 -32 62 -164
138 -430 247 -65 26 -120 53 -122 59 -6 20 55 42 116 42 33 0 90 -9 127 -21
87 -27 193 -95 201 -129 11 -53 44 -108 109 -185 37 -44 74 -81 82 -83 7 -2
29 12 49 32 34 34 34 36 20 63 -19 38 -152 163 -221 209 -30 20 -53 39 -51 41
6 6 192 -65 259 -99 46 -23 58 -33 54 -47 -3 -14 0 -17 12 -14 12 3 54 -33
129 -111 62 -64 112 -120 112 -125 0 -5 -12 -24 -27 -41 l-27 -32 -95 5 c-53
3 -175 13 -271 22 -309 30 -737 9 -955 -46 -91 -24 -313 -102 -365 -130 -34
-18 -10 -18 1067 -19 l1102 0 19 28 c44 62 55 144 44 315 -15 231 15 496 82
717 19 63 84 264 146 445 119 355 132 415 97 468 -21 33 -57 57 -100 67 l-32
8 37 1 c57 2 114 -25 128 -60 23 -56 4 -135 -134 -535 -192 -560 -219 -699
-214 -1118 l3 -231 -26 -53 -26 -52 24 0 c49 0 104 99 123 221 9 56 9 105 1
196 -34 374 12 600 236 1156 58 146 86 230 90 270 9 91 33 70 33 -29 0 -42
-12 -86 -51 -187 -56 -146 -109 -302 -108 -320 0 -7 11 17 25 53 14 36 51 133
84 215 66 168 84 234 74 279 -8 36 -57 131 -82 160 -46 52 -176 76 -302 57
-99 -16 -168 -48 -208 -99 -37 -46 -97 -198 -137 -347 -15 -55 -28 -101 -29
-102 -1 -1 -2 147 -2 330 -1 564 -28 757 -140 980 -93 185 -284 393 -486 528
-20 14 -57 53 -83 87 -48 64 -71 83 -92 75 -6 -2 -17 6 -24 19 -15 28 -18 228
-5 373 9 112 0 165 -40 224 -13 20 -24 44 -24 55 0 56 -96 178 -171 217 -95
48 -257 63 -366 34z m343 -57 c27 -15 56 -33 63 -42 11 -13 8 -13 -20 1 -95
47 -235 18 -394 -82 -30 -19 -30 -19 5 19 41 44 90 76 134 87 23 6 15 8 -31 5
-45 -3 -78 -13 -120 -35 -51 -27 -55 -28 -31 -7 15 13 53 34 85 45 32 12 65
26 73 31 8 6 53 9 100 7 68 -3 95 -9 136 -29z m47 -62 c18 -7 41 -24 52 -37
l20 -24 -20 16 c-11 9 -38 26 -60 37 -45 24 -41 29 8 8z m-563 -36 c-52 -45
-128 -86 -192 -105 -101 -29 -131 -72 -117 -165 9 -57 3 -63 -16 -17 -43 104
-6 157 160 227 44 19 103 46 130 61 66 36 77 36 35 -1z m534 -10 c30 -12 60
-28 68 -37 12 -15 11 -15 -12 -3 -30 17 -168 18 -196 2 -17 -10 -14 -12 16
-12 32 -1 29 -3 -25 -19 -75 -22 -115 -42 -189 -97 -101 -76 -211 -92 -305
-44 -23 11 -41 23 -41 25 0 3 15 -2 33 -11 52 -28 162 -30 227 -5 30 12 66 30
80 41 20 15 3 12 -78 -16 -152 -52 -160 -46 -60 51 45 44 73 69 62 55 -50 -60
-31 -54 111 35 71 45 100 53 182 54 50 1 89 -5 127 -19z m-925 -99 c-22 -36
-32 -66 -36 -111 -4 -40 -9 -57 -14 -48 -10 19 6 124 23 147 18 24 51 61 54
61 2 0 -11 -22 -27 -49z m45 -33 c-12 -24 -15 -48 -11 -97 4 -50 3 -61 -6 -45
-18 31 -14 116 6 147 24 37 31 34 11 -5z m-122 -47 c-2 -27 1 -65 7 -83 10
-30 9 -31 -4 -14 -15 20 -20 100 -9 130 10 26 11 19 6 -33z m363 18 c14 -6 1
-7 -39 -3 -45 4 -56 3 -51 -7 6 -8 4 -10 -4 -5 -24 15 -51 -24 -51 -73 0 -33
-3 -42 -10 -31 -16 25 -11 76 11 104 18 22 28 26 72 25 29 0 61 -5 72 -10z
m485 -17 c-19 -2 -84 -19 -143 -38 -60 -20 -111 -34 -113 -31 -7 6 202 75 241
79 17 2 35 1 40 -2 6 -3 -6 -6 -25 -8z m93 1 c-7 -2 -19 -2 -25 0 -7 3 -2 5
12 5 14 0 19 -2 13 -5z m-695 -28 c-6 -14 -13 -23 -15 -21 -5 5 15 46 22 46 3
0 -1 -11 -7 -25z m763 -50 c48 -17 93 -55 115 -97 24 -47 15 -44 -16 6 -59 92
-186 114 -362 63 -80 -23 -201 -45 -170 -31 10 5 9 9 -4 19 -14 10 -3 14 72
24 49 6 105 16 124 20 59 15 194 12 241 -4z m-517 -37 c11 -15 16 -45 16 -91
l0 -68 62 -28 62 -27 -30 -21 c-58 -40 -116 -74 -110 -64 19 31 -151 -1 -203
-38 -16 -12 -35 -21 -43 -22 -10 0 -10 -2 0 -6 18 -7 15 -23 -5 -23 -31 0 -53
31 -53 76 0 24 -5 78 -11 120 l-12 77 39 33 c105 90 253 132 288 82z m343 6
c-3 -3 -12 -4 -19 -1 -8 3 -5 6 6 6 11 1 17 -2 13 -5z m-102 -29 c-80 -26
-179 -43 -155 -26 8 6 26 11 40 11 14 0 54 9 90 19 91 27 110 24 25 -4z m-679
-17 l29 -33 -32 29 c-31 28 -38 36 -30 36 2 0 16 -15 33 -32z m659 -23 c-38
-13 -88 -24 -110 -23 -36 0 -35 1 15 9 30 4 73 15 95 23 22 8 47 14 55 14 8 0
-16 -11 -55 -23z m241 -60 c32 -32 54 -85 53 -127 0 -18 -12 -67 -27 -108 -27
-73 -28 -75 -60 -74 -35 2 -36 -1 -21 -65 19 -83 -7 -62 -51 41 -48 112 -59
198 -33 248 7 14 13 30 13 36 0 21 57 74 79 74 12 0 33 -11 47 -25z m-147 1
c-2 -2 -15 -9 -29 -15 -24 -11 -24 -11 -6 3 16 13 49 24 35 12z m-39 -59 c0
-2 -17 -19 -37 -38 l-38 -34 34 38 c33 34 41 42 41 34z m-68 -104 c32 -35 51
-71 43 -83 -3 -6 -2 -10 3 -10 4 0 8 -29 7 -64 -1 -53 -6 -71 -27 -102 -22
-31 -25 -41 -16 -58 10 -19 10 -20 -5 -7 -10 7 -17 9 -17 3 0 -5 7 -15 15 -22
22 -18 11 -24 -17 -9 -21 11 -22 11 -9 -4 7 -10 19 -17 25 -17 7 0 21 -7 32
-15 16 -12 12 -12 -21 1 -22 9 -46 21 -52 26 -10 8 -13 -3 -13 -51 0 -33 -3
-60 -7 -59 -5 1 -21 -2 -36 -7 -24 -6 -34 -2 -65 27 -47 44 -103 78 -130 78
-26 0 -37 16 -17 24 9 3 15 18 15 34 0 21 11 39 40 65 22 19 40 40 40 45 0 5
-11 25 -24 45 l-24 35 76 55 c79 57 143 97 153 97 3 0 17 -12 31 -27z m-233
-37 c-17 -15 -89 -44 -89 -36 0 12 55 39 79 40 8 0 12 -2 10 -4z m650 -109
c17 -10 47 -19 67 -21 68 -6 62 -26 -40 -120 -52 -47 -97 -86 -100 -86 -4 0 2
12 13 28 11 15 23 41 27 57 4 19 -5 9 -25 -30 -26 -52 -130 -189 -137 -182 -2
1 2 23 8 47 10 44 6 190 -6 220 -4 11 6 20 33 32 36 14 42 22 57 75 23 79 23
80 49 36 13 -21 37 -46 54 -56z m-799 36 c-8 -3 -24 -10 -35 -15 -20 -9 -20
-9 -1 6 11 9 27 16 35 15 14 0 14 -1 1 -6z m90 -7 c0 -3 -4 -8 -10 -11 -5 -3
-10 -1 -10 4 0 6 5 11 10 11 6 0 10 -2 10 -4z m-188 -43 c8 -10 18 -28 21 -41
5 -19 3 -21 -9 -11 -8 7 -24 25 -35 41 -16 21 -17 28 -6 28 8 0 21 -8 29 -17z
m99 5 c42 -14 58 -34 58 -73 l0 -30 -49 53 c-56 60 -66 60 -19 1 17 -21 28
-39 26 -39 -12 0 -68 81 -62 90 8 12 5 12 46 -2z m139 -17 c15 -29 13 -38 -19
-60 l-29 -21 -4 35 c-3 30 -1 34 13 30 10 -3 20 -1 24 5 4 6 -5 10 -22 10 -22
0 -25 2 -13 10 23 15 38 12 50 -9z m-70 -144 c0 -4 -8 -10 -17 -13 -10 -3 -36
-15 -59 -26 -23 -12 -46 -18 -53 -14 -12 8 -14 46 -5 123 l7 52 63 -57 c35
-31 64 -61 64 -65z m943 64 c20 -26 37 -50 37 -52 0 -3 -87 -92 -193 -199
-165 -167 -228 -241 -282 -335 -9 -15 -18 -6 -64 64 l-53 81 72 85 c89 105
415 405 439 405 4 0 24 -22 44 -49z m161 -155 c166 -130 326 -317 406 -476 84
-168 105 -273 105 -525 0 -221 -5 -248 -71 -392 -31 -68 -111 -190 -119 -181
-1 2 5 48 15 104 10 55 24 146 30 202 8 74 19 119 40 164 39 84 60 169 60 243
0 61 -33 242 -46 254 -4 3 -4 -5 0 -19 4 -14 9 -57 13 -95 5 -59 1 -88 -23
-174 -28 -98 -29 -102 -38 -70 -30 117 -137 378 -120 294 18 -96 36 -297 41
-480 5 -203 5 -216 -26 -396 -62 -367 -173 -673 -292 -803 -80 -87 -103 -96
-261 -96 -73 0 -200 5 -283 10 -150 10 -546 50 -554 56 -2 2 2 28 9 58 l13 55
66 -25 c194 -74 232 -83 408 -94 176 -10 319 -13 312 -6 -2 3 -83 9 -180 15
-238 14 -326 32 -414 82 -38 22 -90 45 -115 52 -25 6 -49 14 -53 18 -16 12 24
126 53 154 25 24 44 29 162 46 142 21 221 40 278 69 19 10 59 23 88 29 52 11
53 11 83 -22 21 -22 27 -25 20 -10 -13 26 -14 43 -2 61 12 20 56 -5 131 -74
44 -41 59 -62 55 -75 -4 -10 9 -51 29 -94 32 -70 66 -119 66 -97 0 18 -39 101
-65 139 -36 54 -31 63 11 17 19 -21 32 -32 28 -24 -13 25 -115 152 -163 202
-25 26 -42 50 -40 53 3 3 29 -2 58 -11 87 -25 184 -132 266 -289 29 -55 35
-62 35 -38 0 53 -29 137 -66 190 -61 89 -182 173 -270 188 -56 10 -84 31 -84
61 0 37 59 146 175 321 56 83 94 148 85 143 -9 -5 -49 -43 -88 -85 -77 -81
-75 -81 -50 20 12 47 57 139 106 215 37 58 132 248 132 265 0 6 -37 -54 -82
-132 -45 -79 -83 -141 -85 -139 -3 2 14 68 36 146 23 78 41 145 41 148 -1 4
-24 -51 -52 -121 -65 -163 -73 -156 -73 68 1 117 5 176 17 219 9 32 13 55 8
50 -14 -14 -57 -171 -69 -254 -17 -105 -25 -102 -17 7 17 229 124 460 250 538
41 25 62 31 125 33 73 4 80 2 156 -37 48 -25 70 -32 55 -19 -50 42 -131 72
-200 72 -36 1 -77 -2 -92 -7 -26 -7 -30 -3 -82 85 -30 51 -68 111 -85 132 -18
22 -30 43 -29 47 4 12 119 99 130 99 6 0 47 -29 92 -64z m-1061 -43 c-7 -2
-21 -2 -30 0 -10 3 -4 5 12 5 17 0 24 -2 18 -5z m101 -47 l44 -45 -32 -19
c-30 -18 -34 -18 -44 -3 -10 13 -12 14 -11 1 3 -36 0 -41 -15 -28 -9 9 -11 19
-5 29 13 25 -12 69 -38 69 -33 0 -37 17 -6 28 48 18 61 13 107 -32z m753 0
c15 -19 53 -77 84 -127 l57 -93 -39 -28 c-44 -32 -106 -112 -142 -183 -40 -82
-86 -238 -98 -338 -10 -81 -9 -104 6 -173 9 -43 28 -108 42 -142 l25 -64 -26
-79 c-14 -43 -26 -97 -26 -120 0 -27 -9 -58 -26 -86 -65 -112 -103 -250 -74
-268 18 -11 11 -51 -12 -72 -13 -11 -44 -23 -71 -27 -26 -3 -86 -21 -132 -41
-47 -19 -89 -35 -94 -35 -20 0 -20 117 0 210 11 55 24 169 29 270 12 220 15
247 51 459 34 204 36 247 4 104 -23 -105 -50 -277 -62 -398 l-7 -70 -8 65
c-17 127 3 368 52 610 22 111 38 147 102 235 24 33 78 112 119 175 70 107 190
250 210 250 4 0 21 -16 36 -34z m-519 -260 c-9 -29 -8 -38 12 -66 20 -28 23
-46 26 -149 l2 -116 -18 35 c-11 19 -24 59 -31 88 -11 49 -11 54 9 75 12 13
22 28 22 33 0 6 -18 28 -40 49 l-40 39 27 28 c33 34 44 28 31 -16z m-2 -300
l26 -66 -22 -178 c-31 -254 -35 -387 -16 -504 20 -124 20 -215 -1 -303 -9 -38
-18 -115 -19 -170 l-2 -100 -38 -7 c-80 -14 -76 -21 -69 105 4 61 13 187 21
278 8 92 14 222 14 290 1 68 5 169 10 224 5 55 11 168 14 250 5 146 5 148 -9
95 -8 -30 -18 -109 -22 -175 l-7 -120 -18 90 c-17 78 -18 100 -8 165 15 93 44
190 78 255 l26 50 7 -56 c5 -31 20 -86 35 -123z m1265 -747 c25 -251 -44 -437
-212 -570 l-40 -32 24 37 c51 74 131 341 178 589 14 72 26 113 30 104 5 -8 14
-65 20 -128z m709 96 c45 -48 20 -174 -65 -331 -29 -55 -28 -48 22 86 43 115
51 214 19 249 -27 30 -5 26 24 -4z m-509 -72 c-12 -20 -14 -14 -5 12 4 9 9 14
11 11 3 -2 0 -13 -6 -23z m-24 -75 c-3 -8 -6 -5 -6 6 -1 11 2 17 5 13 3 -3 4
-12 1 -19z m-1648 -102 c21 -11 17 -12 -33 -8 -65 5 -73 -3 -17 -18 53 -14 84
-40 75 -63 -6 -17 -7 -17 -28 0 -21 18 -21 18 -3 -3 20 -24 21 -53 6 -108
l-11 -39 -39 46 c-34 40 -95 87 -112 87 -3 0 10 -24 30 -52 19 -29 48 -79 64
-110 l29 -57 -53 -17 c-35 -12 -82 -17 -145 -17 -81 1 -101 5 -145 28 l-52 26
35 -37 c19 -20 49 -45 65 -55 l30 -19 -30 0 c-16 0 -52 -3 -80 -6 l-50 -6 0
73 c-1 70 -8 94 -53 182 -2 4 18 7 45 7 59 0 128 20 235 66 43 20 98 39 121
44 37 7 39 9 19 15 l-23 8 22 23 c25 27 61 30 98 10z m-1053 -181 c75 -33 161
-55 217 -55 58 0 70 -16 75 -95 4 -56 2 -64 -16 -69 -12 -4 -43 4 -78 19 -69
30 -252 133 -260 146 -3 5 -12 3 -20 -5 -8 -8 -39 -18 -69 -21 -30 -4 -55 -11
-55 -16 0 -12 -76 -50 -84 -42 -3 4 -6 2 -6 -4 0 -6 -18 -23 -40 -38 -22 -15
-40 -34 -40 -41 0 -8 -4 -14 -9 -14 -5 0 -17 -3 -26 -7 -54 -20 73 141 153
196 37 25 151 69 184 70 10 1 43 -10 74 -24z m527 -18 c34 -45 49 -101 45
-167 l-3 -55 -60 -3 c-33 -2 -82 -1 -110 3 l-50 6 -3 47 c-3 67 -18 104 -53
138 l-30 29 113 16 c62 9 116 17 119 18 4 0 18 -14 32 -32z m1992 -64 c-10
-110 -50 -292 -86 -397 -30 -84 -31 -90 -16 -121 43 -90 46 -233 7 -321 -18
-42 -20 -60 -15 -119 7 -70 -10 -145 -33 -145 -16 0 -177 141 -315 278 l-138
136 23 18 c30 23 31 23 124 -8 106 -34 153 -63 245 -152 81 -77 98 -78 60 -4
-27 52 -102 119 -164 146 -29 13 -89 33 -134 46 -46 12 -83 26 -83 31 0 4 44
21 98 38 113 36 150 62 203 144 44 68 50 91 17 60 -28 -25 -120 -83 -169 -105
l-36 -16 23 56 c20 52 28 60 80 87 101 51 164 127 242 286 37 76 69 139 70
139 2 0 1 -35 -3 -77z m-2915 32 c-25 -27 -45 -32 -55 -15 -11 18 16 40 48 40
l30 0 -23 -25z m508 -128 c148 -74 231 -108 267 -111 14 0 25 -2 25 -3 0 -1
-5 -13 -11 -26 -8 -18 -8 -30 0 -46 7 -12 8 -21 2 -21 -5 0 -14 12 -19 28 l-9
27 -12 -40 c-6 -22 -11 -56 -11 -76 0 -43 -12 -49 -110 -49 -50 0 -93 10 -198
46 -146 50 -194 53 -278 21 -27 -10 -51 -13 -69 -9 l-28 8 39 31 c60 46 81 55
163 64 99 11 130 37 39 32 -35 -2 -82 -6 -104 -9 -40 -5 -137 -55 -170 -88
-17 -17 -50 -21 -58 -7 -9 14 15 36 94 88 107 71 133 83 187 84 26 0 57 5 68
10 14 6 -2 8 -52 6 -73 -4 -116 -23 -235 -102 -21 -14 -38 -21 -38 -16 0 5 7
12 16 15 8 3 13 10 9 16 -3 5 30 38 74 72 69 55 92 66 173 89 51 15 99 27 106
28 7 0 70 -27 140 -62z m2733 -68 c122 -33 88 -32 -57 1 -82 19 -110 29 -76
26 29 -3 88 -15 133 -27z m-3361 -4 c0 -5 -165 -118 -225 -154 -77 -46 -9 8
105 83 117 78 120 79 120 71z m1600 -9 c0 -2 -9 -6 -20 -9 -11 -3 -20 -1 -20
4 0 5 9 9 20 9 11 0 20 -2 20 -4z m-581 -15 c-20 -4 -47 -18 -60 -30 l-24 -23
34 17 c23 11 47 15 72 12 36 -5 38 -4 28 14 -7 13 -6 19 1 19 6 0 13 -6 16
-14 3 -8 12 -12 20 -9 8 3 14 0 14 -6 0 -6 -5 -10 -12 -8 -6 1 -14 -7 -16 -18
-7 -36 -42 -55 -104 -55 -45 0 -59 4 -66 18 -23 42 29 93 93 91 l40 -1 -36 -7z
m468 -22 c-31 -24 -61 -77 -72 -129 -12 -63 -16 -71 -33 -66 -9 2 -51 7 -92
11 -86 7 -78 -3 23 -30 53 -14 67 -21 67 -36 0 -24 -26 -89 -36 -89 -4 0 -60
25 -125 57 -110 52 -119 58 -125 89 -11 62 26 181 63 203 11 6 91 10 188 10
l170 0 -28 -20z m-1397 -24 c-7 -9 -15 -13 -18 -11 -2 3 -11 -1 -19 -9 -8 -8
-20 -15 -26 -15 -6 0 0 8 13 17 14 10 28 18 32 18 3 0 10 3 14 8 14 13 17 7 4
-8z m-105 -5 c-3 -5 -12 -10 -18 -10 -7 0 -6 4 3 10 19 12 23 12 15 0z m-35
-24 c0 -2 -7 -6 -15 -10 -8 -3 -15 -1 -15 4 0 6 7 10 15 10 8 0 15 -2 15 -4z
m-62 -25 c11 -7 10 -9 -3 -14 -11 -5 -14 -3 -9 5 5 8 2 9 -10 5 -10 -4 -15 -3
-11 3 7 12 16 12 33 1z m104 -11 c-41 -25 -51 -26 -21 0 13 10 31 19 39 20 8
0 0 -9 -18 -20z m-152 -5 c0 -12 -46 -45 -64 -45 -16 0 -11 6 19 24 47 28 45
27 45 21z m100 -5 c0 -5 -5 -10 -11 -10 -5 0 -7 5 -4 10 3 6 8 10 11 10 2 0 4
-4 4 -10z m116 -2 c4 -7 3 -8 -4 -4 -7 4 -22 0 -34 -10 l-23 -16 23 5 c12 3
20 1 16 -4 -6 -11 -38 -12 -47 -2 -4 3 5 15 20 25 33 21 39 22 49 6z m879 3
c-3 -6 18 -8 52 -6 47 3 51 2 23 -4 -35 -8 -35 -8 13 -10 47 -1 47 -1 47 -36
0 -27 -4 -35 -18 -35 -10 0 -23 -5 -29 -11 -7 -7 -26 -8 -52 -4 -38 6 -40 9
-47 50 -5 40 -1 65 12 65 3 0 3 -4 -1 -9z m-1024 -34 c-7 -7 -14 -8 -21 -1 -6
6 -2 10 12 11 16 2 18 -1 9 -10z m189 3 c12 -8 11 -10 -7 -10 -13 0 -23 5 -23
10 0 13 11 13 30 0z m103 -47 c-95 -2 -251 -2 -345 0 -95 1 -18 3 172 3 190 0
267 -2 173 -3z m2987 -98 c47 -15 89 -31 94 -36 9 -8 -125 30 -181 52 -24 9
-33 21 -10 14 6 -2 50 -16 97 -30z m-1893 -80 c42 -19 88 -35 102 -35 65 0
366 -51 379 -64 12 -11 11 -18 -3 -47 -10 -19 -18 -35 -20 -36 -1 -2 -93 -30
-206 -62 -171 -50 -466 -147 -531 -176 -16 -6 -18 0 -18 69 l0 76 145 0 145 0
0 29 c0 16 -18 86 -39 155 -21 69 -37 126 -34 126 2 0 38 -16 80 -35z m1868
-215 c3 -5 -10 -1 -29 11 -20 12 -36 23 -36 25 0 7 58 -25 65 -36z m-80 -180
c19 -79 35 -150 35 -157 0 -25 -63 -43 -105 -32 -32 9 -36 14 -30 32 3 12 13
69 20 127 20 145 30 188 41 178 2 -2 19 -69 39 -148z m123 -350 c-3 -27 -11
-56 -18 -65 -12 -14 -15 -11 -27 25 -13 39 -13 41 14 65 15 13 30 25 32 25 2
0 1 -22 -1 -50z m-191 -26 c28 -14 63 -40 77 -59 37 -48 32 -48 -17 0 -31 29
-63 48 -105 61 -34 10 -62 22 -62 27 0 11 49 -2 107 -29z"/>
<path d="M2963 4261 c-28 -11 -76 -35 -105 -54 -29 -19 -79 -47 -110 -61 -32
-14 -58 -27 -58 -29 0 -7 66 9 118 27 23 8 61 28 85 44 74 51 130 75 192 82
l60 7 -65 1 c-41 1 -84 -6 -117 -17z"/>
<path d="M2420 3695 c-7 -9 -10 -18 -7 -21 3 -3 10 4 17 15 13 25 8 27 -10 6z"/>
<path d="M3058 3853 c-27 -31 -31 -77 -10 -103 17 -21 23 -23 53 -14 l34 11
-37 22 c-21 13 -38 25 -38 28 0 13 22 43 33 43 18 0 59 -66 68 -108 l7 -37 1
43 c2 93 -67 164 -111 115z"/>
<path d="M3040 3713 c0 -6 5 -15 10 -18 6 -3 10 -16 10 -28 0 -12 5 -29 10
-37 8 -13 12 -11 30 7 11 12 20 35 20 52 0 26 -3 29 -40 33 -27 2 -40 0 -40
-9z"/>
<path d="M2504 3394 c-18 -14 -18 -15 4 -4 12 6 22 13 22 15 0 8 -5 6 -26 -11z"/>
<path d="M3732 2149 c-35 -71 -86 -160 -114 -197 l-51 -67 44 40 c83 75 135
153 169 254 39 116 16 102 -48 -30z"/>
<path d="M3903 1830 c-6 -36 -30 -153 -52 -260 -22 -107 -42 -217 -45 -245
l-6 -50 20 53 c26 72 54 207 80 385 22 153 24 232 3 117z"/>
<path d="M3330 1541 c8 -5 47 -14 85 -21 39 -6 79 -14 90 -17 15 -4 17 -2 9 6
-10 11 -147 41 -182 41 -15 -1 -15 -2 -2 -9z"/>
<path d="M3300 1347 c0 -16 51 -85 94 -127 53 -51 59 -47 17 13 -30 44 -111
126 -111 114z"/>
<path d="M3139 1301 c20 -36 111 -129 133 -134 14 -4 -6 21 -57 73 -44 44 -81
80 -83 80 -1 0 2 -9 7 -19z"/>
<path d="M2639 1172 c53 -100 328 -229 468 -220 46 3 44 4 -72 36 -141 39
-255 91 -343 156 -38 28 -59 39 -53 28z"/>
<path d="M3290 2999 c-57 -77 -95 -137 -73 -114 18 18 143 195 138 195 -3 0
-32 -37 -65 -81z"/>
<path d="M3422 2988 c-47 -68 -97 -175 -135 -288 -37 -107 -119 -421 -113
-428 10 -10 59 117 85 224 51 201 133 426 189 512 26 40 4 23 -26 -20z"/>
<path d="M3051 2494 c0 -11 3 -14 6 -6 3 7 2 16 -1 19 -3 4 -6 -2 -5 -13z"/>
<path d="M3051 2090 c-15 -69 -34 -241 -27 -247 7 -8 13 25 31 166 16 132 14
166 -4 81z"/>
<path d="M2300 1540 c30 -11 64 -19 75 -18 11 0 -5 8 -35 18 -30 11 -64 19
-75 18 -11 0 5 -8 35 -18z"/>
<path d="M1560 1405 c-40 -9 -47 -13 -25 -14 17 0 48 4 69 9 33 7 50 4 98 -15
72 -29 76 -23 6 10 -59 28 -69 28 -148 10z"/>
<path d="M1394 1329 c-71 -53 -101 -79 -74 -64 33 18 158 115 148 115 -3 0
-36 -23 -74 -51z"/>
<path d="M2106 1218 c3 -4 31 -8 62 -7 66 1 60 6 -15 12 -29 2 -50 0 -47 -5z"/>
<path d="M2497 1013 c-4 -3 -7 -17 -7 -30 0 -34 24 -24 27 10 2 26 -6 34 -20
20z"/>
<path d="M119 4374 l-33 -34 26 -27 c33 -35 73 -124 88 -197 6 -30 20 -66 31
-79 17 -22 19 -42 19 -166 0 -78 -2 -141 -6 -141 -3 0 -33 19 -66 42 -48 32
-70 41 -100 40 -72 -3 -78 -12 -78 -105 1 -63 17 -156 69 -397 l68 -315 -20
-29 c-11 -15 -20 -42 -21 -60 -1 -19 -9 -38 -23 -49 -33 -26 -29 -57 30 -317
l52 -225 36 -23 c34 -22 37 -29 54 -110 22 -110 35 -132 78 -132 32 0 33 -2
50 -66 l18 -66 -32 -61 c-17 -34 -52 -100 -76 -147 l-45 -85 -114 -31 c-119
-32 -128 -36 -123 -52 2 -5 58 6 125 25 l121 34 72 -32 c39 -17 71 -35 71 -39
0 -5 -20 -33 -45 -63 -25 -31 -49 -67 -55 -81 -9 -26 -11 -26 -114 -26 -112 0
-131 -8 -124 -52 l3 -23 405 0 405 0 57 33 c64 37 75 49 60 64 -8 8 -25 2 -58
-19 -44 -29 -48 -30 -80 -17 -24 10 -78 14 -184 14 -120 0 -150 3 -150 14 0
18 38 104 49 111 13 7 33 -56 22 -69 -7 -8 36 -11 152 -11 89 0 178 -3 197 -8
25 -5 31 -4 23 4 -6 6 -63 13 -126 16 -190 10 -122 23 113 23 207 0 220 1 230
19 23 44 13 58 -42 65 -83 9 -474 7 -502 -3 -22 -9 -20 -3 26 75 l50 84 132
41 c72 22 158 49 190 60 33 10 61 19 64 19 2 0 3 -44 1 -97 l-4 -98 109 -3
c90 -2 113 0 135 15 23 15 63 18 344 21 l317 4 0 245 c0 207 -2 244 -15 249
-12 5 -15 28 -15 120 l0 114 -289 0 -288 0 -7 -31 c-3 -17 -6 -67 -6 -110 0
-66 -3 -79 -16 -79 -13 0 -15 8 -10 48 11 90 11 137 1 140 -5 1 -11 -9 -13
-23 -4 -34 -22 -32 -23 3 -1 15 -6 -2 -11 -38 -4 -36 -6 -81 -3 -100 4 -30 1
-36 -15 -37 -10 -1 -21 6 -24 15 -11 37 -27 174 -22 180 11 10 18 -6 31 -80
l13 -73 0 55 c0 71 -19 162 -35 168 -11 3 -18 -23 -14 -50 0 -4 -5 -5 -13 -2
-10 4 -11 -6 0 -56 25 -122 27 -160 10 -160 -18 0 -22 15 -66 225 -28 134
-183 809 -211 920 -6 24 -20 51 -30 61 -10 9 -139 83 -286 164 l-268 148 -3
148 -3 147 42 38 42 38 47 -39 c69 -57 76 -68 54 -76 -47 -15 -94 -38 -94 -46
0 -17 63 -133 91 -169 46 -59 78 -68 253 -76 142 -6 158 -4 176 12 11 10 20
24 20 32 0 13 -205 217 -380 377 -47 43 -146 126 -220 184 -74 58 -151 120
-170 137 -51 47 -63 48 -101 9z m19 -14 c-7 -10 -14 -17 -17 -15 -4 4 18 35
25 35 2 0 -1 -9 -8 -20z m204 -112 c72 -57 179 -146 237 -198 161 -144 397
-378 389 -385 -7 -7 -268 218 -438 380 -58 55 -156 144 -218 199 -62 54 -112
100 -112 102 0 10 20 -4 142 -98z m-42 -73 c69 -69 121 -125 116 -125 -5 0
-24 18 -43 40 -19 22 -43 40 -54 40 -16 0 -45 -34 -63 -75 -7 -15 -36 25 -36
49 0 12 -16 58 -34 103 -31 74 -34 93 -17 93 4 0 62 -56 131 -125z m70 -110
c27 -28 31 -37 21 -48 -10 -10 -19 -4 -47 26 -31 33 -37 57 -15 57 4 0 22 -16
41 -35z m-57 -61 c-7 -19 -23 -7 -23 18 0 17 3 18 14 8 8 -6 12 -18 9 -26z
m27 -205 c0 -84 -4 -128 -10 -124 -6 4 -10 60 -10 136 0 84 4 128 10 124 6 -4
10 -60 10 -136z m314 48 c54 -24 161 -98 225 -157 l55 -50 -142 0 c-193 0
-225 17 -295 157 -27 52 -25 63 12 75 22 7 103 -7 145 -25z m-474 -100 c25
-16 50 -35 55 -42 6 -6 149 -88 320 -180 171 -92 320 -174 332 -182 21 -14 38
-42 29 -50 -2 -2 -154 73 -338 168 -304 156 -336 174 -353 207 -23 42 -70 57
-82 26 -8 -22 64 -355 202 -929 62 -258 137 -585 166 -725 29 -140 53 -256 53
-256 1 -1 80 18 176 42 215 54 464 113 466 111 1 -1 5 -16 8 -33 l7 -31 -127
-37 c-126 -37 -154 -39 -154 -12 0 8 -5 18 -11 21 -6 4 -89 -12 -185 -36
l-175 -44 6 -44 c10 -67 -11 -41 -24 31 -78 415 -115 580 -259 1173 -107 438
-182 788 -182 847 0 21 0 21 70 -25z m45 -134 c37 -18 43 -27 23 -39 -6 -4 -8
-3 -5 3 12 20 -27 25 -41 6 -13 -16 -14 -16 -10 9 3 15 0 29 -6 32 -6 2 -8 5
-4 5 4 1 23 -7 43 -16z m485 -254 c0 -4 -7 -6 -15 -3 -8 4 -15 10 -15 15 0 4
7 6 15 3 8 -4 15 -10 15 -15z m-444 -24 c2 -10 -2 -26 -7 -34 -8 -12 -9 -11
-4 7 4 13 2 22 -4 22 -6 0 -11 7 -11 16 0 22 23 12 26 -11z m428 -10 c3 -8 1
-15 -4 -15 -6 0 -10 7 -10 15 0 8 2 15 4 15 2 0 6 -7 10 -15z m96 -6 c0 -4 -7
-6 -15 -3 -8 4 -15 10 -15 15 0 4 7 6 15 3 8 -4 15 -10 15 -15z m154 -169 c10
-47 49 -220 87 -385 89 -384 171 -787 161 -796 -11 -10 -592 -152 -598 -146
-3 3 -6 21 -7 41 -1 20 -6 36 -10 36 -5 0 -7 8 -5 18 1 9 -1 23 -6 30 -4 7 -8
29 -9 48 -1 19 -5 34 -10 34 -5 0 -7 9 -4 20 3 11 1 23 -4 26 -6 3 -7 14 -4
25 4 11 2 19 -5 19 -7 0 -10 8 -7 20 3 11 1 23 -4 26 -6 3 -7 14 -4 24 3 10 1
21 -5 25 -6 4 -8 15 -5 26 4 11 2 19 -5 19 -7 0 -9 7 -6 16 4 9 1 22 -4 30 -6
7 -12 29 -13 48 -1 20 -6 36 -11 36 -4 0 -6 9 -3 20 3 11 2 20 -3 20 -7 0 -24
74 -25 110 0 8 -4 18 -9 21 -5 4 -7 13 -4 20 8 19 5 35 -6 31 -5 -2 -6 4 -3
11 3 8 1 19 -4 24 -5 5 -11 25 -12 44 -1 19 -6 37 -11 41 -6 4 -4 13 3 22 11
14 11 16 -4 16 -12 0 -15 5 -11 17 4 9 1 20 -6 24 -9 6 -9 11 1 23 11 13 11
16 -2 16 -11 0 -13 9 -9 45 4 38 1 50 -18 70 -29 31 -31 84 -3 114 l20 22 27
-32 c29 -34 38 -33 42 5 1 13 10 36 20 51 15 23 19 24 26 11 5 -9 15 -13 21
-9 8 5 8 2 -1 -9 -10 -13 -9 -16 8 -21 11 -3 17 -1 14 4 -3 6 5 7 19 4 14 -4
35 -1 47 5 18 10 25 8 44 -9 23 -22 46 -28 46 -12 0 5 11 12 25 15 16 4 32 20
42 42 14 28 21 34 38 29 24 -8 36 -9 94 -4 l43 3 -4 48 c-8 75 15 31 36 -72z
m-669 100 c3 -5 1 -10 -4 -10 -6 0 -11 5 -11 10 0 6 2 10 4 10 3 0 8 -4 11
-10z m95 -134 c0 -2 -9 -6 -20 -9 -11 -3 -20 -1 -20 4 0 5 9 9 20 9 11 0 20
-2 20 -4z m-110 -460 c60 -235 110 -434 110 -443 0 -8 -6 -13 -12 -11 -14 5
-45 116 -143 523 -62 257 -85 377 -72 364 4 -3 56 -198 117 -433z m1690 -376
l0 -80 -100 0 c-82 0 -100 3 -100 15 0 12 -19 15 -115 15 l-115 0 -16 -40
c-13 -31 -22 -40 -40 -40 -17 0 -24 6 -24 20 0 13 6 19 18 17 9 -1 19 3 22 8
3 6 -10 11 -27 13 -25 2 -33 8 -33 23 0 40 -20 17 -26 -31 -11 -84 -17 -48 -9
59 l7 101 279 0 279 0 0 -80z m-247 -77 c-24 -2 -62 -2 -85 0 -24 2 -5 4 42 4
47 0 66 -2 43 -4z m241 -28 c-4 -8 -13 -15 -21 -15 -8 0 -11 -4 -8 -10 4 -7
-60 -10 -184 -10 -150 0 -191 3 -191 13 0 33 23 37 217 37 167 0 192 -2 187
-15z m-1516 -58 c42 -43 43 -44 77 -213 19 -93 37 -178 39 -189 5 -19 1 -20
-29 -17 -33 4 -36 8 -50 56 -14 47 -95 391 -95 401 0 14 20 1 58 -38z m1550
-14 c3 -10 -77 -13 -376 -13 -330 0 -381 2 -386 15 -5 13 39 15 376 13 294 -2
382 -6 386 -15z m-78 -43 c18 -18 20 -33 20 -135 l0 -115 -382 -2 -383 -3 383
-2 383 -3 -3 -53 -3 -52 -400 -5 c-220 -3 -391 -9 -381 -13 11 -4 201 -7 424
-7 222 1 406 -1 409 -4 4 -3 -11 -6 -33 -6 -21 -1 -214 -2 -429 -3 l-390 -2 2
74 c2 83 3 83 82 107 l54 15 -7 52 c-3 29 -9 62 -12 75 l-6 22 298 2 299 3
-296 2 -297 3 -7 27 c-4 16 -2 29 6 34 7 4 155 8 330 8 308 2 319 1 339 -19z
m70 -185 c0 -107 -3 -195 -7 -195 -29 1 -32 22 -35 203 l-3 187 23 0 22 0 0
-195z m-1521 -185 c4 0 18 -8 29 -19 l22 -18 -21 -27 c-20 -26 -21 -26 -50 -9
-34 20 -35 28 -11 85 16 41 17 41 20 16 2 -16 7 -28 11 -28z m-59 -100 c15
-11 30 -17 34 -15 3 3 0 -3 -8 -11 -13 -15 -19 -15 -70 7 -37 15 -52 25 -44
31 22 14 59 9 88 -12z m730 -100 c0 -6 -76 -9 -212 -8 l-213 2 175 6 c96 3
192 7 213 8 20 1 37 -2 37 -8z"/>
<path d="M967 1853 c-4 -3 -7 -13 -7 -22 1 -14 2 -14 14 1 7 10 16 15 19 11 4
-3 7 -1 7 5 0 13 -22 16 -33 5z"/>
<path d="M612 3073 c-10 -4 -10 -8 -1 -19 16 -20 29 -17 29 6 0 20 -5 23 -28
13z"/>
<path d="M620 3010 c0 -5 5 -10 11 -10 5 0 7 5 4 10 -3 6 -8 10 -11 10 -2 0
-4 -4 -4 -10z"/>
<path d="M641 2914 c0 -11 3 -14 6 -6 3 7 2 16 -1 19 -3 4 -6 -2 -5 -13z"/>
<path d="M541 2894 c0 -11 3 -14 6 -6 3 7 2 16 -1 19 -3 4 -6 -2 -5 -13z"/>
<path d="M597 2896 c-6 -15 1 -26 15 -26 11 0 10 27 -1 34 -5 3 -11 0 -14 -8z"/>
<path d="M650 2870 c0 -5 5 -10 11 -10 5 0 7 5 4 10 -3 6 -8 10 -11 10 -2 0
-4 -4 -4 -10z"/>
<path d="M588 2853 c7 -3 16 -2 19 1 4 3 -2 6 -13 5 -11 0 -14 -3 -6 -6z"/>
<path d="M601 2354 c0 -11 3 -14 6 -6 3 7 2 16 -1 19 -3 4 -6 -2 -5 -13z"/>
<path d="M756 2333 c-6 -14 -5 -15 5 -6 7 7 10 15 7 18 -3 3 -9 -2 -12 -12z"/>
<path d="M644 2178 c-4 -6 -3 -8 3 -5 6 4 13 0 16 -8 4 -9 1 -12 -9 -8 -17 6
-19 -13 -2 -23 17 -11 40 26 27 43 -14 16 -26 17 -35 1z"/>
<path d="M711 2114 c0 -11 3 -14 6 -6 3 7 2 16 -1 19 -3 4 -6 -2 -5 -13z"/>
<path d="M685 2050 c3 -5 8 -10 11 -10 2 0 4 5 4 10 0 6 -5 10 -11 10 -5 0 -7
-4 -4 -10z"/>
<path d="M701 2004 c0 -11 3 -14 6 -6 3 7 2 16 -1 19 -3 4 -6 -2 -5 -13z"/>
<path d="M686 1969 c3 -5 12 -9 21 -9 19 0 9 13 -12 16 -8 1 -13 -2 -9 -7z"/>
<path d="M1403 1703 c70 -2 184 -2 255 0 70 1 12 3 -128 3 -140 0 -198 -2
-127 -3z"/>
<path d="M1403 2753 l147 -4 0 -49 c0 -27 5 -52 10 -55 6 -4 10 17 10 54 l0
61 -157 -2 -158 -2 148 -3z"/>
<path d="M2701 2114 c0 -11 3 -14 6 -6 3 7 2 16 -1 19 -3 4 -6 -2 -5 -13z"/>
<path d="M2691 2074 c0 -11 3 -14 6 -6 3 7 2 16 -1 19 -3 4 -6 -2 -5 -13z"/>
<path d="M2681 2034 c0 -11 3 -14 6 -6 3 7 2 16 -1 19 -3 4 -6 -2 -5 -13z"/>
<path d="M390 1198 c-19 -13 -48 -42 -65 -65 -16 -22 -40 -46 -52 -52 -12 -5
-74 -13 -137 -17 -104 -6 -148 -15 -136 -27 3 -3 63 -1 133 4 100 6 135 12
160 28 25 15 36 17 51 9 13 -7 69 -9 164 -5 166 7 188 16 158 61 -33 51 -93
80 -170 84 -61 3 -76 1 -106 -20z m137 6 c34 -7 92 -49 81 -59 -4 -4 -36 5
-72 19 -81 33 -102 33 -151 -1 -37 -24 -39 -25 -20 -3 37 42 94 58 162 44z"/>
<path d="M4701 988 c-29 -133 -33 -209 -27 -488 7 -315 4 -341 -52 -445 -17
-31 -25 -55 -19 -52 19 5 65 97 82 163 13 50 15 104 9 354 -5 242 -3 315 10
404 17 117 15 151 -3 64z"/>
<path d="M0 520 c0 -7 164 -10 475 -10 l475 0 0 -255 0 -255 25 0 25 0 0 255
0 255 515 0 515 0 0 -96 c0 -86 2 -95 18 -92 15 3 17 16 17 103 l0 100 -1032
3 c-687 1 -1033 -1 -1033 -8z"/>
<path d="M3188 404 c12 -17 42 -54 67 -82 l46 -51 -33 -5 c-18 -3 -87 -8 -153
-11 -66 -4 -142 -11 -170 -15 -37 -6 -26 -7 40 -3 109 7 305 22 322 24 16 3 5
17 -76 105 -36 38 -55 55 -43 38z"/>
<path d="M2853 223 c9 -2 23 -2 30 0 6 3 -1 5 -18 5 -16 0 -22 -2 -12 -5z"/>
<path d="M2788 213 c6 -2 18 -2 25 0 6 3 1 5 -13 5 -14 0 -19 -2 -12 -5z"/>
<path d="M2728 203 c6 -2 18 -2 25 0 6 3 1 5 -13 5 -14 0 -19 -2 -12 -5z"/>
<path d="M2029 171 c-58 -22 -196 -98 -205 -113 -5 -8 -1 -9 12 -4 10 5 28 11
38 14 19 5 18 4 -2 -25 -12 -17 -22 -34 -22 -37 0 -3 19 -6 41 -6 35 0 49 7
88 42 26 24 59 52 75 63 22 16 27 26 24 52 l-3 31 -46 -17z"/>
</g>
</svg>