<?xml version="1.0" standalone="no"?>
<!DOCTYPE svg PUBLIC "-//W3C//DTD SVG 20010904//EN"
 "http://www.w3.org/TR/2001/REC-SVG-20010904/DTD/svg10.dtd">
<svg version="1.0" xmlns="http://www.w3.org/2000/svg"
 width="512.000000pt" height="512.000000pt" viewBox="0 0 512.000000 512.000000"
 preserveAspectRatio="xMidYMid meet">
<metadata>
Created by potrace 1.16, written by Peter Selinger 2001-2019
</metadata>
<g transform="translate(0.000000,512.000000) scale(0.100000,-0.100000)"
fill="#000000" stroke="none">
<path d="M0 5083 l0 -23 2560 0 2560 0 0 23 0 23 -2560 0 -2560 0 0 -23z"/>
<path d="M0 3075 l0 -1965 50 0 c32 0 52 5 57 14 6 11 34 16 108 18 94 3 100
2 103 -17 3 -20 9 -20 858 -17 575 1 853 -1 849 -8 -4 -7 -346 -10 -1016 -10
l-1009 0 0 -26 0 -27 1007 5 1007 5 18 28 c15 26 15 31 1 58 -23 45 -17 139
18 298 30 137 47 198 48 171 1 -7 -10 -61 -23 -120 -32 -143 -50 -266 -42
-297 4 -14 22 -42 41 -63 31 -35 32 -38 13 -39 -50 -4 -51 -61 -2 -101 31 -26
33 -30 17 -36 -18 -7 -26 -1 -66 55 l-17 24 5 -35 c3 -19 18 -69 32 -110 21
-59 38 -86 81 -130 60 -61 59 -62 81 30 l10 45 -5 -55 c-3 -30 -8 -77 -10
-105 -3 -27 -9 -66 -14 -85 -7 -28 -8 -23 -4 25 3 33 8 68 10 77 4 12 0 15
-15 11 -15 -4 -36 10 -81 55 l-60 60 1 -56 c1 -31 4 -82 8 -112 5 -41 2 -68
-11 -105 -10 -27 -18 -59 -18 -70 0 -32 49 -124 73 -136 18 -9 16 -5 -7 20
-16 17 -27 33 -24 36 3 3 11 -1 18 -10 7 -8 18 -15 25 -15 7 0 15 -11 17 -24
4 -20 1 -24 -15 -20 -31 5 -51 28 -82 93 l-28 60 18 60 c19 65 17 186 -7 338
l-11 73 -1003 0 -1004 0 0 -470 0 -470 1094 0 1094 0 -4 43 c-2 23 -5 80 -8
125 -4 70 -8 88 -28 110 -12 15 -15 21 -6 13 9 -7 22 -10 28 -6 14 9 12 55 -5
85 -16 28 -20 100 -6 100 18 0 24 -23 27 -94 13 -321 17 -376 28 -376 9 0 11
72 11 278 0 287 6 348 45 436 25 54 25 33 0 -56 -11 -40 -24 -116 -30 -168
l-11 -95 53 -105 c29 -58 59 -118 66 -135 l13 -30 -20 25 c-12 14 -39 59 -61
100 l-41 75 6 -90 c3 -50 8 -123 11 -162 l6 -73 158 0 158 0 10 73 10 72 -1
-73 -2 -72 197 0 196 0 6 63 c3 34 8 80 10 102 2 22 3 -6 2 -63 -1 -92 1 -102
17 -102 10 0 19 6 22 13 2 6 7 93 10 192 4 99 8 229 11 290 3 100 1 114 -21
163 -30 66 -32 82 -3 27 31 -60 48 -77 65 -64 11 10 10 14 -6 26 -11 7 -30 27
-42 44 -20 28 -20 30 -3 20 10 -6 30 -19 43 -30 l25 -19 13 26 c13 24 12 27
-17 50 -16 13 -35 33 -42 45 -11 21 -11 21 15 4 31 -20 40 -21 34 -4 -2 6 9
36 26 66 l30 53 -27 -17 c-35 -23 -33 -14 9 41 39 50 42 69 20 101 -13 18 -12
22 6 39 l20 18 -23 9 c-14 6 -18 11 -10 14 15 6 16 43 1 80 -6 15 -11 69 -11
118 l1 90 -20 -63 c-11 -35 -22 -62 -24 -60 -1 1 1 28 6 58 10 60 9 270 -1
270 -3 0 -5 44 -4 97 2 91 2 93 -5 31 -12 -110 -24 -92 -17 25 4 71 2 106 -4
102 -6 -3 -11 -23 -11 -43 -1 -20 -4 -50 -8 -67 l-7 -30 -8 31 c-8 34 -48 84
-53 67 -2 -5 15 -64 37 -131 46 -140 47 -151 21 -397 -20 -194 -19 -305 6
-373 19 -50 16 -54 -51 -76 -57 -19 -517 -41 -576 -27 -26 5 10 10 130 15 215
10 345 22 366 34 11 6 -29 8 -117 4 -187 -7 -293 9 -362 55 -30 19 -59 44 -66
55 -10 17 -7 16 21 -6 63 -47 111 -58 287 -64 200 -6 208 8 19 33 -143 18
-169 31 -204 98 -13 24 -3 40 11 18 5 -9 73 -37 135 -56 22 -7 21 -4 -10 21
-40 33 -71 68 -126 139 l-39 50 12 70 c19 108 27 254 18 331 l-8 69 -13 -99
c-8 -54 -18 -117 -23 -140 -14 -66 -2 202 16 333 8 63 13 140 10 170 l-6 56
26 -50 c40 -78 52 -136 68 -325 24 -292 59 -386 175 -473 92 -69 111 -77 65
-26 -55 60 -86 113 -87 146 0 16 15 60 33 98 l34 70 0 160 c0 147 -22 361 -44
419 -6 17 -8 17 -24 -7 -22 -34 -43 -136 -59 -284 l-13 -118 -6 96 c-7 108
-35 206 -80 288 -47 83 -46 84 144 79 l162 -3 70 -42 c87 -52 162 -110 187
-144 27 -37 84 -328 98 -507 7 -81 11 -201 8 -267 -4 -109 -7 -127 -37 -195
-56 -127 -71 -169 -62 -174 8 -5 69 118 86 172 4 13 9 21 12 18 8 -8 -33 -109
-95 -234 -32 -65 -64 -133 -71 -152 -7 -21 -14 -112 -17 -235 -2 -110 -6 -224
-10 -253 l-5 -52 1030 0 1031 0 0 465 0 465 -920 0 c-546 0 -920 4 -920 9 0
20 210 24 1008 18 l832 -7 0 35 0 35 -920 0 -920 0 2 68 c2 65 2 66 5 13 l4
-54 532 6 c293 4 704 7 915 7 333 0 382 2 382 15 0 13 -107 15 -902 15 -496 0
-899 2 -897 4 2 2 357 7 789 10 431 4 801 9 822 12 21 4 35 10 32 15 -9 15 27
10 42 -6 10 -9 34 -15 65 -15 47 0 49 1 49 28 l0 28 -907 -1 c-500 -1 -914 0
-920 3 -37 13 4 17 168 19 99 0 182 3 185 6 2 2 1 12 -2 21 -5 13 -15 17 -35
14 -28 -4 -28 -3 -26 36 3 36 6 41 29 44 37 4 59 -30 52 -80 l-7 -38 732 0
731 0 0 86 0 86 -82 -6 c-166 -11 -778 -18 -778 -9 0 9 405 23 676 23 67 0
135 3 153 6 l31 6 0 294 0 294 -43 -5 c-23 -3 -121 -10 -217 -15 -96 -6 -190
-13 -207 -16 -21 -4 -33 -2 -33 5 0 6 7 11 16 11 12 0 15 6 10 26 -5 17 -3 23
4 19 6 -4 17 -1 25 5 10 8 15 9 15 2 0 -6 -4 -14 -10 -17 -13 -8 -13 -25 0
-25 6 0 16 11 22 25 6 14 15 25 20 25 5 0 4 -9 -2 -21 -7 -11 -10 -23 -7 -25
2 -2 55 0 118 5 63 6 153 11 201 13 l88 3 0 1521 c0 1379 -1 1522 -16 1528 -9
3 -1161 6 -2560 6 l-2544 0 0 -1965z m3365 1870 c184 -17 345 -19 495 -6 169
15 440 24 440 14 0 -9 -376 -33 -622 -40 -70 -2 -204 3 -298 11 -94 9 -238 16
-320 16 -93 0 -150 4 -150 10 0 15 270 12 455 -5z m-1695 -16 c71 -9 101 -21
87 -35 -4 -4 -13 -1 -21 5 -30 25 -416 33 -1020 21 -319 -6 -583 -13 -588 -16
-14 -9 -8 -43 10 -53 9 -6 11 -11 5 -11 -7 0 -13 -11 -13 -24 0 -18 7 -26 22
-29 l23 -4 -22 -8 c-19 -6 -23 -15 -23 -47 0 -39 0 -40 32 -33 43 9 65 29 79
74 15 48 27 61 53 61 46 0 61 -45 26 -80 -13 -13 -28 -18 -43 -15 -15 3 -27
-2 -38 -17 l-16 -23 200 3 c142 3 197 1 193 -7 -5 -7 -55 -11 -140 -11 -73 0
-181 -3 -239 -6 l-106 -7 -7 -43 c-7 -52 -33 -60 -60 -19 -21 33 -12 73 19 77
20 3 22 8 24 81 1 53 -2 77 -10 77 -9 0 -9 2 0 8 6 4 11 14 11 22 -3 46 -1 48
86 55 256 22 1316 24 1476 4z m3014 -45 c7 -65 -3 -84 -44 -84 -31 0 -45 22
-31 48 5 9 5 25 -1 38 -16 35 -3 54 35 54 34 0 34 0 41 -56z m98 34 c7 7 15
12 19 12 14 0 18 -31 7 -50 -12 -19 -13 -19 -39 6 -17 16 -29 22 -33 15 -4 -6
-15 -11 -24 -11 -16 1 -16 1 1 11 9 5 17 17 17 26 0 14 3 14 20 -2 16 -14 23
-16 32 -7z m-2567 6 c24 -10 45 -58 45 -107 0 -45 -21 -89 -34 -69 -3 6 -2 13
4 17 16 10 12 98 -6 123 -36 52 -169 12 -210 -64 -17 -30 -17 -34 -1 -58 10
-14 24 -26 32 -26 8 0 15 -4 15 -10 0 -22 -41 -8 -62 20 -12 17 -30 30 -40 30
-21 0 -41 40 -28 54 11 11 40 0 40 -14 0 -6 -5 -8 -11 -4 -7 4 -10 1 -7 -6 6
-20 28 -24 28 -6 0 22 57 84 99 106 36 19 104 26 136 14z m725 -29 c-12 -15
-30 -12 -30 6 0 5 10 9 21 9 18 0 19 -2 9 -15z m1500 -17 c0 -13 3 -34 7 -46
5 -22 9 -24 58 -17 30 3 56 2 59 -3 3 -5 -21 -13 -54 -16 -51 -6 -60 -10 -60
-26 0 -11 5 -20 12 -20 21 0 -6 -18 -32 -22 -33 -4 -39 -35 -8 -40 33 -4 33
-52 -1 -56 -35 -5 -43 10 -35 63 5 34 12 49 25 52 11 3 19 14 19 24 0 17 -8
19 -70 19 -40 0 -70 4 -70 10 0 6 30 10 71 10 l72 0 -6 45 c-4 27 -3 45 3 45
6 0 10 -10 10 -22z m-885 -18 c-8 -38 3 -38 118 -9 117 31 337 29 337 -2 0 -5
-12 -6 -27 -2 -57 16 -225 7 -317 -16 -121 -30 -157 -19 -126 40 16 28 23 23
15 -11z m-2839 -70 l-7 -90 38 0 c28 0 34 -3 23 -10 -8 -5 -25 -10 -37 -10
-20 0 -23 -5 -23 -45 0 -25 5 -45 10 -45 6 0 10 -4 10 -10 0 -5 -16 -10 -35
-10 -19 0 -35 5 -35 10 0 6 9 10 21 10 15 0 19 4 15 16 -3 9 -6 28 -6 44 0 23
-3 27 -20 23 -27 -7 -25 10 3 22 20 9 22 18 25 98 2 55 7 87 14 87 8 0 9 -27
4 -90z m474 75 c10 -12 10 -21 2 -40 -13 -29 -47 -33 -60 -7 -22 42 28 83 58
47z m530 0 c19 -23 8 -50 -20 -50 -16 0 -26 6 -28 18 -4 18 14 47 28 47 4 0
13 -7 20 -15z m990 -55 l0 -70 50 0 c28 0 50 -4 50 -10 0 -5 -22 -10 -50 -10
-49 0 -50 -1 -50 -30 0 -16 -4 -30 -10 -30 -5 0 -10 14 -10 31 0 28 -3 31 -25
27 -14 -3 -28 -2 -30 2 -3 5 8 37 25 72 16 34 30 69 30 76 0 6 5 12 10 12 6 0
10 -30 10 -70z m-512 28 c17 -17 15 -68 -5 -90 -23 -25 -68 -23 -87 4 -22 31
-20 45 9 73 26 27 64 32 83 13z m725 -2 c6 -15 -1 -26 -15 -26 -4 0 -8 9 -8
20 0 23 15 27 23 6z m-452 -6 c27 -15 24 -37 -8 -54 l-28 -15 28 -1 c15 0 27
-4 27 -10 0 -12 -77 -13 -84 -1 -3 5 10 18 30 30 46 27 36 45 -22 37 -24 -3
-44 -2 -44 3 0 19 71 26 101 11z m638 -12 c11 -27 -9 -54 -33 -45 -19 7 -21
38 -4 55 18 18 28 15 37 -10z m-2271 -34 l18 -36 28 37 c38 49 46 36 11 -17
-21 -31 -25 -45 -17 -57 5 -9 15 -15 21 -13 15 3 14 -15 -1 -24 -6 -4 -19 2
-29 14 l-17 22 -20 -27 c-11 -16 -24 -25 -28 -20 -4 4 3 21 15 38 23 30 23 33
7 66 -28 60 -18 75 12 17z m2144 1 c9 -19 8 -29 -6 -50 -15 -23 -55 -35 -57
-17 -5 51 -3 65 15 78 28 19 35 18 48 -11z m1116 -72 c4 16 40 -13 54 -44 18
-37 13 -66 -14 -80 -30 -16 -164 -24 -172 -10 -4 6 -1 11 8 11 10 0 23 26 41
81 14 44 25 87 25 95 0 7 5 14 10 14 6 0 10 -6 10 -13 0 -13 -33 -132 -44
-158 -5 -12 0 -14 26 -11 l33 4 -3 80 c-4 93 8 138 18 68 4 -25 8 -41 8 -37z
m-2685 31 c-14 -11 -15 -13 -3 -14 30 0 60 13 60 26 0 8 9 14 20 14 23 0 24
-3 11 -28 -5 -9 -15 -30 -22 -47 l-13 -30 -4 28 c-2 21 -8 27 -19 23 -8 -3
-28 -6 -44 -6 l-29 0 0 -85 0 -85 65 0 c36 0 65 4 65 9 0 5 3 16 6 24 3 9 -3
17 -18 22 -21 7 -20 8 11 12 33 4 33 5 28 49 -4 43 -4 44 24 44 16 0 29 -4 29
-10 0 -5 -9 -10 -20 -10 -18 0 -20 -5 -18 -37 2 -21 10 -43 18 -50 8 -6 12
-15 8 -19 -4 -4 -14 -2 -22 5 -11 9 -15 8 -20 -5 -12 -31 -4 -34 100 -34 l105
0 15 36 c18 43 11 84 -14 84 -9 0 -24 5 -32 10 -11 7 -7 10 17 10 44 0 67 -34
57 -86 -13 -71 -21 -74 -224 -74 l-180 0 0 -95 0 -95 60 0 60 0 0 45 c0 25 5
45 10 45 6 0 10 -18 10 -40 l0 -40 40 0 c36 0 40 3 40 24 0 14 5 28 10 31 6 4
10 -7 10 -24 0 -29 3 -31 35 -31 19 0 35 -4 35 -10 0 -5 -16 -10 -35 -10 -28
0 -35 -4 -35 -20 0 -11 -4 -20 -10 -20 -5 0 -10 9 -10 20 0 17 -7 20 -40 20
-36 0 -40 -2 -40 -25 0 -14 -4 -25 -10 -25 -5 0 -10 11 -10 25 0 27 -12 30
-82 19 l-38 -7 0 -56 0 -57 196 4 c125 3 199 1 206 -6 6 -6 -55 -11 -191 -14
-110 -2 -203 -7 -207 -10 -3 -4 -2 -58 3 -120 9 -113 7 -127 -24 -128 -16 0
-17 27 -2 32 8 3 9 54 4 186 l-7 182 -23 -6 c-13 -3 -26 -1 -29 5 -5 7 4 11
23 11 l31 0 0 95 0 95 -62 0 c-35 -1 -121 -5 -193 -9 -126 -8 -176 -4 -125 10
14 4 60 7 103 8 76 1 77 1 77 27 0 14 4 23 10 19 5 -3 7 -12 3 -20 -4 -13 11
-15 91 -15 l96 0 0 80 0 80 -85 0 -85 0 16 -25 c19 -28 9 -33 -18 -9 -16 16
-19 15 -37 -7 -22 -26 -28 -11 -10 23 10 18 8 20 -28 18 -21 -2 -45 -2 -53 -1
-34 3 16 21 61 21 32 0 49 5 53 15 3 8 10 15 17 15 6 0 8 -7 5 -16 -6 -15 3
-16 83 -12 71 4 95 10 116 27 15 11 32 18 37 15 5 -3 1 -12 -9 -20z m1812 16
c-3 -5 -17 -10 -29 -10 -13 0 -37 -3 -53 -6 -25 -5 -29 -10 -29 -40 l0 -34 92
0 c51 0 96 -4 99 -10 4 -6 -40 -10 -124 -10 -120 0 -131 2 -141 20 -17 32 15
78 60 86 19 3 40 7 45 9 24 8 86 4 80 -5z m239 -22 c9 -12 16 -25 16 -28 0 -9
-61 -32 -68 -26 -6 7 11 21 32 29 16 5 -4 27 -25 27 -10 0 -19 5 -19 10 0 19
49 10 64 -12z m1432 -20 c-4 -18 -8 -41 -9 -50 -1 -10 -4 -18 -7 -19 -3 0 -89
-4 -193 -8 -165 -7 -189 -10 -201 -26 -16 -22 -31 -5 -21 24 5 18 19 20 200
23 106 2 195 5 198 8 2 3 8 15 11 27 6 17 2 22 -16 26 l-23 4 25 11 c39 17 43
14 36 -20z m-1272 6 c9 -8 16 -22 16 -30 0 -10 13 -14 45 -14 25 0 45 -4 45
-9 0 -9 -158 -24 -171 -15 -13 8 -11 58 3 72 17 17 44 15 62 -4z m186 6 c0 -5
-12 -10 -26 -10 -21 0 -25 -4 -22 -22 2 -18 9 -23 31 -21 15 1 27 -3 27 -8 0
-16 -30 -22 -56 -11 -26 13 -33 49 -12 70 15 15 58 16 58 2z m1162 -7 c0 -10
0 -28 -1 -40 -1 -16 4 -23 15 -23 56 0 123 -85 105 -132 -26 -67 -87 -89 -264
-95 l-138 -6 2 -104 c1 -57 -1 -106 -4 -109 -3 -3 -13 11 -23 31 -13 27 -14
39 -5 48 6 6 11 41 11 79 l0 68 -49 0 c-28 0 -53 5 -56 10 -4 6 15 10 49 10
52 0 56 2 56 24 0 35 11 86 19 86 4 0 5 -28 3 -61 l-5 -62 145 5 c129 4 148 7
188 29 37 20 46 30 48 57 2 19 -3 44 -12 56 -17 27 -74 56 -109 56 -39 0 -51
23 -32 59 17 34 54 43 57 14z m-4469 -10 c-13 -2 -33 -2 -45 0 -13 2 -3 4 22
4 25 0 35 -2 23 -4z m1373 -633 c7 -19 5 -26 -9 -22 -6 2 -5 -3 2 -12 7 -8 11
-27 9 -43 -2 -22 -8 -28 -28 -28 -31 0 -39 35 -16 71 14 21 17 69 18 342 1
174 4 322 7 327 3 6 7 -132 9 -305 1 -173 5 -322 8 -330z m404 470 c0 -40 -4
-70 -10 -70 -6 0 -10 27 -10 61 l0 61 -165 -3 c-91 -2 -165 -3 -165 -1 0 13
69 21 198 21 l152 1 0 -70z m170 44 c0 -8 9 -14 20 -14 10 0 24 -9 30 -20 9
-17 6 -24 -16 -45 -29 -27 -49 -32 -59 -14 -10 15 5 120 16 114 5 -4 9 -13 9
-21z m-2015 6 c3 -6 -4 -10 -17 -10 -13 0 -30 -5 -38 -10 -12 -7 -10 -11 9
-18 15 -5 20 -11 13 -16 -12 -7 -52 27 -52 43 0 17 76 26 85 11z m163 -48 c2
-32 -1 -52 -7 -52 -6 0 -11 8 -11 17 0 9 -3 13 -6 10 -13 -13 -44 14 -44 38 0
25 25 46 50 42 11 -1 16 -17 18 -55z m401 42 c27 25 29 1 2 -33 l-18 -23 -21
27 c-12 15 -19 32 -16 37 3 5 12 1 19 -9 13 -17 14 -17 34 1z m666 -4 c-3 -5
-21 -10 -40 -10 -19 0 -37 5 -40 10 -4 6 12 10 40 10 28 0 44 -4 40 -10z
m1011 -67 c28 -67 27 -63 14 -63 -5 0 -16 12 -24 28 l-15 27 -7 -32 c-3 -18
-11 -33 -16 -33 -6 0 -8 14 -4 33 3 17 9 49 12 70 8 45 10 44 40 -30z m-2607
-70 l1 -62 35 -7 c62 -11 60 -86 -2 -92 -52 -5 -58 17 -53 183 2 101 17 84 19
-22z m2723 82 c9 -19 8 -29 -6 -50 -38 -58 -99 -7 -66 56 15 28 58 25 72 -6z
m2143 15 c4 -6 -7 -10 -24 -10 -22 0 -31 -5 -31 -17 0 -15 -1 -15 -13 1 -21
29 -51 16 -55 -22 -3 -33 -21 -45 -23 -14 0 14 -2 14 -9 -3 -7 -16 -9 -13 -9
17 -1 29 -4 36 -16 32 -8 -4 -15 -1 -15 4 0 17 185 28 195 12z m-2795 -15 c0
-11 12 -15 44 -15 25 0 48 -4 51 -10 4 -6 -11 -10 -38 -10 -39 0 -44 -2 -43
-22 1 -18 -5 -24 -27 -26 -36 -4 -62 15 -46 34 6 7 8 18 4 24 -12 19 4 40 30
40 16 0 25 -6 25 -15z m1454 -41 l28 -25 -21 -23 c-12 -12 -18 -25 -15 -29 4
-3 -1 -18 -10 -32 -18 -28 -53 -33 -62 -10 -8 20 13 45 38 45 12 0 18 6 16 18
-2 9 2 16 9 15 9 -2 10 4 4 20 -9 25 -50 35 -62 16 -4 -8 -11 -10 -15 -6 -11
11 17 37 40 37 11 0 34 -12 50 -26z m-3196 4 c7 -7 12 -19 12 -27 0 -12 -3
-11 -18 2 -28 25 -41 21 -58 -18 -17 -41 -18 -80 -3 -126 22 -67 62 -70 95 -8
16 32 13 59 -7 59 -6 0 -9 -7 -5 -15 6 -16 -21 -48 -37 -42 -21 7 -31 35 -19
50 18 21 83 32 93 15 28 -46 -54 -153 -99 -129 -24 13 -52 80 -52 126 0 85 58
153 98 113z m342 -17 c0 -16 3 -43 6 -60 5 -25 9 -29 21 -20 7 7 16 9 20 5 4
-3 -2 -13 -13 -21 -11 -8 -14 -15 -6 -15 6 0 12 -4 12 -10 0 -5 -7 -7 -16 -3
-12 4 -15 0 -12 -18 2 -16 9 -24 21 -23 10 1 16 -3 14 -10 -2 -6 -12 -11 -23
-11 -10 0 -22 -4 -26 -10 -4 -5 -10 -2 -14 8 -3 9 -15 17 -25 17 -10 0 -19 5
-19 10 0 6 9 10 20 10 11 0 20 5 20 10 0 6 -16 10 -35 10 -22 0 -35 5 -35 13
0 7 16 36 35 64 19 29 35 59 35 68 0 8 5 15 10 15 6 0 10 -13 10 -29z m2680
20 c0 -5 10 -11 22 -13 12 -2 23 -8 25 -15 3 -7 -3 -9 -16 -6 -39 10 -72 -6
-87 -42 -8 -20 -12 -46 -8 -60 10 -40 52 -75 90 -75 19 0 34 -4 34 -10 0 -5
-18 -10 -39 -10 -68 0 -127 84 -106 150 4 12 20 37 37 56 30 33 48 43 48 25z
m804 -6 c-4 -8 -10 -15 -15 -15 -5 0 -9 7 -9 15 0 8 7 15 15 15 9 0 12 -6 9
-15z m-2184 -5 c0 -5 -25 -10 -55 -10 -30 0 -55 5 -55 10 0 6 25 10 55 10 30
0 55 -4 55 -10z m2500 -21 c0 -3 -9 -14 -20 -24 -20 -18 -50 -15 -50 6 0 6 7
9 15 5 8 -3 14 -2 14 2 -1 4 -1 15 0 25 1 15 4 15 21 5 11 -7 20 -16 20 -19z
m-880 0 c0 -11 -4 -17 -10 -14 -5 3 -10 13 -10 21 0 8 5 14 10 14 6 0 10 -9
10 -21z m736 3 c1 -7 2 -17 3 -23 0 -5 5 -8 10 -5 5 4 7 -4 3 -16 l-5 -21 -19
22 c-21 26 -24 65 -5 59 6 -3 13 -10 13 -16z m-198 -16 c16 -18 16 -18 -8 -12
-61 17 -111 18 -159 2 -56 -18 -91 -21 -91 -7 0 6 8 10 18 10 9 -1 37 6 62 15
59 21 154 16 178 -8z m-3920 -33 c-2 -23 -8 -29 -35 -31 -29 -3 -33 0 -33 21
0 31 7 37 42 37 26 0 29 -3 26 -27z m2937 3 c10 -15 15 -40 13 -63 -3 -36 -5
-38 -43 -44 -22 -4 -43 -5 -47 -2 -12 6 -10 91 2 114 15 27 56 24 75 -5z m540
7 c-3 -7 -8 -20 -12 -30 -4 -10 -2 -14 4 -10 6 4 16 0 23 -8 11 -13 7 -15 -24
-15 -39 0 -41 2 -25 31 7 15 7 24 -1 34 -8 10 -5 13 15 11 16 0 23 -6 20 -13z
m-2800 -68 c0 -23 -5 -31 -22 -33 -26 -4 -41 31 -22 54 20 24 44 13 44 -21z
m275 26 c0 -5 -12 -23 -26 -40 -25 -30 -25 -31 -5 -31 12 0 21 5 21 11 0 6 7
4 15 -5 22 -22 19 -26 -20 -26 -33 0 -35 -2 -25 -20 13 -25 6 -25 -28 -1 -15
10 -55 22 -89 26 -35 4 -63 12 -63 17 0 7 24 8 68 4 l67 -7 40 41 c42 43 45
45 45 31z m748 -4 c7 -8 9 -29 5 -51 -5 -30 -9 -36 -27 -34 -17 2 -22 11 -24
42 -4 49 22 72 46 43z m2272 -26 c0 -10 9 -21 20 -24 11 -3 20 -10 20 -15 0
-6 -9 -8 -20 -5 -14 4 -20 0 -20 -11 0 -13 12 -16 74 -16 94 0 196 -11 196
-21 0 -4 -61 -5 -135 -2 l-135 6 -21 -27 c-25 -31 -47 -35 -25 -4 23 32 20 36
-21 40 -35 3 -38 6 -41 35 -4 36 24 59 58 48 29 -9 24 -24 -7 -22 -22 2 -29
-3 -31 -20 -3 -20 1 -23 32 -23 l36 0 0 46 c0 27 4 43 10 39 6 -3 10 -14 10
-24z m-1670 -17 c0 -21 4 -24 39 -24 30 0 40 4 44 20 7 27 24 25 23 -2 -1 -19
5 -24 34 -26 19 -2 53 -1 77 3 36 5 43 10 48 36 4 16 13 29 21 29 11 0 12 -4
4 -19 -16 -31 -12 -38 23 -47 l32 -8 -32 -3 c-25 -3 -33 -9 -33 -24 0 -10 -4
-19 -10 -19 -5 0 -10 8 -10 18 0 15 -14 17 -130 19 l-130 1 0 -29 c0 -16 -4
-29 -10 -29 -5 0 -10 14 -10 30 0 28 -3 30 -37 30 -28 0 -34 3 -23 10 8 5 25
10 38 10 18 0 22 6 22 31 0 17 4 28 10 24 6 -3 10 -17 10 -31z m-1725 5 c8
-26 -16 -54 -39 -46 -16 6 -22 48 -9 60 14 14 42 6 48 -14z m929 8 c18 -13 18
-15 -5 -36 -13 -11 -28 -20 -34 -18 -16 5 -18 49 -3 58 18 12 21 11 42 -4z
m617 -36 c-8 -14 -8 -21 -1 -21 8 0 8 -12 0 -50 0 -3 -7 4 -15 14 -12 15 -17
17 -29 7 -8 -7 -20 -10 -26 -6 -6 4 5 24 27 50 38 43 65 47 44 6z m639 14 c0
-10 10 -15 30 -15 17 0 30 -4 30 -10 0 -5 -13 -10 -29 -10 -16 0 -32 -6 -35
-12 -5 -10 -7 -10 -12 0 -3 6 -19 12 -35 12 -16 0 -29 5 -29 10 0 6 14 10 30
10 20 0 30 5 30 15 0 8 5 15 10 15 6 0 10 -7 10 -15z m-841 -9 c16 -19 -14
-68 -39 -64 -9 2 -25 -4 -35 -12 -17 -14 -18 -13 -11 13 4 16 2 27 -4 27 -5 0
-10 7 -10 15 0 13 4 14 21 4 17 -9 23 -7 36 10 17 25 26 26 42 7z m1801 -10
c0 -7 15 -18 33 -24 l32 -10 -37 -1 c-35 -1 -38 -3 -38 -31 0 -16 -4 -30 -10
-30 -5 0 -10 14 -10 30 l0 30 -220 0 c-140 0 -220 4 -220 10 0 6 80 10 221 10
212 0 221 1 226 20 6 21 23 18 23 -4z m-2021 -55 c9 -6 3 -10 -20 -14 -40 -6
-61 3 -33 14 26 10 37 10 53 0z m-1910 -188 l1 -53 44 0 c26 0 48 -6 56 -15
27 -33 70 -10 70 37 0 21 -5 28 -20 28 -20 0 -47 -37 -35 -48 3 -3 15 -1 25 6
17 10 20 10 20 -3 0 -18 -41 -20 -57 -4 -9 9 -8 19 3 41 13 24 20 29 47 26 30
-3 32 -6 35 -45 3 -36 -1 -44 -22 -59 -29 -18 -76 -12 -76 10 0 17 -91 10
-102 -8 -4 -6 -7 43 -7 109 1 93 3 110 10 75 4 -25 8 -69 8 -97z m4735 114
c17 -13 17 -17 0 -105 -9 -51 -15 -94 -12 -97 11 -12 80 -18 87 -8 3 6 21 18
39 27 40 21 41 32 1 40 -17 3 -28 10 -24 16 10 15 34 12 61 -9 l23 -18 -25
-24 -25 -24 28 -7 c15 -4 43 -5 60 -2 18 4 45 3 60 -1 27 -8 27 -8 -12 -16
-22 -4 -178 -8 -347 -8 l-308 -1 -4 23 c-9 40 -12 147 -5 147 12 0 19 -30 19
-85 0 -30 5 -57 11 -60 6 -4 84 -4 174 0 l163 7 4 50 c3 47 2 49 -20 45 -18
-3 -20 -2 -11 9 6 8 17 14 24 14 23 0 35 63 14 76 -6 3 -24 -3 -40 -15 -34
-25 -40 -26 -33 -6 6 16 50 44 70 45 5 0 18 -6 28 -13z m-3944 -6 c0 -10 -106
-21 -202 -21 -105 0 -80 19 30 23 53 1 114 4 135 5 20 1 37 -2 37 -7z m1270
-7 c0 -3 -4 -14 -10 -24 -7 -13 -6 -21 5 -30 19 -16 2 -40 -27 -40 -28 0 -33
28 -9 54 11 12 21 28 21 34 0 7 5 12 10 12 6 0 10 -3 10 -6z m2110 -14 c0 -5
-22 -10 -50 -10 -27 0 -50 5 -50 10 0 6 23 10 50 10 28 0 50 -4 50 -10z
m-1540 -15 c9 -11 17 -12 32 -4 17 9 25 6 49 -17 44 -43 36 -103 -17 -118 -30
-9 -64 22 -67 60 -2 27 -5 30 -19 23 -11 -6 -22 -4 -32 7 -19 18 -19 20 -6 45
13 23 43 25 60 4z m1820 -3 c0 -9 8 -22 19 -29 22 -14 18 -68 -5 -59 -7 3 -15
0 -18 -7 -2 -7 -5 -6 -5 4 -1 12 -9 14 -33 11 -27 -4 -31 -2 -20 9 6 7 12 19
12 27 0 15 31 61 43 62 4 0 7 -8 7 -18z m-1330 3 c0 -4 -7 -19 -15 -35 -15
-29 -15 -30 9 -30 14 0 28 -4 31 -10 3 -5 -3 -10 -15 -10 -17 0 -20 -4 -15
-20 7 -22 -5 -26 -22 -9 -8 8 -13 8 -17 0 -11 -17 -27 -13 -24 7 3 15 -5 17
-74 13 -52 -2 -78 1 -78 8 0 7 20 11 49 11 83 0 112 10 133 46 17 30 38 45 38
29z m-1955 -25 c-3 -5 -26 -10 -51 -10 -44 0 -44 0 -44 -35 0 -32 2 -35 24
-29 31 7 66 -11 66 -36 0 -10 -12 -28 -26 -39 -28 -22 -74 -29 -74 -11 0 6 10
10 23 10 25 1 57 22 57 39 0 12 -9 14 -57 11 -33 -2 -33 -2 -33 48 0 27 3 52
7 55 11 11 115 8 108 -3z m1245 -6 c0 -3 -9 -18 -21 -32 l-21 -27 31 -9 c43
-12 40 -30 -4 -22 -30 6 -35 4 -35 -13 0 -11 -5 -23 -12 -27 -8 -5 -9 2 -5 24
6 27 3 34 -20 45 -16 9 -22 17 -15 21 7 4 20 3 29 -3 14 -7 21 -3 35 20 16 26
38 39 38 23z m939 -39 c30 -9 27 -49 -4 -69 -14 -9 -25 -23 -25 -31 0 -22 -24
-18 -46 7 -19 21 -19 21 3 16 13 -4 24 -1 27 8 3 8 18 19 32 25 21 7 24 13 16
21 -9 9 -15 7 -27 -8 -8 -10 -15 -14 -15 -8 0 7 -10 15 -22 18 -20 6 -21 8 -7
19 8 6 19 21 23 32 8 20 8 20 16 -2 5 -12 18 -24 29 -28z m311 37 c0 -4 -5
-13 -12 -20 -9 -9 1 -12 45 -12 44 0 62 -5 77 -20 24 -24 25 -38 4 -68 -17
-24 -43 -29 -62 -10 -9 9 -16 8 -29 -4 -30 -25 -54 -29 -79 -13 -33 22 -31 62
7 113 28 39 49 53 49 34z m507 -3 c9 -9 7 -21 -8 -50 l-19 -39 25 0 c37 0 30
-18 -10 -26 -19 -3 -39 -12 -44 -18 -8 -10 2 -12 44 -8 53 4 75 -8 39 -22 -27
-11 -226 -7 -219 4 3 6 28 10 54 10 41 0 49 3 59 24 10 22 8 26 -9 31 -30 10
-43 52 -24 81 12 19 24 24 58 24 24 0 48 -5 54 -11z m-3777 -95 c0 -48 -4 -73
-10 -69 -5 3 -10 19 -10 36 l0 29 -79 0 c-46 0 -83 5 -86 11 -4 6 0 9 11 7 14
-2 19 3 18 20 -1 28 4 28 15 1 5 -15 17 -22 40 -24 27 -2 34 2 42 24 11 29 38
53 50 45 5 -3 9 -39 9 -80z m1078 65 l13 -21 25 23 c27 25 35 7 9 -21 -14 -16
-13 -19 10 -34 32 -21 32 -28 -5 -44 -18 -8 -30 -21 -30 -33 0 -10 -4 -19 -10
-19 -5 0 -10 11 -10 24 0 19 -6 25 -27 28 -31 4 -44 28 -15 28 24 0 35 25 22
50 -21 39 -5 56 18 19z m-854 -24 c-8 -20 -13 -44 -12 -53 2 -14 -5 -17 -42
-17 -39 0 -45 3 -48 23 -2 13 1 29 7 36 13 15 5 27 -14 20 -7 -3 -16 -1 -20 5
-13 22 44 11 59 -11 15 -21 15 -23 -6 -31 -15 -5 -18 -11 -11 -18 11 -11 53
-4 53 9 0 10 39 72 44 72 3 0 -2 -16 -10 -35z m4002 12 c14 8 24 11 24 5 0 -6
-5 -14 -10 -17 -6 -4 -8 -15 -5 -26 4 -11 2 -19 -4 -19 -6 0 -11 5 -11 10 0
18 -19 10 -25 -11 -10 -31 -49 -21 -53 14 -2 15 1 27 7 27 6 0 10 -10 8 -21
-1 -12 4 -24 12 -27 11 -4 12 5 7 44 -6 47 -5 48 10 27 15 -21 17 -21 40 -6z
m-3891 -17 c0 -20 -5 -25 -25 -27 -14 -1 -18 0 -7 3 17 5 25 44 9 44 -16 0
-32 -25 -32 -51 0 -32 32 -48 55 -29 10 8 15 9 15 2 0 -6 -9 -16 -20 -22 -47
-25 -87 38 -55 86 22 34 60 30 60 -6z m67 -11 c10 14 21 22 24 18 4 -4 1 -14
-6 -23 -12 -13 -11 -17 0 -24 19 -12 5 -24 -17 -16 -20 8 -29 5 -25 -6 1 -5
-2 -8 -8 -8 -12 0 -14 73 -2 84 4 4 9 -5 12 -21 l5 -28 17 24z m208 25 c0 -4
-8 -13 -17 -20 -17 -12 -16 -13 5 -14 12 0 22 -4 22 -10 0 -15 -26 -12 -40 5
-15 18 -6 45 15 45 8 0 15 -3 15 -6z m3980 -9 c-6 -8 -9 -23 -5 -35 7 -21 6
-21 -18 -5 -33 21 -45 49 -18 40 11 -3 22 -1 26 5 3 5 11 10 17 10 7 0 6 -5
-2 -15z m-4033 -21 c7 -19 -20 -49 -36 -40 -12 8 -15 39 -4 49 12 12 33 7 40
-9z m905 -8 c11 -26 5 -56 -11 -56 -5 0 -7 9 -4 20 3 12 -2 29 -12 40 -17 18
-17 20 -1 20 9 0 21 -11 28 -24z m358 4 c0 -6 -57 -10 -150 -10 -93 0 -150 4
-150 10 0 6 57 10 150 10 93 0 150 -4 150 -10z m1720 0 c0 -5 -8 -10 -17 -10
-10 0 -35 -3 -55 -6 -41 -7 -55 11 -15 19 43 8 87 7 87 -3z m-350 -70 c0 -5
-15 -10 -34 -10 -19 0 -38 5 -41 10 -4 6 10 10 34 10 23 0 41 -4 41 -10z
m-770 -20 c0 -6 -54 -10 -141 -10 -91 0 -138 4 -134 10 4 6 62 10 141 10 83 0
134 -4 134 -10z m-2555 -160 c19 0 35 -4 35 -10 0 -5 -16 -10 -35 -10 l-35 0
0 -52 c0 -38 -3 -49 -10 -38 -5 8 -10 32 -10 53 0 32 -3 37 -23 37 -32 0 -37
-8 -27 -36 11 -27 -4 -33 -15 -6 -6 15 -8 14 -18 -8 l-10 -25 -5 25 c-2 14 -8
30 -13 37 -12 14 4 25 40 28 14 1 36 3 49 3 19 2 22 7 22 46 0 74 15 89 18 19
l3 -63 34 0z m1745 90 l0 -30 99 0 c56 0 103 -4 106 -10 4 -7 -82 -10 -249
-10 l-256 0 0 -22 c0 -36 12 -45 58 -46 58 -2 62 -6 62 -56 0 -23 5 -47 12
-54 17 -17 -13 -25 -78 -20 -56 5 -81 18 -69 37 4 8 11 6 21 -4 9 -9 34 -15
60 -15 42 0 44 1 44 29 0 52 -8 61 -56 61 -40 0 -44 -2 -44 -25 0 -14 -4 -25
-10 -25 -5 0 -10 12 -10 28 0 15 -3 51 -6 80 l-7 52 152 0 151 0 0 30 c0 17 5
30 10 30 6 0 10 -13 10 -30z m373 10 c44 -35 44 -89 -2 -137 -25 -27 -27 -53
-4 -53 14 0 13 -4 -6 -21 -17 -16 -26 -18 -34 -10 -6 6 -21 11 -34 11 -13 0
-23 5 -23 10 0 6 11 10 25 10 36 0 31 20 -15 65 -47 46 -53 85 -18 122 27 29
76 30 111 3z m-1947 -58 c-14 -15 -15 -13 -6 18 6 19 11 37 11 40 1 3 4 -6 6
-19 3 -13 -2 -30 -11 -39z m2530 33 l-6 -25 145 0 c122 0 145 2 145 15 0 8 5
15 10 15 6 0 10 -7 10 -15 0 -11 11 -15 43 -15 23 0 49 -5 57 -10 10 -6 -59
-10 -204 -10 l-218 0 6 -35 c8 -43 -7 -46 -24 -5 -11 26 -18 30 -51 30 -22 0
-39 5 -39 10 0 6 20 10 44 10 39 0 45 3 56 30 15 36 35 40 26 5z m-256 -5 c16
-16 18 -25 10 -46 -8 -19 -6 -31 5 -47 21 -30 19 -44 -10 -72 -43 -44 -125
-21 -125 35 0 30 14 24 27 -10 12 -32 38 -39 72 -20 44 23 23 76 -25 64 -34
-9 -30 12 6 31 41 21 41 55 0 55 -16 0 -33 -7 -38 -16 -5 -9 -12 -12 -15 -7
-7 12 3 27 28 41 29 16 42 15 65 -8z m878 -110 c4 0 22 4 39 9 26 8 35 6 42
-7 5 -10 5 -22 -2 -33 -14 -22 0 -39 14 -19 8 12 9 11 7 -5 -5 -29 -42 -26
-46 3 -2 13 2 29 8 37 9 11 5 12 -24 3 -24 -8 -36 -17 -36 -30 0 -10 -4 -18
-10 -18 -6 0 -9 38 -8 98 2 81 2 86 5 30 2 -38 7 -68 11 -68z m-2524 89 c14
-17 29 -42 32 -55 8 -33 -2 -84 -23 -106 -15 -17 -12 -18 85 -18 61 0 102 -4
102 -10 0 -6 -36 -10 -87 -10 -49 0 -125 -3 -170 -7 -60 -4 -83 -3 -83 6 0 6
16 11 39 11 36 0 38 2 34 28 -11 70 -12 73 -37 66 -13 -3 -27 -1 -31 5 -4 7 6
14 24 17 26 6 31 11 31 36 0 70 41 88 84 37z m2802 16 c-5 -13 25 -15 235 -15
158 0 238 -3 234 -10 -4 -6 -117 -10 -306 -10 -198 0 -298 3 -294 10 3 6 28
10 54 10 31 0 53 5 61 15 7 8 15 15 17 15 3 0 3 -7 -1 -15z m-2286 -24 c0 -5
-63 -10 -140 -10 -90 -1 -140 2 -140 9 0 6 50 10 140 10 77 0 140 -4 140 -9z
m-754 -9 c18 -12 34 -49 34 -80 0 -61 -68 -106 -100 -66 -19 22 -16 98 4 128
16 26 41 33 62 18z m3626 -20 c-30 -20 -28 -32 6 -32 36 0 63 -40 42 -65 -14
-17 -80 -21 -80 -5 0 6 13 10 29 10 35 0 47 13 27 29 -9 8 -28 10 -49 6 -38
-7 -60 9 -27 20 11 3 20 15 20 25 0 21 29 42 44 32 5 -3 0 -12 -12 -20z
m-3245 3 c3 -9 -3 -25 -12 -35 -22 -25 -31 -19 -15 9 8 16 8 21 -3 21 -7 0
-18 -5 -25 -12 -6 -6 -15 -8 -19 -4 -10 10 26 36 49 36 10 0 21 -7 25 -15z
m1379 -31 c-11 -12 -43 -7 -52 8 -3 5 -3 12 1 16 3 3 10 0 15 -8 8 -12 10 -12
15 2 5 13 10 14 19 5 9 -8 10 -15 2 -23z m2224 26 c0 -5 -4 -10 -10 -10 -6 0
-5 -9 1 -24 8 -17 8 -33 1 -55 -10 -29 -9 -30 20 -33 18 -2 33 -9 36 -15 3
-10 -24 -13 -112 -13 -71 0 -116 4 -116 10 0 6 32 10 76 10 50 0 73 4 69 10
-4 6 -1 18 7 27 11 14 10 16 -9 11 -43 -11 -83 43 -50 70 23 19 87 28 87 12z
m-4356 -15 c-4 -8 -10 -15 -15 -15 -5 0 -9 -13 -9 -29 0 -23 -6 -30 -26 -35
-47 -12 -76 41 -35 64 25 13 31 13 31 0 0 -5 -7 -10 -15 -10 -8 0 -15 -9 -15
-20 0 -13 7 -20 20 -20 14 0 20 7 20 21 0 11 5 29 10 40 13 23 42 26 34 4z
m-401 -42 c3 -16 9 -36 13 -46 6 -16 2 -18 -31 -15 -49 4 -65 27 -42 62 23 35
53 34 60 -1z m487 7 c0 -14 7 -20 24 -20 36 0 56 -10 56 -28 0 -12 -3 -13 -12
-4 -7 7 -29 12 -50 12 -36 0 -38 2 -38 30 0 17 5 30 10 30 6 0 10 -9 10 -20z
m145 -2 c23 4 25 1 24 -29 0 -31 -1 -32 -9 -11 -12 28 -25 28 -44 0 -16 -22
-16 -21 -16 22 1 33 3 41 10 29 6 -11 18 -15 35 -11z m2484 9 c15 -19 3 -28
-20 -14 -23 14 -52 0 -57 -28 -6 -27 18 -35 56 -19 19 8 47 14 63 14 25 0 29
4 29 29 0 25 3 28 25 23 27 -5 35 -22 10 -22 -8 0 -15 -4 -15 -9 0 -5 7 -14
15 -21 19 -16 19 -46 0 -54 -15 -6 -48 21 -41 33 7 11 -58 0 -65 -11 -3 -5
-22 -11 -41 -15 -31 -4 -38 -2 -53 20 -14 21 -14 30 -4 49 7 13 17 26 23 30
18 12 63 9 75 -5z m-1969 -26 c-11 -22 -44 -28 -55 -11 -3 6 3 10 13 10 11 0
25 7 32 15 17 21 24 12 10 -14z m335 19 c-3 -6 -20 -17 -37 -26 l-31 -16 24
-18 c32 -25 18 -36 -16 -14 -22 15 -30 15 -47 5 -24 -15 -35 -7 -18 14 10 12
9 16 -4 21 -9 3 -16 12 -16 20 0 10 6 10 28 -3 25 -15 29 -14 62 6 37 22 65
28 55 11z m2653 -3 c16 -19 9 -84 -11 -104 -9 -9 -19 -14 -23 -10 -3 3 1 13
10 22 21 22 21 22 -14 17 -16 -2 -30 -9 -30 -15 0 -7 -5 -6 -12 2 -11 10 -10
15 2 24 9 7 14 20 12 30 -2 10 -1 25 2 33 7 18 50 18 64 1z m-304 -22 c10 -11
24 -13 43 -9 25 7 27 6 14 -9 -7 -10 -22 -17 -32 -17 -10 0 -23 -9 -29 -21
-26 -48 -98 -41 -85 9 14 56 57 78 89 47z m-3414 -5 c0 -5 -7 -10 -16 -10 -8
0 -12 5 -9 10 3 6 10 10 16 10 5 0 9 -4 9 -10z m1540 -10 c0 -18 7 -20 60 -20
33 0 60 -4 60 -10 0 -6 -27 -10 -61 -10 l-61 0 7 -30 c4 -19 3 -30 -4 -30 -6
0 -11 9 -11 20 0 11 -9 28 -19 37 -19 16 -19 39 0 28 5 -4 9 3 9 14 0 12 5 21
10 21 6 0 10 -9 10 -20z m-1685 0 c4 -6 -10 -10 -35 -10 -25 0 -39 4 -35 10 3
6 19 10 35 10 16 0 32 -4 35 -10z m1655 -60 c0 -5 -4 -10 -10 -10 -5 0 -10 5
-10 10 0 6 5 10 10 10 6 0 10 -4 10 -10z m-1960 -150 c6 0 10 4 10 9 0 13 37
2 51 -15 9 -11 7 -14 -9 -14 -11 0 -22 -6 -25 -12 -3 -9 -9 -7 -20 6 -13 18
-15 9 -22 -102 -4 -66 -4 -153 0 -192 l7 -71 122 3 121 3 0 25 c0 17 -6 25
-17 25 -9 0 -20 3 -23 7 -4 4 -17 3 -30 -2 -55 -21 -78 54 -38 122 42 73 108
28 84 -58 -6 -21 -9 -38 -8 -39 1 0 14 -6 30 -13 19 -8 27 -19 27 -36 0 -18 7
-25 30 -29 44 -9 161 4 157 17 -2 6 -13 12 -25 14 -27 4 -29 22 -2 22 26 0 42
-33 37 -78 -3 -29 -5 -33 -11 -17 -7 19 -14 20 -242 16 l-234 -3 0 264 c0 146
3 268 8 272 4 4 8 -22 10 -58 2 -36 7 -66 12 -66z m3014 108 c60 -53 32 -138
-44 -138 -84 0 -122 106 -52 144 38 21 67 19 96 -6z m-424 -3 c6 -8 8 -19 4
-26 -5 -8 -9 -7 -16 5 -13 24 -30 20 -26 -6 2 -13 9 -23 17 -23 8 0 16 -6 19
-13 2 -8 -2 -10 -14 -5 -12 4 -15 2 -12 -8 3 -9 22 -15 51 -17 l47 -3 0 46 c0
28 4 44 10 40 6 -3 10 -22 10 -41 0 -32 2 -34 35 -34 19 0 35 -4 35 -10 0 -5
-16 -10 -35 -10 -33 0 -35 -2 -29 -27 l5 -28 -19 23 c-14 15 -31 22 -59 22
-51 0 -63 10 -74 60 -13 59 19 94 51 55z m1100 -62 c0 -8 14 -13 39 -13 31 0
40 4 46 23 6 19 8 19 12 5 6 -24 123 -27 123 -3 0 8 5 15 10 15 6 0 10 -6 10
-13 0 -10 17 -13 63 -11 34 1 263 5 510 9 l447 6 0 -26 c0 -14 5 -34 11 -44
18 -27 3 -70 -26 -77 -38 -9 -55 2 -55 35 0 22 8 35 25 47 14 9 25 23 25 30 0
12 -34 14 -202 12 l-203 -3 -3 -38 c-2 -28 2 -43 15 -53 11 -8 13 -13 6 -14
-7 0 -13 -8 -13 -19 0 -16 -6 -18 -47 -14 -27 3 -52 9 -57 14 -5 5 9 32 33 64
l42 55 -171 0 -171 0 2 -57 c2 -37 -1 -58 -9 -61 -8 -2 -12 15 -12 57 l0 61
-40 0 c-29 0 -40 -4 -40 -15 0 -8 -7 -15 -16 -15 -10 0 -14 6 -10 15 4 11 -2
15 -27 15 -64 0 -77 -9 -77 -51 l0 -39 87 0 c51 0 83 -4 77 -9 -12 -12 -233
-21 -240 -10 -3 5 9 9 25 9 30 0 31 1 31 45 0 38 -3 45 -20 45 -12 0 -21 -8
-24 -22 -3 -13 -7 -32 -9 -43 -3 -11 -5 -1 -6 23 -1 41 -2 43 -28 40 -22 -2
-29 -9 -31 -30 -4 -35 -22 -37 -22 -2 0 23 -3 25 -37 22 -30 -2 -39 -8 -44
-28 l-7 -25 -7 23 c-9 27 -25 29 -25 3 0 -11 -4 -23 -10 -26 -6 -4 -10 5 -10
19 0 21 -5 26 -25 26 -14 0 -25 5 -25 10 0 6 20 10 45 10 l46 0 -6 38 c-6 35
-5 36 9 18 9 -11 16 -26 16 -33z m-2211 18 c12 -12 23 -16 32 -10 8 5 20 9 27
9 22 0 12 -17 -17 -30 -52 -21 -46 -37 14 -36 60 0 95 -21 95 -60 0 -44 -58
-72 -88 -42 -16 16 -15 50 1 67 10 11 3 13 -39 9 -35 -3 -64 -14 -97 -36 -25
-18 -48 -28 -51 -23 -4 5 10 19 29 31 44 27 89 85 81 105 -8 22 -26 18 -26 -6
0 -11 -4 -17 -10 -14 -14 9 -12 42 3 48 21 9 26 8 46 -12z m1976 -5 c27 -40
-7 -82 -52 -65 -27 10 -31 50 -7 73 22 22 41 20 59 -8z m-3005 -5 c17 -33 11
-47 -10 -21 -27 35 -55 17 -55 -35 0 -48 26 -69 52 -42 17 17 17 18 -5 23 -23
7 -29 19 -12 29 5 3 17 -2 27 -12 19 -19 89 -21 108 -2 13 13 45 11 45 -2 0
-6 -7 -9 -15 -5 -8 3 -15 1 -15 -4 0 -6 7 -10 15 -10 8 0 15 -4 15 -9 0 -5
-29 -6 -64 -4 -55 5 -66 3 -85 -16 -26 -26 -45 -27 -71 -1 -25 25 -27 86 -3
112 21 24 60 23 73 -1z m235 9 c4 -6 15 -8 26 -5 10 4 19 2 19 -4 0 -6 6 -8
14 -5 14 5 66 -49 66 -70 0 -7 -9 -21 -21 -32 -21 -19 -21 -18 -38 2 -14 18
-19 19 -30 7 -31 -33 -81 46 -51 82 7 9 8 15 0 20 -23 14 -32 -8 -27 -66 5
-63 -6 -90 -17 -38 -10 49 -7 94 6 107 15 15 45 16 53 2z m465 -10 c0 -11 -4
-20 -10 -20 -5 0 -10 -11 -10 -25 0 -21 5 -25 30 -25 20 0 33 -7 41 -21 11
-21 10 -22 -24 -16 l-36 6 2 -49 c2 -41 6 -51 30 -65 26 -15 36 -35 19 -35 -5
0 -27 13 -50 30 -38 27 -40 31 -30 58 16 43 5 62 -36 62 -19 0 -36 -6 -39 -12
-4 -10 -7 -10 -18 0 -11 10 -3 23 46 72 62 63 85 74 85 40z m704 -3 c-1 -12 5
-17 22 -17 12 0 26 -4 29 -10 4 -6 -8 -10 -28 -10 -39 0 -47 -12 -47 -66 0
-19 -4 -34 -10 -34 -5 0 -10 11 -10 25 0 14 -4 25 -10 25 -5 0 -13 12 -16 26
-6 23 -10 25 -38 20 -17 -3 -39 -15 -48 -26 -11 -14 -19 -17 -23 -9 -12 18 28
49 71 56 21 3 45 15 52 25 17 24 58 20 56 -5z m276 -42 c20 -61 24 -65 51 -65
18 0 28 -4 24 -10 -3 -5 -17 -10 -30 -10 -18 0 -23 -4 -19 -15 4 -8 2 -15 -4
-15 -5 0 -12 7 -16 15 -7 19 -92 21 -99 3 -3 -9 -8 -10 -16 -3 -8 8 1 32 30
88 22 42 44 77 49 77 5 0 18 -29 30 -65z m1210 58 c0 -4 -10 -17 -22 -30 l-21
-23 31 0 c18 0 32 -4 32 -10 0 -5 -20 -10 -45 -10 -25 0 -45 4 -45 9 0 13 50
71 61 71 5 0 9 -3 9 -7z m-3135 -23 c12 -13 15 -27 11 -45 -6 -25 -5 -25 49
-25 30 0 55 -4 55 -10 0 -6 -26 -10 -58 -10 -45 0 -61 -4 -75 -20 -21 -25 -43
-26 -56 -1 -12 22 -2 34 43 50 30 12 32 37 4 55 -13 8 -23 8 -39 -2 -27 -17
-40 -5 -15 14 28 20 60 17 81 -6z m4515 -48 c0 -21 -2 -24 -10 -12 -13 20 -13
53 0 45 6 -3 10 -18 10 -33z m-2304 3 c-3 -9 0 -15 9 -15 8 0 15 -4 15 -10 0
-5 -7 -10 -16 -10 -26 0 -14 -54 14 -58 12 -2 20 -8 17 -13 -8 -12 -95 -12
-95 1 0 6 7 10 15 10 10 0 15 10 15 30 0 30 0 30 -59 30 -48 0 -60 -3 -64 -17
-4 -17 -4 -17 -12 0 -16 38 1 49 70 45 45 -2 66 1 70 10 2 6 9 12 16 12 6 0 9
-7 5 -15z m1794 9 c0 -3 -4 -14 -10 -24 -7 -13 -6 -21 5 -30 8 -7 15 -19 15
-28 0 -13 -2 -13 -18 1 -10 10 -22 14 -25 10 -12 -12 -7 37 5 57 12 19 28 27
28 14z m-1125 -54 c4 -6 -7 -24 -24 -40 -40 -41 -107 -42 -163 -3 -27 18 -36
29 -28 37 7 7 16 3 30 -12 11 -12 32 -25 47 -28 39 -10 96 7 108 34 11 24 20
28 30 12z m1692 -5 c13 -37 -56 -72 -85 -43 -16 16 -15 45 1 51 28 12 78 7 84
-8z m-1327 -15 c0 -6 -55 -10 -146 -10 -94 0 -143 4 -139 10 4 6 63 10 146 10
86 0 139 -4 139 -10z m-1000 -10 c0 -5 -4 -10 -10 -10 -5 0 -10 5 -10 10 0 6
5 10 10 10 6 0 10 -4 10 -10z m-1597 -58 c-7 -54 -21 -78 -37 -62 -5 5 -32 10
-58 10 -29 0 -48 4 -48 11 0 8 20 10 59 7 l60 -4 6 48 c4 26 11 46 16 43 5 -3
6 -27 2 -53z m801 37 c-3 -5 -10 -7 -15 -3 -5 3 -7 10 -3 15 3 5 10 7 15 3 5
-3 7 -10 3 -15z m1093 -41 c15 -19 24 -64 17 -82 -8 -22 -70 -21 -82 1 -9 15
-2 58 13 83 9 14 40 13 52 -2z m271 0 c18 -18 14 -56 -7 -68 -41 -22 -72 16
-46 56 17 26 35 30 53 12z m-379 -25 c9 -19 9 -29 2 -31 -6 -2 -11 -11 -11
-19 0 -35 -14 0 -15 37 -1 47 7 51 24 13z m185 -2 c4 -5 22 -5 43 0 49 11 53
11 53 -1 0 -5 -9 -10 -20 -10 -25 0 -27 -20 -2 -21 13 0 14 -2 2 -6 -8 -3 -19
-12 -23 -19 -10 -17 -49 -18 -65 -2 -14 14 -16 68 -3 68 6 0 12 -4 15 -9z
m-2164 -61 l0 -60 50 0 c38 0 50 4 50 15 0 8 5 15 10 15 6 0 10 -7 10 -15 0
-12 16 -15 85 -15 50 0 85 -4 85 -10 0 -6 -35 -10 -85 -10 -84 0 -85 0 -85
-25 0 -14 -4 -25 -10 -25 -5 0 -10 11 -10 25 0 23 -3 25 -50 25 l-50 0 -1 -67
-1 -68 -9 55 c-5 30 -8 87 -7 125 1 48 -2 70 -10 69 -7 -1 -25 -2 -42 -2 l-30
-2 0 -124 c0 -90 4 -131 15 -152 8 -16 15 -46 15 -68 0 -27 6 -44 21 -57 23
-20 20 -45 -7 -56 -10 -4 -20 0 -26 10 -8 15 -41 17 -311 18 -166 1 -288 4
-272 6 17 1 54 6 83 9 l54 6 -4 56 -3 57 33 3 c36 4 44 -14 10 -21 -17 -3 -14
-5 10 -6 40 -1 43 -21 2 -21 -28 0 -30 -3 -30 -37 l0 -38 156 3 c134 3 154 5
144 17 -9 11 -17 12 -31 4 -20 -10 -28 4 -9 16 8 5 7 11 -1 21 -10 12 -8 14
12 10 13 -2 32 3 42 12 21 18 22 4 3 -24 -13 -18 -13 -22 5 -37 11 -10 36 -17
59 -17 l40 0 0 59 c0 40 -5 63 -15 71 -12 10 -15 41 -15 156 l0 143 43 4 c23
2 50 4 60 5 14 2 17 -7 17 -58z m989 28 c10 -27 -2 -64 -31 -95 l-21 -23 47 0
c29 0 45 -4 41 -10 -3 -5 -44 -10 -91 -10 -49 0 -84 4 -84 10 0 6 16 10 35 10
19 0 35 4 35 9 0 4 11 20 25 35 33 35 34 79 3 74 -15 -2 -24 -11 -26 -26 -4
-25 -22 -20 -22 7 0 44 74 59 89 19z m328 -5 c-3 -3 -11 -2 -17 2 -9 6 -9 10
1 16 14 8 27 -7 16 -18z m-897 8 c0 -5 -12 -24 -27 -41 -22 -26 -24 -34 -12
-40 33 -20 53 -39 47 -45 -4 -4 -23 3 -42 15 -20 12 -40 19 -45 16 -5 -4 -12
2 -15 11 -4 15 -5 15 -4 -2 1 -35 -2 -45 -12 -45 -11 0 -13 43 -4 78 6 22 7
22 26 5 18 -16 20 -16 43 12 13 17 24 33 25 38 0 10 20 9 20 -2z m360 -2 c0
-6 -21 -34 -46 -63 l-47 -51 54 -5 c80 -7 66 -25 -23 -28 -78 -3 -92 4 -62 28
22 19 38 51 23 48 -6 -2 -14 3 -17 11 -3 10 2 13 22 9 21 -4 32 1 54 28 28 34
42 42 42 23z m2885 -6 c-4 -10 -9 -23 -11 -28 -2 -6 6 -15 18 -20 47 -21 29
-97 -26 -107 -71 -14 -91 53 -35 117 26 30 28 35 13 35 -11 0 -25 -4 -33 -9
-22 -14 -44 -2 -30 15 7 9 31 14 61 14 44 0 49 -2 43 -17z m645 -93 l0 -110
-88 0 c-49 0 -165 -2 -258 -4 -93 -3 -159 -3 -146 0 21 5 22 10 22 100 0 94 0
94 -25 94 -14 0 -25 5 -25 10 0 6 74 10 203 9 111 0 196 -3 190 -6 -7 -2 -13
-19 -13 -36 0 -35 -37 -124 -46 -114 -4 3 1 27 10 53 9 26 16 49 16 51 0 2
-12 3 -26 3 -19 0 -25 4 -20 15 5 13 -13 15 -122 15 l-127 0 3 -91 3 -92 121
7 c67 3 163 6 215 6 l93 0 0 100 c0 60 4 100 10 100 6 0 10 -43 10 -110z
m-2445 83 c-13 -34 -22 -114 -14 -119 27 -17 -5 -70 -35 -58 -20 8 -21 50 -1
61 7 5 17 27 21 50 6 39 5 41 -15 36 -32 -8 -25 10 12 29 41 21 40 21 32 1z
m1194 1 c7 9 19 16 27 16 18 0 29 -21 15 -29 -8 -5 -7 -21 4 -59 9 -29 19 -52
23 -52 12 0 55 32 74 55 23 28 5 49 -39 42 -34 -6 -46 6 -17 17 30 11 64 6 75
-12 8 -13 20 -17 45 -14 21 3 34 0 34 -7 0 -6 -13 -11 -28 -11 -20 0 -35 -9
-50 -29 l-21 -29 114 -1 115 -1 0 31 0 32 -50 -6 c-27 -3 -50 -2 -50 2 0 13
67 23 100 16 28 -6 29 -7 23 -58 -7 -59 -11 -67 -23 -48 -6 11 -42 13 -194 7
-131 -5 -186 -4 -186 3 0 6 10 11 21 11 20 0 21 4 15 42 -9 53 -15 62 -31 48
-17 -14 -35 -5 -35 19 0 25 13 35 20 16 5 -16 7 -16 19 -1z m-556 -41 c-14
-103 -23 -115 -63 -83 l-25 21 27 -7 c23 -5 28 -2 34 20 10 39 0 41 -39 7 -33
-30 -58 -40 -56 -23 0 4 25 26 55 50 30 24 54 47 54 52 0 6 4 10 10 10 6 0 7
-19 3 -47z m227 -23 c0 -55 -2 -58 -27 -65 -48 -12 -67 38 -38 95 14 27 40 42
58 33 4 -2 7 -30 7 -63z m-1078 29 c26 -17 48 -35 48 -40 0 -5 -15 -18 -32
-29 -46 -26 -59 -40 -53 -51 4 -5 13 -5 25 1 12 6 21 7 25 1 3 -6 -4 -15 -16
-21 -16 -9 -24 -8 -38 4 -10 9 -27 16 -39 16 -13 0 -22 6 -22 15 0 8 -9 19
-20 25 -11 6 -20 18 -20 26 0 19 63 84 81 84 7 0 34 -14 61 -31z m1116 -12 c3
-37 4 -37 49 -37 36 0 44 3 39 15 -3 9 0 15 9 15 8 0 15 -5 15 -11 0 -6 7 -3
16 6 19 19 32 12 15 -8 -9 -12 -7 -13 14 -9 15 2 25 0 25 -7 0 -6 -7 -11 -15
-11 -8 0 -15 -5 -15 -11 0 -5 -5 -7 -11 -3 -19 11 -122 5 -131 -8 -12 -19 -28
9 -28 49 0 17 -3 39 -7 49 -4 12 -2 15 8 12 8 -2 15 -21 17 -41z m-1482 -32
c5 -19 11 -24 24 -20 20 6 37 -26 25 -45 -9 -14 -35 -12 -36 3 0 9 -2 9 -6 -1
-2 -7 -14 -17 -25 -23 -15 -8 -19 -8 -14 0 4 6 0 11 -8 11 -9 0 -16 2 -16 4 0
2 -3 11 -6 20 -4 12 0 16 15 16 22 0 29 -15 11 -23 -6 -3 -5 -4 2 -3 7 1 14
15 16 30 2 18 0 26 -7 21 -12 -7 -15 17 -4 28 13 13 23 7 29 -18z m134 5 c0
-5 -23 -10 -51 -10 -31 0 -48 4 -44 10 3 6 26 10 51 10 24 0 44 -4 44 -10z
m2690 -20 c0 -6 -26 -10 -59 -10 -33 0 -63 5 -66 10 -4 6 18 10 59 10 37 0 66
-4 66 -10z m-3020 -6 c0 -12 -31 -35 -40 -29 -15 10 -12 23 8 28 27 7 32 7 32
1z m1070 0 c0 -13 -42 -74 -51 -74 -13 0 -11 12 6 34 21 27 19 39 -5 33 -11
-3 -20 -1 -20 4 0 5 16 9 35 9 19 0 35 -3 35 -6z m139 -30 c-6 -8 -15 -14 -20
-14 -14 0 -11 28 4 33 20 7 29 -4 16 -19z m-79 -94 c0 -12 5 -17 14 -14 8 3
17 0 21 -6 4 -7 -2 -14 -14 -17 -24 -6 -29 -33 -6 -33 8 0 15 -4 15 -10 0 -5
-9 -10 -20 -10 -11 0 -20 -7 -20 -15 0 -12 15 -15 75 -15 41 0 75 -4 75 -9 0
-17 -275 -28 -285 -11 -4 6 17 10 54 10 54 0 61 2 61 20 0 13 -7 20 -20 20
-18 0 -40 26 -40 49 0 5 15 11 33 13 24 2 33 8 35 26 4 27 22 29 22 2z m-357
-17 c8 -10 18 -35 22 -55 6 -34 11 -38 36 -38 16 0 29 -4 29 -10 0 -5 -13 -10
-30 -10 -23 0 -31 -5 -36 -25 -3 -14 -17 -34 -30 -44 -13 -10 -24 -26 -24 -35
0 -9 -4 -16 -10 -16 -5 0 -10 25 -10 55 0 52 -1 55 -26 55 -22 0 -24 -3 -19
-22 7 -22 6 -22 -10 -6 -25 23 -12 48 25 48 29 0 30 1 30 48 0 65 22 88 53 55z
m-1043 -13 c-19 -13 -30 -13 -30 0 0 6 10 10 23 10 18 0 19 -2 7 -10z m372
-23 c9 -7 20 -29 23 -49 6 -33 3 -41 -26 -70 -18 -19 -34 -28 -36 -21 -2 6 7
23 21 37 15 14 26 33 26 42 0 16 -1 16 -18 1 -22 -20 -32 -21 -32 -4 0 7 10
18 21 25 15 9 18 17 11 24 -11 11 -52 2 -52 -13 0 -5 -4 -9 -10 -9 -17 0 -11
22 11 46 14 15 25 20 33 13 6 -5 19 -15 28 -22z m-472 -24 l0 -36 40 7 c39 6
41 5 47 -25 6 -31 7 -31 51 -25 25 3 53 6 63 6 16 0 19 8 19 55 0 30 5 55 10
55 6 0 10 -13 10 -30 0 -27 3 -30 30 -30 20 0 30 -5 30 -15 0 -8 -4 -15 -10
-15 -5 0 -10 5 -10 10 0 6 -9 10 -20 10 -14 0 -20 -7 -20 -22 1 -21 2 -21 13
-6 12 15 15 14 35 -7 24 -25 20 -35 -16 -35 -19 0 -23 -4 -19 -20 3 -11 1 -20
-4 -20 -4 0 -13 9 -19 20 -9 16 -21 20 -69 20 -53 0 -59 -2 -71 -27 l-14 -28
-4 28 c-3 22 -8 27 -33 27 -16 0 -29 5 -29 10 0 6 14 10 30 10 20 0 30 5 30
15 0 10 -10 15 -34 15 -32 0 -34 -2 -40 -45 -5 -30 -12 -45 -22 -45 -14 0 -14
13 3 73 3 13 -2 17 -26 17 -17 0 -31 5 -31 10 0 6 11 10 25 10 21 0 26 6 31
40 8 48 24 43 24 -7z m742 22 c2 3 15 -6 28 -20 24 -25 22 -47 -3 -27 -10 9
-12 4 -9 -22 10 -85 -116 -124 -148 -46 -15 35 -7 73 20 100 21 21 60 27 60
10 0 -5 -8 -10 -19 -10 -21 0 -51 -40 -51 -69 0 -46 65 -68 102 -34 28 25 22
103 -8 103 -16 0 -16 2 -7 26 6 15 7 15 18 1 7 -9 14 -15 17 -12z m1193 -11
l-30 -24 47 0 c26 0 50 5 53 11 5 7 14 3 26 -10 24 -25 24 -32 2 -25 -16 5
-16 4 1 -10 10 -8 15 -19 11 -25 -11 -19 -26 -12 -36 17 -9 28 -10 28 -77 22
-42 -4 -90 -17 -123 -32 -29 -15 -57 -24 -61 -22 -19 12 -4 23 59 45 37 13 85
39 106 57 22 18 42 30 46 26 3 -3 -7 -17 -24 -30z m310 10 c-20 -19 -25 -28
-16 -37 17 -17 13 -29 -7 -18 -13 7 -22 7 -29 0 -5 -5 -18 -7 -28 -3 -17 7
-17 8 1 21 16 11 17 17 6 33 -10 16 -10 20 1 20 7 0 18 -5 25 -12 10 -9 16 -8
29 5 10 9 24 17 32 17 9 0 4 -10 -14 -26z m-2636 -2 c6 -11 6 -24 -1 -35 -7
-14 -5 -22 9 -32 28 -21 7 -30 -23 -10 -25 16 -28 16 -39 1 -7 -9 -14 -16 -17
-16 -7 0 -2 86 6 99 11 17 54 13 65 -7z m2925 -75 c4 -41 11 -89 16 -108 11
-38 6 -65 -15 -73 -35 -13 -63 21 -45 55 10 17 7 19 -20 19 -16 0 -30 5 -30
10 0 6 16 10 35 10 l35 0 0 86 c0 103 15 103 24 1z m666 73 c0 -5 16 -10 35
-10 24 0 37 -6 45 -20 12 -22 0 -54 -22 -63 -7 -3 4 -6 24 -6 90 -2 55 -91
-35 -91 -25 0 -59 -3 -76 -6 -20 -4 -31 -3 -31 5 0 6 9 11 20 11 16 0 20 7 20
31 0 29 -2 30 -30 24 -16 -4 -35 -3 -42 2 -9 5 1 10 27 13 39 5 40 6 37 39 -4
41 5 81 18 81 6 0 10 -4 10 -10z m-3033 -14 c-5 -16 -34 -19 -39 -4 -4 8 3 14
19 14 14 1 22 -3 20 -10z m1639 -15 c-9 -13 -46 -15 -46 -1 0 14 34 30 44 20
4 -4 5 -13 2 -19z m-856 -16 l0 -35 -65 0 c-37 0 -65 4 -65 10 0 6 25 10 55
10 47 0 55 3 55 18 0 17 8 32 17 32 2 0 3 -16 3 -35z m1440 25 c0 -5 -20 -10
-45 -10 -25 0 -45 5 -45 10 0 6 20 10 45 10 25 0 45 -4 45 -10z m567 -38 c-13
-20 -26 -42 -30 -49 -5 -8 9 -10 53 -6 38 4 60 2 60 -4 0 -6 -29 -14 -65 -18
l-65 -7 15 -29 c16 -31 6 -40 -15 -14 -12 14 -15 14 -30 0 -28 -25 -47 -18
-22 8 12 13 22 26 22 30 0 4 -22 7 -50 7 -27 0 -50 5 -50 10 0 6 20 10 45 10
48 0 55 10 30 44 -8 11 -15 26 -15 33 0 25 16 13 36 -29 l20 -41 32 52 c18 29
37 49 42 46 6 -3 0 -22 -13 -43z m499 -4 c9 -41 11 -43 44 -43 19 0 36 -4 37
-10 1 -5 -6 -10 -17 -9 -18 0 -18 0 1 -28 25 -35 11 -37 -21 -3 -28 30 -40 32
-40 5 0 -11 -4 -20 -10 -20 -5 0 -10 9 -10 20 0 17 -7 20 -40 20 -22 0 -40 5
-40 10 0 6 19 10 41 10 l41 0 -6 45 c-9 57 8 59 20 3z m-822 -34 c9 -8 16 -24
16 -34 0 -26 -43 -54 -71 -45 -25 8 -14 22 21 27 34 4 36 43 3 42 -13 0 -23 5
-23 13 0 18 35 16 54 -3z m-2764 -24 c0 -6 -92 -10 -255 -10 -163 0 -255 4
-255 10 0 6 92 10 255 10 163 0 255 -4 255 -10z m2350 -10 c0 -5 -5 -10 -11
-10 -5 0 -7 5 -4 10 3 6 8 10 11 10 2 0 4 -4 4 -10z m-432 -42 c18 -18 15 -46
-8 -65 -19 -17 -19 -17 0 -30 11 -8 20 -19 20 -25 0 -7 -4 -7 -12 0 -7 6 -30
13 -51 17 -27 5 -35 11 -28 19 6 7 6 17 1 26 -14 21 -12 28 10 50 23 23 50 26
68 8z m522 2 c0 -6 -38 -10 -95 -10 -57 0 -95 4 -95 10 0 6 38 10 95 10 57 0
95 -4 95 -10z m-785 -80 c19 0 37 -4 40 -10 4 -6 -10 -10 -34 -10 -34 0 -41
-3 -41 -20 0 -11 -4 -20 -10 -20 -5 0 -10 9 -10 20 0 16 -7 20 -35 20 -19 0
-35 5 -35 10 0 6 16 10 35 10 32 0 35 3 35 28 0 43 15 49 18 8 3 -34 5 -36 37
-36z m495 25 c0 -42 2 -45 26 -45 15 0 23 -4 18 -11 -3 -6 -15 -9 -25 -6 -14
4 -19 0 -19 -14 0 -10 -4 -19 -10 -19 -5 0 -10 7 -10 15 0 9 -9 15 -22 14 -13
0 -17 -3 -10 -6 13 -5 7 -23 -9 -23 -21 0 -4 45 19 48 19 3 22 9 22 48 0 24 5
44 10 44 6 0 10 -20 10 -45z m-1154 -29 c14 -4 22 -11 19 -16 -3 -5 -12 -7
-20 -3 -12 4 -15 -5 -15 -41 0 -44 1 -46 30 -46 17 0 30 -4 30 -10 0 -5 -13
-10 -30 -10 -25 0 -30 -4 -30 -24 0 -14 -4 -28 -10 -31 -6 -4 -10 7 -10 24 l0
31 -90 0 c-49 0 -90 2 -90 5 0 3 13 26 30 53 28 45 28 47 9 50 -32 5 -50 -5
-42 -24 4 -12 3 -15 -5 -10 -21 13 -13 46 13 56 28 11 75 -2 75 -21 0 -6 -8
-23 -18 -37 -36 -52 -36 -52 5 -52 35 0 40 4 65 50 22 39 25 50 13 50 -8 0
-15 5 -15 10 0 6 9 10 20 10 13 0 20 7 20 18 0 32 15 35 18 4 2 -22 9 -32 28
-36z m1321 52 c-22 -8 -26 -13 -16 -24 8 -9 33 -14 75 -14 36 0 64 -4 64 -10
0 -6 -28 -10 -64 -10 -69 0 -96 14 -96 51 0 15 7 19 33 18 l32 -1 -28 -10z
m423 -10 c0 -13 -32 -6 -37 9 -3 7 3 9 16 6 12 -3 21 -10 21 -15z m-3810 -6
c0 -4 -13 -15 -29 -25 -30 -18 -61 -71 -61 -106 0 -12 10 -31 21 -42 18 -18
30 -20 70 -17 27 3 49 2 49 -2 0 -11 -27 -20 -60 -20 -81 0 -123 67 -85 139
23 45 95 100 95 73z m729 -70 c-1 -76 -18 -154 -36 -159 -8 -3 -7 9 3 43 8 26
14 80 14 121 0 47 4 72 10 68 6 -3 10 -36 9 -73z m151 4 l0 -65 53 -3 c63 -4
65 -22 2 -26 -31 -2 -45 -8 -45 -18 0 -10 14 -14 55 -14 30 0 55 -4 55 -10 0
-6 -43 -10 -110 -10 -67 0 -110 4 -110 10 0 6 19 10 43 10 l43 0 -4 95 c-3 66
-1 95 7 95 7 0 11 -24 11 -64z m-684 17 c-10 -10 -19 5 -10 18 6 11 8 11 12 0
2 -7 1 -15 -2 -18z m358 -2 c3 -4 -3 -16 -13 -25 -19 -17 -19 -18 0 -59 23
-51 23 -69 4 -106 -38 -75 -154 -58 -180 27 -10 35 20 75 51 68 18 -5 26 -2
31 11 10 30 35 53 56 53 11 0 17 3 14 7 -8 7 11 33 24 33 4 0 10 -4 13 -9z
m1221 -41 c4 -28 11 -48 16 -44 5 3 17 0 26 -5 15 -9 14 -10 -10 -11 l-28 0 6
-54 c4 -32 3 -56 -3 -60 -6 -3 -13 18 -17 53 -5 48 -10 58 -22 54 -8 -3 -18 0
-23 7 -6 9 -12 9 -29 1 -34 -19 -47 -1 -14 20 30 20 63 25 63 9 0 -5 4 -10 10
-10 6 0 7 18 3 45 -3 28 -2 45 5 45 5 0 13 -23 17 -50z m-1464 30 c25 -14 25
-64 -1 -90 -11 -11 -20 -29 -20 -39 0 -18 -24 -51 -36 -51 -3 0 -14 5 -25 10
-16 9 -19 22 -19 89 0 43 3 81 7 84 10 11 72 8 94 -3z m940 -11 c11 -5 17 -14
14 -20 -4 -6 -13 -5 -25 1 -51 27 -100 -2 -100 -58 0 -36 23 -72 45 -72 16 0
40 28 32 37 -4 3 -13 0 -22 -7 -20 -17 -20 4 1 24 14 15 13 16 -7 16 -17 0
-20 3 -12 11 35 35 78 -32 49 -76 -37 -56 -106 -10 -106 71 0 34 5 47 26 63
29 23 74 27 105 10z m224 -20 c-19 -36 -21 -32 29 -53 51 -21 41 -30 -18 -15
-45 11 -47 11 -78 -20 -26 -26 -29 -31 -13 -31 14 0 16 -3 8 -11 -6 -6 -23 -9
-38 -7 l-27 3 41 46 41 47 -41 27 c-52 34 -42 46 13 15 l41 -23 19 27 c27 36
42 33 23 -5z m1043 -6 c53 -33 92 -84 92 -122 0 -14 -5 -44 -11 -66 -10 -34
-13 -37 -20 -20 -8 20 -8 20 -8 0 -1 -11 8 -28 19 -38 25 -21 25 -40 0 -96
-13 -28 -20 -65 -20 -104 0 -33 -3 -57 -7 -54 -3 4 -6 35 -5 69 2 66 -10 64
-22 -4 -6 -36 -7 -36 -39 -27 -17 5 -64 9 -103 9 -52 0 -73 4 -77 14 -4 10 4
12 38 8 64 -7 111 5 148 38 57 53 67 60 67 53 1 -22 20 26 20 50 0 40 -16 33
-39 -18 -25 -57 -33 -58 -16 -1 22 72 28 151 15 190 -23 69 -104 110 -176 88
-42 -13 -44 -7 -4 13 40 21 58 19 116 -10 52 -26 78 -59 94 -121 9 -38 9 -37
6 15 -3 47 -8 59 -37 86 -19 16 -60 39 -92 50 -50 17 -61 18 -90 6 -17 -8 -51
-16 -74 -18 -53 -6 -63 -18 -65 -79 -1 -27 -8 -58 -15 -70 -12 -18 -10 -24 8
-48 12 -15 19 -30 15 -33 -3 -4 -6 -1 -6 6 0 7 -4 9 -10 6 -21 -13 0 -125 24
-125 15 0 49 -51 58 -87 4 -14 1 -24 -10 -28 -21 -8 -32 12 -32 58 0 20 -4 37
-10 37 -8 0 -6 -57 5 -112 1 -9 -7 -25 -18 -35 -19 -16 -20 -16 -8 -1 16 21 7
132 -14 176 -16 32 -20 173 -8 256 11 68 40 101 82 93 14 -3 40 3 60 15 48 26
108 19 169 -19z m2012 17 c22 -22 25 -37 10 -60 -7 -12 -3 -16 21 -20 43 -7
31 -25 -15 -23 -30 2 -36 -1 -28 -9 41 -41 -21 -77 -64 -37 -33 31 -31 55 8
68 49 17 69 40 57 62 -13 25 -33 24 -52 -3 l-16 -23 0 22 c-1 22 22 42 47 43
6 0 21 -9 32 -20z m-3584 -6 c-3 -9 -6 -20 -6 -25 0 -6 -4 -8 -9 -5 -12 8 -2
46 11 46 6 0 7 -7 4 -16z m3782 -15 c2 -17 -3 -29 -13 -32 -13 -5 -14 -3 -5
13 7 13 7 21 0 25 -14 9 -36 -10 -43 -35 -5 -18 0 -20 49 -20 30 0 54 -3 54
-7 0 -18 -54 -73 -72 -73 -56 0 -78 81 -37 134 27 35 63 32 67 -5z m-660 5
c25 -17 28 -47 7 -84 -13 -23 -11 -27 17 -57 40 -41 28 -57 -13 -17 -19 18
-39 28 -53 26 -16 -2 -31 6 -45 24 -29 37 -27 78 5 103 32 25 52 26 82 5z
m-2517 -15 c-12 -12 -25 -18 -29 -14 -4 4 2 13 12 21 30 22 43 17 17 -7z
m2782 4 c-31 -21 -29 -43 3 -43 25 0 26 -2 21 -37 -8 -49 -40 -81 -61 -63 -9
7 -16 23 -16 36 0 23 -3 24 -70 24 -40 0 -70 4 -70 10 0 6 22 10 49 10 63 0
101 14 101 38 0 24 19 42 45 41 19 0 19 -1 -2 -16z m-1243 -13 c0 -6 -53 -10
-140 -10 -87 0 -140 4 -140 10 0 6 53 10 140 10 87 0 140 -4 140 -10z m-2907
-38 c-15 -2 -23 -10 -23 -23 0 -16 -6 -20 -27 -17 -18 2 -29 10 -31 22 -5 26
10 32 60 27 26 -3 34 -6 21 -9z m2102 -32 c-22 -23 -28 -39 -28 -74 0 -25 -4
-43 -9 -40 -30 19 13 144 49 144 13 0 11 -6 -12 -30z m1585 26 c0 -2 3 -12 7
-22 5 -14 2 -16 -16 -11 -18 4 -22 2 -19 -16 2 -12 13 -26 26 -32 32 -14 27
-22 -18 -30 -46 -8 -76 4 -41 16 17 7 20 14 15 34 -4 18 -1 32 11 45 16 18 35
26 35 16z m-145 -41 c28 -27 34 -85 12 -104 -19 -16 -72 -24 -101 -17 -38 9
-61 60 -45 97 14 36 34 48 77 49 22 0 41 -8 57 -25z m-264 -12 c6 -16 2 -29
-13 -48 l-21 -27 24 2 c45 4 70 0 64 -10 -3 -5 -23 -10 -43 -10 -36 0 -36 0
-14 -16 27 -19 28 -50 2 -64 -27 -15 -59 3 -72 40 -5 16 -18 30 -29 32 -26 4
-25 22 1 26 14 3 20 11 20 30 0 62 62 96 81 45z m-221 -22 c0 -5 -7 -12 -16
-15 -22 -9 -24 -8 -24 9 0 8 9 15 20 15 11 0 20 -4 20 -9z m-206 -43 c25 -22
31 -40 28 -85 -4 -47 -72 -50 -87 -4 -7 22 10 71 25 71 7 0 8 -6 0 -19 -16
-30 -13 -46 5 -31 12 10 19 10 28 1 9 -9 7 -13 -11 -17 -27 -8 -29 -24 -2 -24
42 0 37 83 -6 102 -36 17 -68 -15 -61 -59 7 -38 -8 -45 -17 -9 -11 44 21 95
61 96 7 0 23 -10 37 -22z m-3164 -8 c0 -19 7 -20 195 -20 123 0 195 -4 195
-10 0 -6 -72 -10 -195 -10 l-195 0 0 -26 c0 -14 -4 -23 -10 -19 -5 3 -10 15
-10 26 0 14 -7 19 -25 19 -14 0 -25 5 -25 10 0 6 11 10 25 10 18 0 25 5 25 20
0 11 5 20 10 20 6 0 10 -9 10 -20z m2931 0 c27 0 49 -4 49 -10 0 -5 -24 -10
-54 -10 -40 0 -55 -4 -60 -16 -3 -8 -10 -12 -16 -9 -6 4 -8 11 -5 16 4 5 -10
9 -29 9 -20 0 -36 4 -36 9 0 10 64 20 88 14 8 -2 36 -3 63 -3z m457 -2 c19
-19 14 -73 -7 -92 -23 -21 -72 -18 -79 4 -4 12 -2 13 9 3 19 -18 36 -16 59 7
24 24 25 43 4 64 -20 20 -35 21 -28 1 8 -20 -4 -65 -17 -65 -7 0 -8 7 -4 18
18 43 18 52 -3 52 -12 0 -26 -8 -31 -17 -9 -15 -10 -15 -11 -2 0 25 22 39 60
39 20 0 41 -5 48 -12z m-2224 -41 l-28 -24 22 -12 c12 -6 22 -16 22 -21 0 -15
-26 -12 -40 5 -10 13 -17 11 -46 -11 -18 -14 -38 -23 -44 -19 -9 6 -2 14 49
52 2 1 -4 13 -15 25 -20 23 -20 23 29 3 7 -3 24 6 37 20 15 16 27 22 33 16 6
-6 -1 -19 -19 -34z m979 9 c28 -19 44 -24 72 -19 47 7 47 -14 0 -23 -28 -5
-35 -11 -35 -29 0 -61 -44 -121 -97 -131 -70 -13 -133 41 -133 115 0 33 6 47
35 76 30 29 43 35 79 35 29 0 55 -8 79 -24z m2590 -34 l9 -52 44 0 c24 0 44
-4 44 -10 0 -5 -20 -10 -44 -10 -36 0 -45 -4 -51 -22 l-8 -23 -4 24 c-5 23 -7
23 -84 19 -43 -3 -79 -1 -79 4 0 4 6 8 14 8 8 0 38 27 67 60 30 35 59 59 68
58 11 -2 19 -21 24 -56z m-3853 8 c0 -10 -5 -22 -10 -25 -6 -3 3 -18 20 -32
35 -29 39 -64 10 -93 -24 -24 -57 -26 -88 -4 -28 19 -29 67 -3 93 17 17 18 21
5 32 -20 16 -17 35 8 53 26 18 58 5 58 -24z m530 -12 c0 -5 7 -8 15 -8 9 0 15
-10 16 -27 l1 -28 9 25 8 25 -2 -24 c-3 -34 -27 -40 -27 -7 0 32 -20 35 -21 4
-1 -22 -1 -22 -9 2 -4 14 -9 18 -9 10 -1 -13 -3 -13 -10 0 -6 8 -7 19 -4 25 4
7 2 7 -5 0 -6 -5 -12 -23 -15 -40 -3 -24 -4 -22 -6 12 -1 41 0 42 29 40 16 -1
30 -5 30 -9z m110 -11 c0 -21 5 -24 48 -26 70 -3 78 -21 9 -21 -44 0 -57 -3
-57 -15 0 -12 14 -15 65 -15 37 0 65 -4 65 -10 0 -6 -65 -10 -176 -10 -114 0
-173 3 -169 10 3 6 48 10 101 10 l94 0 0 50 c0 28 5 50 10 50 6 0 10 -10 10
-23z m2769 8 c32 -16 41 -33 41 -75 0 -42 -9 -59 -42 -76 -36 -19 -74 -11 -83
16 -3 11 -15 20 -26 20 -25 0 -24 -6 7 -35 21 -19 23 -25 10 -25 -18 0 -56 34
-56 50 0 6 -20 10 -45 10 -25 0 -45 5 -45 10 0 6 20 10 45 10 33 0 45 4 45 15
0 44 51 94 98 95 13 0 36 -7 51 -15z m156 -7 c-12 -40 -11 -43 28 -46 47 -4
49 -22 2 -22 -19 0 -35 -5 -35 -10 0 -6 -15 -3 -32 7 -22 11 -28 18 -17 20 8
2 21 19 28 38 14 38 37 49 26 13z m-4291 -23 c-6 -33 -5 -35 20 -35 14 0 26
-4 26 -10 0 -5 -11 -10 -25 -10 -27 0 -30 -4 -40 -62 -6 -38 -6 -38 30 -38 19
0 35 4 35 9 0 4 11 6 25 3 14 -2 25 -8 25 -12 0 -12 -40 -20 -106 -20 -51 0
-64 4 -84 24 -13 15 -20 32 -17 40 9 22 27 20 27 -3 0 -10 7 -24 15 -31 12
-10 16 -7 25 16 6 15 10 40 9 54 -1 14 1 32 4 40 3 8 8 27 11 43 9 41 28 34
20 -8z m2236 -19 c0 -39 -6 -31 -14 19 -5 29 -4 36 3 25 6 -8 11 -28 11 -44z
m-2162 19 c7 -14 12 -35 12 -45 0 -16 7 -20 33 -20 18 0 38 5 44 11 6 6 19 9
29 7 27 -6 -40 -36 -89 -41 -22 -2 -43 -10 -48 -18 -13 -20 -11 5 2 34 7 17 8
35 1 60 -12 42 -1 50 16 12z m1606 -22 c-2 -25 3 -33 19 -35 11 -2 22 -9 25
-16 3 -9 -3 -11 -22 -6 -24 6 -26 4 -26 -25 0 -33 8 -38 29 -18 10 10 12 8 9
-8 -2 -14 -11 -20 -28 -20 -19 0 -26 7 -34 33 -7 26 -14 32 -37 32 -16 0 -29
5 -29 10 0 6 11 10 25 10 14 0 29 8 35 20 9 17 8 20 -13 20 -36 0 -41 12 -10
26 43 19 58 13 57 -23z m2071 17 c3 -5 15 -10 26 -10 20 0 23 -10 13 -57 l-6
-30 -46 16 c-52 19 -64 42 -36 72 19 21 39 25 49 9z m-3287 -103 c2 -26 7 -45
13 -42 5 4 9 1 9 -6 0 -7 -8 -9 -21 -6 -17 5 -18 3 -8 -9 10 -12 7 -19 -11
-39 -27 -29 -42 -31 -60 -10 -17 21 -30 9 -30 -27 0 -66 65 -97 130 -63 17 9
30 11 30 6 0 -19 -45 -41 -86 -41 -69 0 -119 69 -95 133 12 31 26 34 48 12 17
-18 44 -16 51 3 2 7 -6 12 -20 12 -30 0 -38 7 -31 26 5 13 7 12 17 -1 7 -10
16 -12 25 -6 13 8 13 12 0 27 -12 16 -12 17 4 11 14 -5 17 -1 17 23 0 36 -21
40 -43 8 -13 -19 -16 -20 -16 -6 -1 24 28 50 53 46 18 -3 22 -11 24 -51z
m2440 30 c17 -13 15 -64 -3 -71 -9 -3 -15 -18 -15 -35 0 -34 -12 -45 -39 -36
-22 7 -33 29 -25 50 9 23 24 18 21 -6 -1 -12 4 -24 11 -26 23 -8 13 39 -13 59
-14 11 -25 28 -25 39 0 29 61 48 88 26z m1562 -22 c17 -20 5 -45 -20 -45 -11
0 -23 7 -26 15 -6 15 11 45 26 45 4 0 13 -7 20 -15z m-1797 -2 c4 -3 2 -12 -5
-20 -8 -10 -8 -20 2 -38 16 -29 7 -55 -19 -55 -29 0 -35 17 -16 46 9 13 13 29
10 35 -14 22 11 50 28 32z m407 -40 c30 -17 50 -51 50 -84 0 -28 -53 -79 -83
-79 -39 0 -79 37 -75 70 1 17 -5 37 -16 48 -11 13 -15 28 -11 41 5 18 15 21
57 21 29 0 62 -7 78 -17z m1615 -3 c16 -18 16 -22 3 -42 -25 -38 -66 -78 -79
-78 -7 0 -3 10 9 23 19 21 29 47 18 47 -2 0 -12 3 -22 7 -14 5 -16 3 -11 -11
6 -14 3 -16 -13 -11 -12 4 -20 2 -20 -5 0 -6 -5 -8 -11 -4 -13 8 73 94 94 94
8 0 22 -9 32 -20z m-3455 -10 c0 -5 -8 -10 -18 -10 -45 0 -59 -63 -18 -81 14
-7 37 -9 51 -5 25 6 27 10 23 52 -3 45 -3 45 27 42 19 -2 30 -9 30 -18 0 -8
-6 -14 -12 -12 -9 1 -13 -10 -13 -33 0 -24 5 -35 15 -35 8 0 15 -4 15 -10 0
-5 -7 -10 -15 -10 -11 0 -15 -12 -15 -45 0 -25 -4 -45 -10 -45 -5 0 -10 10
-10 23 0 55 -10 67 -53 67 -24 0 -48 7 -59 17 -24 21 -23 68 2 93 21 21 60 27
60 10z m891 0 c23 -13 25 -43 3 -61 -31 -26 -70 25 -44 56 15 18 16 18 41 5z
m2385 -15 c-22 -16 -106 -21 -106 -6 0 6 24 12 53 14 28 2 57 4 62 5 6 1 1 -5
-9 -13z m-1021 -5 c4 -6 11 -8 16 -5 5 4 9 -5 9 -19 0 -14 -4 -26 -10 -26 -5
0 -10 6 -10 14 0 21 -27 27 -45 10 -15 -15 -20 -78 -9 -108 9 -23 51 -20 64 5
14 25 6 49 -15 49 -8 0 -15 5 -15 10 0 13 16 13 41 0 34 -19 18 -83 -24 -99
-64 -24 -110 65 -72 139 19 37 56 53 70 30z m-2451 -43 l-1 -38 46 1 c63 2 68
1 51 -10 -8 -5 -27 -10 -42 -10 -21 0 -25 -4 -21 -21 13 -47 -47 -101 -88 -79
-28 16 -23 27 9 22 57 -8 86 65 32 78 -29 7 -39 37 -16 46 17 7 21 29 7 38 -5
3 -20 -4 -35 -15 -28 -22 -32 -19 -15 12 8 15 19 19 42 17 30 -3 32 -5 31 -41z
m1429 32 c21 -5 44 -21 54 -35 9 -14 27 -30 40 -35 13 -5 23 -13 23 -19 0 -6
-9 -6 -25 0 -13 5 -72 12 -130 16 -58 4 -105 10 -105 14 0 4 11 12 25 18 29
13 33 32 8 32 -15 0 -16 2 -3 10 20 13 66 12 113 -1z m-1704 -37 l15 -32 78 0
c45 0 78 -4 78 -10 0 -6 -33 -10 -80 -10 l-80 0 0 -41 c0 -24 -4 -38 -10 -34
-5 3 -10 18 -10 32 0 16 -7 27 -20 30 -11 3 -20 9 -20 14 0 5 9 9 20 9 24 0
26 19 5 46 -21 28 -31 7 -38 -83 -3 -41 -9 -78 -12 -81 -4 -4 -18 6 -31 21
-44 52 -23 177 27 164 11 -3 22 -1 25 4 11 19 39 4 53 -29z m2853 13 c10 -22
17 -25 62 -25 47 0 80 6 145 26 23 7 24 5 19 -27 -5 -28 -2 -37 19 -53 14 -10
35 -21 47 -25 16 -4 21 -11 17 -23 -5 -14 -14 -11 -65 23 -62 42 -82 48 -72
23 3 -9 6 -29 6 -45 0 -27 3 -29 35 -29 19 0 35 -4 35 -10 0 -6 -33 -10 -80
-10 -44 0 -80 3 -80 7 0 3 11 21 25 39 14 18 28 47 32 65 l6 31 -39 -6 c-21
-3 -59 -7 -84 -8 -42 -2 -45 -1 -45 22 0 28 -32 41 -46 18 -7 -10 -9 -10 -9 3
0 38 55 41 72 4z m-1316 -4 c-10 -11 -15 -24 -12 -30 4 -6 -5 -13 -21 -17 -15
-3 -34 -7 -40 -10 -21 -6 -15 12 16 45 16 17 39 31 52 31 21 0 21 -1 5 -19z
m-336 -1 c0 -5 -4 -10 -10 -10 -24 0 -7 -29 20 -35 37 -8 30 -25 -11 -25 -19
0 -29 -5 -29 -15 0 -8 -4 -15 -10 -15 -5 0 -10 7 -10 15 0 17 -32 19 -65 5
-16 -7 -17 -9 -3 -9 28 -1 31 -21 3 -21 -25 0 -45 24 -31 37 3 4 25 9 49 12
36 5 42 10 45 33 3 23 13 32 45 37 4 0 7 -3 7 -9z m1321 -21 c18 -26 20 -35
10 -55 -9 -21 -17 -25 -44 -22 -27 2 -33 8 -35 31 -2 15 -9 27 -18 27 -8 0
-14 5 -14 10 0 6 7 10 15 10 8 0 15 7 15 15 0 28 47 17 71 -16z m-1677 -21
l-1 -38 53 0 c30 0 54 -4 54 -10 0 -5 -15 -10 -33 -10 -19 0 -68 -3 -110 -6
-55 -5 -77 -4 -77 5 0 6 15 11 33 11 38 0 50 7 66 37 14 27 1 38 -35 29 -13
-4 -24 -2 -24 3 0 13 20 20 50 18 22 -2 25 -6 24 -39z m-1369 12 c4 -6 -21
-10 -69 -10 -57 0 -84 -5 -112 -20 -30 -17 -39 -19 -52 -8 -13 11 -11 14 19
19 19 4 -35 7 -118 8 -95 0 -153 5 -153 11 0 6 86 10 239 10 149 0 242 -4 246
-10z m4015 -26 c0 -22 2 -23 21 -14 11 6 28 9 37 7 13 -3 11 -7 -10 -17 -16
-7 -28 -20 -28 -27 0 -8 -4 -11 -10 -8 -14 9 -12 -29 3 -44 10 -10 7 -12 -13
-9 -23 3 -25 8 -28 62 -2 32 -1 65 2 73 9 21 26 6 26 -23z m-2060 -2 c0 -4
-42 -32 -93 -61 -51 -29 -110 -67 -132 -85 l-38 -32 21 -30 c17 -22 23 -49 27
-109 6 -91 -5 -78 -25 27 -27 147 -58 90 -90 -166 -12 -89 -29 -213 -39 -276
-19 -113 -19 -114 -20 -50 -1 70 42 416 60 484 32 121 55 146 225 250 91 56
104 62 104 48z m1984 -8 c9 -3 16 -14 16 -24 0 -24 -26 -44 -47 -35 -10 4 -57
6 -105 5 -56 -1 -88 3 -88 9 0 7 31 11 84 11 75 0 84 2 89 20 5 20 22 25 51
14z m-3592 -26 c-6 -6 -19 -7 -29 -3 -17 7 -17 8 2 15 24 9 41 2 27 -12z
m2622 7 c3 -8 1 -15 -4 -15 -6 0 -10 7 -10 15 0 8 2 15 4 15 2 0 6 -7 10 -15z
m-2232 -11 c-23 -16 -52 -13 -52 6 0 5 17 10 37 10 37 0 37 0 15 -16z m2858
-24 c0 -5 -7 -10 -15 -10 -8 0 -15 5 -15 10 0 6 7 10 15 10 8 0 15 -4 15 -10z
m735 -30 c-3 -5 -23 -10 -43 -10 -28 0 -33 3 -22 10 20 13 73 13 65 0z m-4249
-25 c3 -7 -6 -29 -20 -48 l-27 -35 144 -7 c79 -4 150 -11 158 -17 9 -6 -27 -8
-110 -4 -68 3 -157 6 -198 6 -42 0 -73 4 -73 10 0 6 15 10 34 10 47 0 58 31
24 67 l-23 26 27 -7 c15 -3 30 -2 33 4 9 15 25 12 31 -5z m2596 -24 c-1 -13 4
-29 11 -35 7 -6 10 -10 8 -9 -2 2 -10 -2 -18 -8 -28 -23 -72 49 -46 75 4 4 16
6 28 4 15 -2 19 -9 17 -27z m143 19 c10 -15 -28 -74 -50 -79 -37 -7 -51 40
-22 77 11 15 63 16 72 2z m-907 -57 c2 -38 -5 -71 -27 -130 -17 -43 -49 -132
-72 -198 l-42 -120 -6 -195 -6 -195 -8 190 c-4 105 -15 232 -23 284 -16 105
-12 134 6 44 27 -128 25 -125 43 -65 9 29 19 80 22 115 7 64 60 278 77 310 16
31 33 13 36 -40z m-1358 27 c0 -5 -13 -10 -30 -10 -24 0 -30 -4 -30 -22 0 -30
40 -48 106 -48 29 0 56 -4 59 -10 4 -6 -13 -10 -44 -10 -44 0 -51 -3 -51 -20
0 -18 7 -20 60 -20 59 0 60 1 74 35 16 37 26 41 57 25 21 -12 25 -41 9 -69 -8
-16 -20 -17 -110 -13 -86 4 -100 2 -100 -11 0 -24 -58 -67 -91 -67 -43 0 -35
15 12 26 25 5 48 18 57 32 14 22 14 22 -35 22 -37 0 -55 5 -68 20 -17 18 -17
21 -1 45 10 14 24 29 32 32 8 3 14 15 14 27 0 12 5 27 12 34 14 14 68 16 68 2z
m1271 -74 c-12 -42 -21 -86 -22 -99 -1 -13 -5 -6 -10 18 -5 21 -7 45 -4 53 6
17 -19 55 -30 44 -4 -4 -6 0 -3 8 4 15 79 62 86 55 2 -2 -6 -38 -17 -79z
m-2022 64 c29 -15 45 -64 31 -92 -22 -41 -43 -58 -72 -58 -66 0 -104 94 -58
140 21 21 69 26 99 10z m1287 -46 c-6 -20 -3 -24 18 -24 14 0 28 -4 31 -10 3
-6 -5 -10 -19 -10 -23 0 -25 -3 -23 -37 l2 -38 -61 -3 -62 -3 -7 65 c-5 50
-10 64 -21 59 -8 -3 -14 0 -14 6 0 6 6 11 14 11 8 0 17 6 20 13 5 10 7 10 12
0 3 -7 23 -13 44 -13 31 0 40 4 46 22 6 19 7 20 16 4 5 -10 7 -28 4 -42z m324
47 c0 -5 -7 -14 -15 -21 -22 -19 -18 -27 18 -36 l32 -8 -32 -3 c-20 -3 -33
-10 -33 -19 0 -8 -4 -14 -10 -14 -5 0 -10 7 -10 15 0 8 -4 15 -9 15 -5 0 -14
-7 -21 -15 -7 -8 -17 -15 -22 -15 -6 0 -5 6 2 15 12 15 5 55 -11 55 -5 0 -9
-4 -9 -10 0 -5 5 -10 10 -10 6 0 5 -8 -2 -20 -20 -31 -53 -22 -53 14 0 24 6
31 29 39 25 8 32 7 47 -12 19 -23 39 -28 39 -9 0 14 30 48 42 48 4 0 8 -4 8
-9z m124 -7 c25 -10 21 -70 -6 -88 -30 -21 -35 -20 -53 8 -14 20 -14 29 -4 48
19 35 34 43 63 32z m1432 -28 c-3 -13 -9 -31 -12 -39 -3 -10 3 -20 15 -27 12
-6 21 -15 21 -21 0 -6 -7 -6 -19 1 -27 14 -26 15 -45 -35 -22 -56 -40 -50 -20
7 8 23 13 42 12 43 -2 1 -14 8 -27 15 -21 11 -23 10 -18 -4 7 -18 -1 -20 -23
-6 -12 7 -12 12 4 29 17 18 21 19 39 6 30 -21 34 -19 47 20 13 39 36 49 26 11z
m-3047 5 c11 -1 10 -5 -5 -16 -19 -14 -18 -14 4 -15 12 0 22 -4 22 -10 0 -11
-63 -14 -73 -3 -4 3 -2 12 4 20 9 10 8 13 -5 13 -9 0 -16 4 -16 9 0 5 12 8 28
6 15 -2 33 -4 41 -4z m4031 4 c0 -2 -18 -30 -40 -61 -53 -76 -52 -84 13 -84
37 0 48 -3 37 -10 -8 -5 -32 -10 -52 -10 -34 0 -38 -3 -38 -26 0 -21 -4 -25
-22 -22 -13 2 -27 13 -33 26 -6 14 -18 22 -33 22 -13 0 -20 4 -17 10 3 6 19
10 36 10 16 0 29 3 29 6 0 3 -16 29 -35 58 -40 60 -41 66 -19 66 8 0 13 -4 10
-8 -2 -4 -1 -14 4 -22 7 -11 10 -8 15 13 6 24 11 26 68 30 34 2 65 4 70 5 4 1
7 0 7 -3z m578 -17 c-42 -65 -42 -66 -30 -93 7 -14 12 -30 12 -35 0 -18 -17
-10 -27 13 -10 20 -11 19 -23 -23 -14 -48 -30 -74 -30 -49 0 9 7 38 15 65 l14
49 -31 32 c-40 41 -28 56 13 17 20 -18 33 -25 36 -17 8 21 44 63 55 63 6 0 4
-10 -4 -22z m-1347 2 c29 -16 23 -28 -13 -26 -23 1 -33 -3 -33 -14 0 -20 40
-27 153 -29 54 -1 92 -5 92 -11 0 -6 -36 -10 -87 -10 l-88 0 0 -37 c0 -42 1
-41 -82 -27 -62 10 -53 25 10 18 52 -6 54 -5 52 17 -1 17 -10 25 -33 31 -43
11 -55 53 -22 80 26 21 26 21 51 8z m999 -20 c-14 -26 -9 -82 7 -87 8 -3 13
13 15 49 3 52 4 53 35 56 24 2 34 -2 43 -18 16 -30 6 -50 -25 -50 -19 0 -25
-5 -25 -21 0 -12 4 -18 11 -13 7 4 10 1 7 -7 -7 -21 -57 -23 -79 -3 -23 21
-25 71 -3 102 19 28 30 22 14 -8z m-141 -82 c1 -39 -16 -88 -31 -88 -5 0 -6
10 -1 23 4 12 8 49 9 82 0 33 2 65 3 70 5 15 18 -45 20 -87z m-2622 56 c-3 -3
-12 -4 -19 -1 -8 3 -5 6 6 6 11 1 17 -2 13 -5z m482 -155 c-23 -85 -54 -203
-69 -264 -16 -60 -29 -105 -29 -99 -4 62 118 538 134 522 2 -2 -14 -74 -36
-159z m885 116 c-4 -8 -1 -15 5 -15 6 0 11 -4 11 -10 0 -5 -5 -10 -11 -10 -7
0 -18 -8 -25 -17 -12 -17 -13 -17 -14 -1 0 11 -10 18 -27 20 -40 5 -38 24 3
25 20 1 41 6 47 12 15 15 17 14 11 -4z m756 9 c0 -3 -5 -14 -10 -25 -7 -13 -7
-19 0 -19 5 0 10 7 10 15 0 8 4 15 8 15 13 0 52 -39 53 -53 1 -7 2 -19 3 -27
0 -9 13 -16 34 -18 38 -4 43 -22 6 -22 -16 0 -34 -10 -46 -25 -26 -34 -86 -35
-124 -2 -39 34 -24 47 53 47 l65 0 -15 23 c-11 17 -24 22 -56 22 -47 0 -50 6
-18 45 20 27 37 38 37 24z m868 -5 c-5 -16 -110 -17 -115 -1 -4 9 12 12 57 12
41 0 60 -4 58 -11z m-3548 -5 c0 -3 -10 -14 -22 -25 l-23 -18 32 -1 c53 0 46
-17 -10 -24 -73 -8 -97 -8 -97 4 0 6 16 10 35 10 27 0 35 4 35 18 0 10 5 23
12 30 12 12 38 17 38 6z m90 -44 c0 -5 -7 -10 -15 -10 -8 0 -15 5 -15 10 0 6
7 10 15 10 8 0 15 -4 15 -10z m-760 -20 c0 -5 -13 -10 -30 -10 -30 0 -30 0
-30 -60 l0 -59 142 -3 c83 -2 143 -7 145 -13 4 -13 -468 -7 -481 6 -6 5 25 9
82 9 l92 0 0 55 c0 54 0 55 -30 55 -38 0 -39 17 -2 23 55 8 112 7 112 -3z
m1185 0 c-3 -5 -21 -10 -39 -10 -38 0 -83 -31 -72 -48 5 -8 54 -12 157 -12 93
0 149 -4 149 -10 0 -6 -60 -10 -159 -10 -138 0 -160 2 -165 16 -10 26 3 53 32
69 31 16 107 20 97 5z m2025 -50 c0 -38 -12 -52 -25 -30 -4 6 -66 10 -152 10
-81 0 -144 2 -141 5 8 8 67 13 186 14 105 1 112 2 112 21 0 11 5 20 10 20 6 0
10 -18 10 -40z m-452 -38 c4 -29 -35 -92 -58 -92 -25 0 -43 26 -37 53 15 59
88 90 95 39z m1622 -2 c4 -26 0 -40 -10 -40 -5 0 -10 7 -10 15 0 13 -53 15
-412 16 -227 1 -402 5 -388 9 14 4 194 9 400 9 215 1 381 5 390 11 16 10 27 3
30 -20z m-4038 3 c26 -23 22 -47 -14 -89 l-32 -36 35 3 c19 2 36 0 39 -6 3 -6
-17 -11 -47 -13 -63 -4 -68 9 -24 52 35 34 44 61 25 77 -11 9 -19 8 -34 -6
-19 -17 -20 -17 -20 3 0 33 42 42 72 15z m-717 -3 c3 -5 12 -7 20 -3 12 4 15
-5 15 -41 0 -83 -74 -127 -119 -70 -11 14 -21 29 -23 33 -2 5 -31 10 -65 13
-50 3 -63 1 -63 -10 0 -12 -3 -12 -22 0 -31 21 -32 33 -3 46 23 11 26 10 21
-5 -5 -16 1 -18 69 -15 41 2 75 8 75 13 0 32 79 65 95 39z m1265 1 c0 -4 12
-6 28 -4 26 4 26 4 8 -11 -10 -8 -23 -13 -27 -10 -5 3 -9 -7 -9 -22 0 -24 3
-26 30 -22 24 4 27 2 19 -9 -17 -19 -47 -16 -59 6 -13 25 -13 81 0 81 6 0 10
-4 10 -9z m-420 -26 c20 -24 3 -57 -28 -53 -33 4 -42 36 -16 55 23 17 29 16
44 -2z m355 -15 c0 -20 -5 -25 -24 -25 -31 0 -52 31 -31 45 27 18 55 7 55 -20z
m505 20 c10 -6 -38 -10 -145 -10 -88 0 -177 -4 -197 -9 -26 -6 -37 -5 -35 3 1
6 27 14 57 17 94 10 304 9 320 -1z m57 -12 c-3 -8 -6 -5 -6 6 -1 11 2 17 5 13
3 -3 4 -12 1 -19z m1165 -71 c-9 -18 -11 -14 -11 28 1 46 1 48 11 22 7 -20 7
-35 0 -50z m-2832 53 c0 -5 -11 -10 -25 -10 -14 0 -25 5 -25 10 0 6 11 10 25
10 14 0 25 -4 25 -10z m960 -21 c0 -13 7 -19 23 -20 20 -1 20 -2 2 -6 -11 -3
-26 -10 -32 -15 -9 -7 -13 -7 -13 1 0 7 -25 11 -69 11 -39 0 -73 5 -76 10 -4
6 22 10 69 10 70 0 76 2 76 21 0 11 5 17 10 14 6 -3 10 -15 10 -26z m2298 15
c25 -18 29 -50 7 -74 -14 -15 -12 -16 14 -12 16 2 32 -1 35 -7 5 -7 -2 -11
-18 -11 -21 0 -25 -5 -28 -37 -3 -33 -6 -38 -28 -38 -22 0 -25 5 -28 42 -2 23
-10 47 -18 53 -20 18 -18 77 4 89 24 14 34 13 60 -5z m1308 -44 c23 0 38 -7
48 -22 33 -47 9 -128 -37 -128 -35 0 -44 12 -52 68 -7 50 -9 53 -31 48 -15 -4
-24 -2 -24 5 0 6 9 13 21 16 14 4 20 13 19 32 -3 43 1 48 12 14 9 -28 15 -33
44 -33z m-331 -32 c7 -70 25 -94 25 -33 0 25 6 37 22 46 18 10 24 8 40 -11 37
-46 10 -96 -47 -86 -30 6 -33 4 -40 -26 l-8 -33 -6 30 c-5 25 -12 31 -38 33
-49 5 -56 22 -27 65 13 20 29 37 34 37 15 0 12 -16 -5 -30 -22 -18 -19 -50 5
-50 13 0 20 7 20 20 0 11 -5 20 -12 20 -9 0 -9 3 0 12 7 7 12 22 12 34 0 25
12 63 16 48 1 -5 5 -39 9 -76z m-325 -38 c0 -60 -4 -100 -10 -100 -6 0 -10 35
-10 84 0 46 -3 91 -6 100 -4 11 -1 16 10 16 14 0 16 -15 16 -100z m60 -4 c0
-52 -4 -97 -9 -100 -9 -6 -21 171 -14 187 3 4 8 7 14 7 5 0 9 -42 9 -94z m110
14 c0 -38 -4 -72 -10 -75 -6 -4 -10 23 -10 75 0 52 4 79 10 75 6 -3 10 -37 10
-75z m-2630 56 c0 -17 -24 -38 -33 -29 -15 15 -6 43 13 43 11 0 20 -6 20 -14z
m2078 2 c17 -17 15 -49 -4 -76 -15 -21 -14 -22 15 -22 59 0 30 -18 -34 -22
-47 -2 -65 0 -65 10 0 6 8 12 17 12 23 0 63 39 63 61 0 27 -18 33 -46 14 -33
-21 -40 -15 -14 13 23 24 50 28 68 10z m110 -4 c40 -27 23 -104 -23 -104 -14
0 -25 5 -25 11 0 6 6 9 14 6 8 -3 20 1 26 8 10 12 9 16 -5 21 -17 7 -17 8 0
20 23 17 9 37 -21 30 -25 -7 -34 8 -11 17 19 8 21 8 45 -9z m772 -14 c6 -10 7
-26 4 -34 -9 -22 -51 -20 -64 3 -13 25 -13 27 5 45 18 18 41 11 55 -14z
m-4052 -9 c2 -13 -2 -28 -10 -32 -18 -12 -28 -11 -28 1 0 6 7 10 15 10 8 0 15
7 15 16 0 19 -29 15 -43 -7 -6 -9 -8 -23 -4 -32 5 -12 13 -13 44 -7 20 5 39 7
41 5 9 -8 -10 -25 -29 -25 -19 0 -19 -1 -3 -25 24 -36 6 -75 -33 -75 l-28 1
28 15 c41 22 34 54 -16 73 -21 8 -27 17 -27 41 0 58 71 95 78 41z m882 -37 c0
-3 -4 -13 -9 -22 -8 -15 -1 -17 82 -14 51 2 96 8 102 13 12 12 55 12 55 -1 0
-6 -7 -10 -16 -8 -10 2 -19 -3 -21 -9 -3 -9 5 -13 23 -13 22 0 25 -3 16 -12
-9 -9 -19 -9 -45 0 -18 7 -70 12 -115 12 l-82 0 0 -39 c0 -22 -4 -42 -9 -45
-17 -11 -41 6 -47 33 -3 14 -9 34 -15 44 -6 11 -6 17 1 17 5 0 10 6 10 13 0 7
7 23 16 35 12 18 19 20 35 12 10 -6 19 -13 19 -16z m2114 -32 c-9 -34 -22 -26
-21 13 1 29 3 33 14 23 7 -7 10 -23 7 -36z m-398 11 c0 -13 -4 -23 -8 -23 -3
0 -14 -3 -24 -7 -13 -5 -15 -3 -8 8 4 8 7 21 6 29 -2 10 5 16 17 16 13 0 18
-7 17 -23z m854 18 c0 -10 -120 -20 -126 -10 -8 13 12 19 68 19 32 0 58 -4 58
-9z m-3090 -16 c15 -18 6 -78 -16 -95 -21 -18 -30 -3 -11 18 23 25 22 28 -10
27 -33 0 -42 25 -18 49 20 20 39 20 55 1z m2290 3 c0 -9 3 -8 10 2 12 19 21 9
14 -17 -3 -12 -17 -24 -31 -28 -31 -7 -44 3 -21 16 10 5 15 16 12 24 -4 8 -1
15 5 15 6 0 11 -6 11 -12z m146 -15 c-10 -10 -19 5 -10 18 6 11 8 11 12 0 2
-7 1 -15 -2 -18z m-3071 -23 c9 -29 -5 -50 -35 -50 -36 0 -50 33 -25 60 19 21
52 16 60 -10z m148 -10 c8 0 8 -3 -1 -12 -7 -7 -12 -23 -12 -36 0 -13 -4 -20
-10 -17 -5 3 -10 15 -10 25 0 13 -9 22 -25 26 -21 5 -23 9 -14 20 8 10 15 11
24 4 9 -8 15 -4 20 12 l8 23 4 -22 c2 -13 9 -23 16 -23z m737 16 c0 -8 9 -18
20 -21 30 -9 27 -60 -4 -80 -29 -19 -61 -8 -71 26 -7 21 4 43 12 23 2 -6 10
-20 17 -30 12 -15 16 -16 30 -5 18 15 22 51 6 51 -5 0 -10 -4 -10 -10 0 -5 -4
-10 -10 -10 -5 0 -10 16 -10 35 0 19 5 35 10 35 6 0 10 -6 10 -14z m-1099 -6
c31 -17 18 -101 -18 -114 -20 -8 -50 10 -58 34 -6 18 -15 20 -100 20 -52 0
-97 4 -100 10 -4 6 29 10 91 10 90 0 98 2 120 25 25 28 36 30 65 15z m129 -20
c0 -16 -4 -30 -10 -30 -5 0 -10 9 -10 20 0 11 -6 20 -12 21 -10 0 11 13 30 18
1 1 2 -12 2 -29z m634 -18 c2 -4 0 -14 -5 -22 -8 -13 -10 -13 -18 0 -10 15 -6
30 9 30 5 0 11 -4 14 -8z m-44 -17 c0 -8 -4 -15 -10 -15 -5 0 -10 7 -10 15 0
8 5 15 10 15 6 0 10 -7 10 -15z m2358 -85 c16 -1 16 -2 0 -14 -10 -7 -18 -18
-18 -25 0 -21 -15 -11 -28 18 -12 26 -11 32 5 48 17 18 18 18 21 -4 2 -13 10
-23 20 -23z m629 21 c17 17 37 -16 23 -40 -8 -16 -8 -21 2 -21 20 0 35 13 41
35 4 18 5 18 6 -2 1 -20 6 -23 46 -23 37 0 45 3 45 18 0 10 -5 23 -12 30 -6 6
-8 15 -3 19 4 5 10 2 12 -4 3 -7 15 -13 28 -13 13 0 27 -4 30 -10 4 -6 -5 -10
-19 -10 -16 0 -26 -6 -26 -15 0 -8 9 -15 20 -15 11 0 20 -4 20 -10 0 -11 -187
-14 -239 -4 -30 6 -31 7 -16 30 9 14 11 25 5 29 -6 4 -7 11 -4 17 5 7 11 6 19
-5 8 -11 15 -13 22 -6z m-3433 -13 c8 -13 8 -23 -2 -39 -11 -18 -10 -23 13
-41 30 -23 27 -35 -4 -18 -12 6 -21 7 -21 1 0 -5 -16 -11 -35 -13 -19 -2 -35
-1 -35 2 0 12 41 30 53 23 7 -4 -3 10 -20 30 -38 43 -40 52 -15 66 24 15 53 9
66 -11z m1616 -37 c11 -29 19 -56 16 -58 -6 -6 -46 85 -46 105 0 23 6 13 30
-47z m-1140 -2 c-10 -19 -10 -24 4 -34 22 -17 20 -28 -4 -20 -12 4 -28 1 -36
-6 -21 -17 -28 -5 -12 20 11 18 11 23 -2 31 -8 5 -11 12 -7 16 3 4 12 2 20 -4
10 -8 16 -6 26 9 17 28 26 17 11 -12z m120 11 c0 -25 16 -26 29 -3 13 25 22
12 24 -35 1 -47 -13 -68 -54 -77 -48 -11 -71 17 -63 74 8 58 10 61 40 61 17 0
24 -5 24 -20z m568 1 c3 -8 0 -11 -7 -7 -17 11 -71 -3 -71 -18 0 -7 8 -20 19
-30 17 -16 19 -15 34 6 12 18 16 19 16 7 1 -27 -24 -41 -61 -34 -31 6 -33 9
-32 43 1 34 4 38 35 43 46 9 62 6 67 -10z m112 -23 c0 -21 -4 -38 -10 -38 -5
0 -10 6 -10 13 0 6 -5 4 -11 -5 -12 -22 -39 -24 -39 -3 0 9 6 12 15 9 20 -8
19 6 -2 21 -24 18 -10 42 26 42 29 0 31 -2 31 -39z m65 27 c-32 -14 -41 -13
-30 4 3 6 18 11 33 10 l27 -1 -30 -13z m1945 -15 c-20 -13 -180 -13 -180 0 0
6 39 10 98 10 66 0 92 -3 82 -10z m-2423 -30 c-5 -19 0 -20 69 -20 43 0 74 -4
74 -10 0 -6 -53 -10 -140 -10 -87 0 -140 4 -140 10 0 6 24 10 54 10 46 0 56 3
61 20 3 11 11 20 17 20 6 0 8 -9 5 -20z m-482 -25 c0 -25 -4 -30 -25 -30 -19
0 -26 6 -28 24 -4 25 13 43 38 38 9 -1 15 -13 15 -32z m965 20 c18 -21 5 -47
-22 -43 -26 3 -37 36 -16 49 18 12 24 11 38 -6z m2635 5 c-47 -12 -195 -20
-195 -10 0 13 34 17 135 18 63 0 81 -2 60 -8z m-3767 -27 c-3 -31 -34 -44 -44
-19 -7 19 12 46 33 46 10 0 13 -9 11 -27z m1197 7 c4 -6 -5 -10 -20 -10 -15 0
-24 4 -20 10 3 6 12 10 20 10 8 0 17 -4 20 -10z m-1322 -22 c-13 -12 -26 -19
-29 -15 -4 4 1 14 12 22 29 22 41 18 17 -7z m1827 -134 c0 -8 -5 -12 -10 -9
-6 4 -8 11 -5 16 9 14 15 11 15 -7z m-214 -119 c-12 -30 -16 -59 -12 -88 l6
-42 -15 39 c-14 37 -14 43 7 93 26 64 38 62 14 -2z m1618 -75 c26 -9 -214 -20
-431 -20 -106 0 -173 4 -173 10 0 6 87 11 228 13 342 4 355 4 376 -3z m1116 1
c14 -4 -69 -10 -185 -14 -115 -4 -265 -10 -332 -13 -82 -5 -123 -4 -123 3 0
19 582 40 640 24z m-3070 -11 c0 -12 -486 -12 -515 0 -12 5 89 9 248 9 172 1
267 -3 267 -9z m-796 -37 c378 -12 177 -20 -384 -14 -311 3 -542 8 -515 12 71
8 664 10 899 2z m-889 -42 c3 -6 -45 -11 -120 -13 -69 -2 -125 0 -125 4 0 4
39 9 88 11 48 1 101 4 119 5 17 1 34 -2 38 -7z m2115 -22 c30 -6 111 -14 180
-17 l125 -7 -1 -130 c0 -76 -6 -142 -13 -159 -15 -38 -23 -29 -11 13 5 19 12
84 16 146 l7 113 -104 6 c-127 8 -289 35 -289 48 0 5 8 7 18 4 9 -3 42 -11 72
-17z m637 -16 c-3 -10 -5 -4 -5 12 0 17 2 24 5 18 2 -7 2 -21 0 -30z m-37 8
c0 -10 -19 -15 -120 -31 -148 -23 -147 -6 2 20 127 23 118 22 118 11z m1105 0
c-11 -9 -365 -35 -373 -26 -11 11 6 14 128 23 171 12 256 14 245 3z m-2115
-10 c0 -8 -83 -14 -397 -27 -112 -5 -153 -4 -153 5 0 7 27 11 78 12 42 1 140
5 217 8 217 11 255 12 255 2z m-882 -8 c229 -12 122 -18 -250 -15 -205 2 -431
-1 -503 -6 -71 -5 -134 -6 -139 -2 -4 5 32 11 80 15 49 3 100 7 114 9 51 6
581 6 698 -1z m2402 -43 c0 -5 -22 -10 -48 -10 -27 0 -90 -3 -140 -6 -65 -5
-92 -4 -92 4 0 11 47 15 213 20 39 1 67 -2 67 -8z m904 -18 c3 -5 -45 -12
-107 -15 -153 -9 -422 -9 -413 1 4 4 107 10 229 13 122 3 236 6 254 7 17 1 34
-2 37 -6z m-1459 -21 c-36 -15 -115 -23 -115 -12 0 9 39 16 105 19 24 1 26 -1
10 -7z m-2040 -12 c193 -6 364 -15 380 -20 19 -6 -35 -7 -150 -3 -99 3 -364 7
-590 10 -465 5 -443 4 -390 14 64 11 371 11 750 -1z m935 -19 c10 -7 -30 -10
-121 -10 -75 0 -157 -3 -183 -6 -30 -5 -46 -3 -46 4 0 18 324 29 350 12z
m1136 -15 c-23 -17 -92 -20 -101 -5 -4 7 2 9 17 5 12 -3 37 -1 53 4 44 14 53
12 31 -4z m1208 -24 c6 -9 -88 -17 -314 -27 -90 -4 -152 -3 -147 2 7 7 181 21
424 32 17 1 34 -2 37 -7z m-3186 -8 c100 -3 182 -9 182 -12 0 -3 -261 -7 -581
-8 -594 -1 -759 8 -326 18 395 9 534 9 725 2z m804 -23 c133 0 177 -3 172 -12
-10 -16 -512 -4 -528 13 -8 9 11 10 83 5 52 -3 175 -6 273 -6z m347 -1 c-25
-9 -27 -16 -34 -86 -4 -44 -11 -71 -16 -66 -5 5 -5 38 -1 76 5 43 5 70 -2 77
-7 7 4 10 35 9 40 -1 42 -1 18 -10z m789 -6 c-21 -2 -55 -2 -75 0 -21 2 -4 4
37 4 41 0 58 -2 38 -4z m1047 -43 c13 -6 -17 -9 -85 -9 -58 -1 -135 -4 -172
-8 -47 -4 -68 -2 -68 5 0 8 41 12 123 15 67 1 136 3 152 4 17 1 39 -2 50 -7z
m-2891 -18 c3 -5 -147 -12 -332 -15 -485 -10 -722 -9 -722 3 0 6 141 11 388
13 213 1 449 3 524 5 75 1 139 -2 142 -6z m3766 -1 c0 -11 -141 -20 -459 -28
-168 -4 -272 -3 -268 3 3 5 79 11 169 13 134 3 347 11 526 19 17 1 32 -2 32
-7z m-1915 -61 c-6 -9 -126 -50 -148 -50 -20 0 2 12 65 36 69 25 92 29 83 14z
m595 -9 c0 -17 -314 -29 -325 -11 -3 6 38 11 107 13 62 1 137 4 166 5 28 1 52
-2 52 -7z m-2330 -9 c0 -5 -78 -12 -172 -15 -95 -4 -247 -16 -338 -27 -192
-23 -180 -22 -180 -12 0 8 184 34 370 51 117 11 320 13 320 3z m1610 3 c0 -7
-36 -21 -80 -30 -44 -9 -34 2 17 20 40 15 63 18 63 10z m-2312 -11 c-8 -7
-471 -54 -477 -48 -10 10 15 15 185 32 185 20 302 26 292 16z m3437 -14 c-19
-8 -530 -31 -682 -30 -42 0 -73 4 -73 10 0 6 55 10 143 11 78 1 207 5 287 9
214 10 348 10 325 0z m1110 0 c-4 -6 -126 -9 -338 -9 -183 1 -314 5 -292 9 65
12 637 12 630 0z m-2056 -36 c-26 -29 -80 -58 -178 -98 -100 -40 -84 -23 31
33 56 28 117 62 133 75 38 30 46 24 14 -10z m-581 -38 c28 -22 50 -42 47 -44
-6 -6 -125 79 -125 90 0 11 10 5 78 -46z m-1398 25 c0 -5 -42 -12 -92 -16 -51
-3 -156 -13 -233 -21 -165 -17 -182 -17 -169 -5 5 5 86 16 179 25 295 28 315
29 315 17z m925 -21 c4 -7 -127 -10 -384 -10 -254 0 -391 4 -391 10 0 6 135
10 384 10 246 0 387 -4 391 -10z m646 -140 c-13 -73 -19 -93 -20 -64 -1 39 14
139 26 179 15 47 12 -16 -6 -115z m1449 122 c0 -5 -102 -12 -227 -15 -126 -4
-289 -9 -363 -12 -92 -4 -127 -2 -110 4 49 19 700 40 700 23z m-2406 -31 c4
-5 -115 -11 -282 -13 -279 -4 -374 1 -242 13 109 9 518 10 524 0z m-1114 -10
c0 -5 -39 -12 -87 -15 -49 -4 -138 -11 -199 -16 -137 -12 -144 -12 -144 0 0 5
3 9 8 8 4 -1 72 4 152 10 80 7 168 14 195 15 28 2 56 4 63 5 6 1 12 -2 12 -7z
m3665 -21 c-4 -6 -73 -10 -173 -10 -92 0 -295 -5 -452 -10 -184 -6 -288 -6
-294 0 -7 7 13 10 55 11 35 1 147 5 249 8 306 12 622 12 615 1z m-2271 -18 c3
-5 -155 -12 -352 -15 -196 -4 -413 -10 -482 -13 -92 -5 -122 -4 -115 5 19 20
937 42 949 23z m761 -121 l5 -36 -14 40 c-7 22 -16 58 -19 80 l-6 40 14 -44
c8 -25 17 -61 20 -80z m1232 75 c3 -3 4 -7 2 -9 -12 -9 -689 6 -689 16 0 11
676 5 687 -7z m-3337 -6 c0 -6 -60 -9 -162 -8 -107 1 -146 3 -113 8 82 11 275
11 275 0z m140 -30 c0 -5 -12 -10 -27 -10 -51 0 -427 -19 -508 -26 -56 -4 -77
-3 -70 5 6 5 97 15 210 21 110 6 225 12 255 13 123 7 140 7 140 -3z m1139 -10
c57 0 102 -3 99 -6 -3 -3 -127 -5 -274 -5 -148 1 -381 -3 -519 -8 -137 -5
-252 -8 -254 -5 -2 2 -2 7 2 10 9 9 514 23 687 18 85 -2 202 -4 259 -4z"/>
<path d="M277 4804 c-4 -4 -7 -16 -7 -26 0 -14 6 -19 23 -16 14 2 22 10 22 23
0 20 -25 32 -38 19z"/>
<path d="M83 4670 c-24 -10 -30 -25 -13 -35 6 -4 8 -10 5 -15 -6 -10 25 -23
34 -14 3 4 0 9 -6 11 -10 4 -9 8 2 20 16 15 21 43 8 42 -5 0 -18 -4 -30 -9z"/>
<path d="M4630 4920 c10 -6 11 -10 3 -10 -18 0 -16 -20 3 -27 24 -9 36 18 16
34 -9 7 -21 12 -27 13 -5 0 -3 -5 5 -10z"/>
<path d="M4627 4854 c-16 -16 -6 -35 16 -32 12 2 22 10 22 18 0 16 -26 25 -38
14z"/>
<path d="M4397 4673 c-13 -12 -7 -23 13 -23 11 0 20 7 20 15 0 15 -21 21 -33
8z"/>
<path d="M1144 4849 c-8 -14 11 -33 25 -25 6 4 11 14 11 22 0 16 -26 19 -36 3z"/>
<path d="M1687 4853 c-12 -11 -8 -23 8 -23 8 0 15 7 15 15 0 16 -12 20 -23 8z"/>
<path d="M2672 4775 c-15 -33 -15 -35 3 -35 10 0 15 10 15 30 0 37 -3 37 -18
5z"/>
<path d="M2136 4815 c-21 -21 -21 -54 0 -62 26 -10 49 11 49 43 0 34 -24 43
-49 19z"/>
<path d="M3080 4805 c0 -8 5 -15 10 -15 6 0 10 7 10 15 0 8 -4 15 -10 15 -5 0
-10 -7 -10 -15z"/>
<path d="M2940 4775 c-10 -13 -9 -15 9 -15 11 0 21 4 21 9 0 18 -18 21 -30 6z"/>
<path d="M4100 4645 c0 -46 7 -54 28 -33 22 22 8 78 -20 78 -4 0 -8 -20 -8
-45z"/>
<path d="M3067 4723 c-11 -10 -8 -53 3 -53 10 0 30 32 30 49 0 12 -23 15 -33
4z"/>
<path d="M3577 4713 c-15 -14 -7 -43 12 -43 26 0 36 17 21 35 -14 16 -23 19
-33 8z"/>
<path d="M4943 4719 c-16 -16 -17 -49 -3 -49 13 0 23 24 18 45 -2 13 -5 14
-15 4z"/>
<path d="M1840 4018 c0 -16 5 -28 10 -28 13 0 13 20 0 40 -8 12 -10 9 -10 -12z"/>
<path d="M2453 4546 c3 -7 0 -19 -6 -25 -17 -17 1 -13 22 6 22 18 19 33 -6 33
-9 0 -13 -6 -10 -14z"/>
<path d="M557 4583 c-10 -9 -8 -43 2 -43 5 0 14 7 21 15 17 21 -4 48 -23 28z"/>
<path d="M77 4353 c-10 -9 -8 -33 2 -33 5 0 11 9 14 20 5 20 -3 26 -16 13z"/>
<path d="M116 4346 c3 -8 -5 -21 -18 -30 -22 -16 -22 -16 -1 -16 11 0 26 7 33
15 13 16 7 45 -9 45 -6 0 -8 -6 -5 -14z"/>
<path d="M2737 4533 c-4 -3 -7 -10 -7 -14 0 -9 39 1 46 12 6 10 -29 12 -39 2z"/>
<path d="M2741 4501 c-9 -6 -10 -11 -2 -15 6 -4 21 0 33 8 21 15 21 16 3 16
-11 0 -26 -4 -34 -9z"/>
<path d="M2100 4524 c0 -8 5 -12 10 -9 6 3 10 10 10 16 0 5 -4 9 -10 9 -5 0
-10 -7 -10 -16z"/>
<path d="M2107 4493 c-4 -3 -7 -13 -7 -22 1 -13 2 -13 11 2 6 9 15 14 21 11 7
-4 8 -2 4 4 -8 13 -19 15 -29 5z"/>
<path d="M3532 4391 c2 -7 7 -12 11 -12 12 1 9 15 -3 20 -7 2 -11 -2 -8 -8z"/>
<path d="M374 4369 c-3 -6 -1 -16 5 -22 8 -8 11 -5 11 11 0 24 -5 28 -16 11z"/>
<path d="M696 4416 c-18 -28 -14 -46 10 -46 20 0 27 21 16 49 l-8 23 -18 -26z"/>
<path d="M230 4425 c-7 -9 -10 -18 -7 -21 10 -10 47 7 47 22 0 19 -24 18 -40
-1z"/>
<path d="M3157 4423 c-4 -3 -7 -24 -7 -45 0 -36 2 -38 30 -38 27 0 30 3 30 33
0 44 -31 73 -53 50z"/>
<path d="M920 4365 c0 -8 4 -15 9 -15 5 0 11 7 15 15 3 9 0 15 -9 15 -8 0 -15
-7 -15 -15z"/>
<path d="M814 4346 c-4 -10 -2 -22 4 -28 8 -8 13 -7 18 6 4 10 2 22 -4 28 -8
8 -13 7 -18 -6z"/>
<path d="M1746 4334 c-5 -12 -2 -15 10 -10 8 3 18 6 20 6 2 0 4 5 4 10 0 16
-27 11 -34 -6z"/>
<path d="M2167 4303 c-4 -3 -7 -11 -7 -17 0 -6 5 -5 12 2 6 6 9 14 7 17 -3 3
-9 2 -12 -2z"/>
<path d="M2090 4105 c0 -16 16 -20 24 -6 3 5 -1 11 -9 15 -9 3 -15 0 -15 -9z"/>
<path d="M2652 4123 c2 -10 10 -18 18 -18 8 0 16 8 18 18 2 12 -3 17 -18 17
-15 0 -20 -5 -18 -17z"/>
<path d="M2726 4104 c-19 -49 9 -94 47 -73 19 11 22 41 7 70 -13 23 -46 25
-54 3z m42 -28 c5 -25 -15 -43 -30 -28 -9 9 -9 12 1 12 10 0 11 3 2 13 -6 8
-8 17 -4 21 11 11 28 1 31 -18z"/>
<path d="M4480 4100 c0 -5 5 -10 10 -10 6 0 10 5 10 10 0 6 -4 10 -10 10 -5 0
-10 -4 -10 -10z"/>
<path d="M4520 4095 c0 -9 5 -15 11 -13 6 2 11 8 11 13 0 5 -5 11 -11 13 -6 2
-11 -4 -11 -13z"/>
<path d="M3721 4056 c-58 -19 -70 -76 -17 -76 29 0 59 38 54 68 -3 18 -6 19
-37 8z"/>
<path d="M3787 4053 c-13 -13 -7 -54 9 -60 24 -9 46 24 33 48 -10 19 -30 25
-42 12z"/>
<path d="M4141 4082 c-12 -22 4 -52 27 -52 19 0 56 53 45 64 -14 13 -63 5 -72
-12z"/>
<path d="M420 4061 c-13 -26 -13 -31 5 -31 9 0 15 9 15 25 0 30 -6 32 -20 6z"/>
<path d="M1550 4016 c0 -9 7 -16 16 -16 9 0 14 5 12 12 -6 18 -28 21 -28 4z"/>
<path d="M980 4020 c0 -5 5 -10 10 -10 6 0 10 5 10 10 0 6 -4 10 -10 10 -5 0
-10 -4 -10 -10z"/>
<path d="M2382 3872 c-38 -12 -31 -101 10 -123 24 -13 41 -1 58 41 10 25 10
34 -3 54 -16 24 -43 36 -65 28z"/>
<path d="M2330 3849 c-6 -11 -10 -25 -7 -32 2 -6 9 3 15 21 12 36 8 42 -8 11z"/>
<path d="M1066 3824 c-13 -35 -1 -164 16 -164 5 0 20 11 33 25 34 33 33 84 -1
124 -29 35 -39 38 -48 15z m28 -79 c-6 -16 -24 -21 -24 -7 0 11 11 22 21 22 5
0 6 -7 3 -15z"/>
<path d="M842 3788 c-29 -37 -21 -118 13 -118 23 0 45 30 45 61 0 56 -32 88
-58 57z m16 -66 c6 -18 -15 -14 -22 4 -4 10 -1 14 6 12 6 -2 14 -10 16 -16z"/>
<path d="M4794 3759 c-10 -16 18 -40 35 -29 12 7 12 11 2 24 -16 19 -27 20
-37 5z"/>
<path d="M69 3730 c-5 -29 -2 -33 21 -36 14 -1 19 0 13 2 -7 3 -13 14 -13 25
0 19 -19 27 -21 9z"/>
<path d="M3310 3681 c0 -12 5 -21 10 -21 6 0 10 6 10 14 0 8 -4 18 -10 21 -5
3 -10 -3 -10 -14z"/>
<path d="M4201 3721 c-10 -17 -9 -22 4 -27 26 -10 42 13 23 32 -15 15 -17 15
-27 -5z"/>
<path d="M3884 3684 c-13 -19 -14 -28 -5 -37 9 -9 17 -5 37 16 14 15 22 32 19
37 -11 18 -34 11 -51 -16z"/>
<path d="M226 3278 c-9 -12 -16 -39 -16 -60 0 -31 4 -38 19 -38 23 0 36 16 45
53 14 59 -18 89 -48 45z"/>
<path d="M3003 3583 c-25 -25 -30 -43 -10 -43 24 0 39 18 35 41 l-3 24 -22
-22z"/>
<path d="M3045 3558 c-6 -18 -16 -34 -22 -34 -7 -1 -18 -2 -25 -3 -24 -2 26
-41 53 -41 42 0 65 39 47 77 -19 40 -42 40 -53 1z"/>
<path d="M4992 3468 c-16 -16 -15 -48 2 -48 20 0 39 27 32 45 -7 18 -18 19
-34 3z"/>
<path d="M4575 3457 c-4 -10 -5 -21 -1 -24 10 -10 18 4 13 24 -4 17 -4 17 -12
0z"/>
<path d="M4543 3443 c-3 -10 -8 -21 -10 -25 -2 -5 2 -8 9 -8 8 0 15 11 16 25
2 29 -6 33 -15 8z"/>
<path d="M4575 3410 c3 -5 8 -10 11 -10 2 0 4 5 4 10 0 6 -5 10 -11 10 -5 0
-7 -4 -4 -10z"/>
<path d="M1634 3435 c-8 -21 2 -45 19 -45 20 0 40 27 33 45 -7 19 -45 20 -52
0z"/>
<path d="M3487 3544 c-4 -4 -7 -16 -7 -26 0 -14 6 -19 23 -16 14 2 22 10 22
23 0 20 -25 32 -38 19z"/>
<path d="M760 3510 c-8 -14 -8 -26 0 -41 14 -26 32 -20 45 15 7 21 6 29 -5 36
-22 14 -28 12 -40 -10z"/>
<path d="M828 3490 c2 -16 9 -30 14 -30 5 0 6 -5 2 -11 -4 -7 -1 -10 7 -7 8 3
16 15 17 27 2 15 0 21 -7 17 -7 -4 -11 1 -11 13 0 12 -6 21 -13 21 -9 0 -12
-10 -9 -30z"/>
<path d="M1160 3485 c-10 -13 -9 -15 9 -15 11 0 21 4 21 9 0 18 -18 21 -30 6z"/>
<path d="M1895 3530 c-3 -5 1 -10 9 -10 9 0 16 5 16 10 0 6 -4 10 -9 10 -6 0
-13 -4 -16 -10z"/>
<path d="M1880 3484 c0 -8 5 -12 10 -9 6 3 10 10 10 16 0 5 -4 9 -10 9 -5 0
-10 -7 -10 -16z"/>
<path d="M2152 3482 c-28 -50 -28 -52 7 -52 39 0 44 10 28 54 l-13 37 -22 -39z"/>
<path d="M225 3430 c-3 -5 1 -10 9 -10 8 0 18 5 21 10 3 6 -1 10 -9 10 -8 0
-18 -4 -21 -10z"/>
<path d="M4780 3414 c0 -11 8 -14 27 -12 39 4 42 28 4 28 -21 0 -31 -5 -31
-16z"/>
<path d="M2787 3333 c-4 -3 -7 -19 -7 -35 0 -21 5 -28 20 -28 16 0 20 7 20 35
0 33 -16 46 -33 28z"/>
<path d="M3053 3324 c-3 -8 -1 -20 5 -26 15 -15 43 8 35 28 -7 19 -32 18 -40
-2z"/>
<path d="M2900 3286 c0 -15 24 -28 34 -19 13 14 5 33 -14 33 -11 0 -20 -6 -20
-14z"/>
<path d="M670 2856 c0 -9 5 -16 10 -16 6 0 10 4 10 9 0 6 -4 13 -10 16 -5 3
-10 -1 -10 -9z"/>
<path d="M4351 3194 c-16 -36 -1 -51 36 -38 39 13 40 58 2 62 -19 2 -28 -3
-38 -24z"/>
<path d="M2561 3136 c-7 -8 -8 -17 -3 -20 6 -3 15 1 21 8 7 8 8 17 3 20 -6 3
-15 -1 -21 -8z"/>
<path d="M3420 3231 c-13 -25 -13 -58 1 -66 15 -10 20 -2 26 44 6 44 -8 56
-27 22z"/>
<path d="M2288 3221 l-32 -28 29 -26 30 -25 38 21 c59 33 62 42 24 66 -44 27
-50 27 -89 -8z"/>
<path d="M2050 3150 c0 -5 5 -10 10 -10 6 0 10 5 10 10 0 6 -4 10 -10 10 -5 0
-10 -4 -10 -10z"/>
<path d="M2896 3001 c-18 -7 -18 -8 -2 -14 29 -11 46 -8 46 8 0 16 -14 18 -44
6z"/>
<path d="M2570 2987 c0 -41 3 -47 21 -47 18 0 20 4 14 33 -4 17 -13 39 -21 47
-12 12 -14 8 -14 -33z"/>
<path d="M2588 2912 c-21 -4 -24 -42 -4 -42 8 0 18 9 21 21 8 24 6 27 -17 21z"/>
<path d="M1015 2980 c-8 -13 3 -30 20 -30 14 0 27 24 18 34 -10 9 -31 7 -38
-4z"/>
<path d="M3966 2783 c-9 -22 10 -41 25 -26 13 13 5 43 -10 43 -5 0 -12 -8 -15
-17z"/>
<path d="M4660 2930 c0 -34 0 -34 35 -18 36 16 33 48 -5 48 -27 0 -30 -3 -30
-30z"/>
<path d="M4660 2844 c0 -26 2 -26 45 -22 47 6 79 24 69 39 -3 5 -30 9 -60 9
-52 0 -54 -1 -54 -26z"/>
<path d="M3199 2794 c-18 -22 4 -42 26 -24 19 16 19 26 1 33 -8 3 -20 -1 -27
-9z"/>
<path d="M2255 2671 c-20 -39 -19 -41 10 -41 21 0 25 5 25 29 0 42 -16 47 -35
12z"/>
<path d="M731 2653 c-6 -12 -6 -24 0 -34 8 -12 12 -11 24 6 9 10 14 24 12 29
-6 18 -26 17 -36 -1z"/>
<path d="M762 2600 c-15 -25 -82 -29 -82 -5 0 20 -26 19 -34 0 -8 -23 10 -62
39 -81 53 -35 127 18 111 79 -8 32 -17 34 -34 7z"/>
<path d="M705 2600 c-3 -5 1 -10 10 -10 9 0 13 5 10 10 -3 6 -8 10 -10 10 -2
0 -7 -4 -10 -10z"/>
<path d="M490 2665 c0 -36 0 -36 38 -33 34 3 37 6 37 33 0 27 -3 30 -37 33
-38 3 -38 3 -38 -33z"/>
<path d="M490 2581 c0 -25 20 -38 31 -20 15 23 10 39 -11 39 -13 0 -20 -7 -20
-19z"/>
<path d="M4713 2584 c-20 -9 -2 -34 23 -34 27 0 33 24 8 34 -9 3 -16 6 -17 5
-1 0 -7 -3 -14 -5z"/>
<path d="M4930 2591 c0 -30 53 -35 64 -5 4 10 -3 14 -29 14 -19 0 -35 -4 -35
-9z"/>
<path d="M4256 2654 c-23 -22 -20 -60 6 -78 26 -18 42 -9 57 34 16 48 -28 79
-63 44z"/>
<path d="M4566 2584 c-3 -9 -6 -25 -6 -37 0 -19 2 -19 14 -7 22 24 30 60 13
60 -8 0 -18 -7 -21 -16z"/>
<path d="M370 2600 c0 -5 7 -10 15 -10 8 0 15 5 15 10 0 6 -7 10 -15 10 -8 0
-15 -4 -15 -10z"/>
<path d="M3876 2548 c-8 -12 -13 -25 -10 -30 7 -11 44 -10 44 2 0 6 7 10 15
10 17 0 18 -2 9 -24 -4 -10 -18 -16 -38 -16 -29 -1 -30 -1 -12 -15 42 -32 106
-11 106 34 0 57 -82 85 -114 39z"/>
<path d="M3666 2534 c-3 -9 -6 -23 -6 -31 0 -14 3 -14 20 2 11 10 20 24 20 32
0 18 -27 16 -34 -3z"/>
<path d="M3670 2434 c0 -25 24 -49 40 -39 15 10 12 25 -7 32 -10 4 -21 11 -25
17 -5 6 -8 2 -8 -10z"/>
<path d="M2131 2421 c-40 -38 -43 -90 -6 -126 57 -58 155 -20 155 60 0 37 -9
38 -58 6 l-24 -15 24 -18 c26 -20 12 -24 -27 -6 -30 14 -33 34 -5 43 11 3 20
10 20 14 0 4 -9 16 -20 26 -11 10 -20 23 -20 28 0 6 11 0 24 -12 18 -17 32
-22 50 -17 33 8 33 24 0 36 -45 18 -80 12 -113 -19z"/>
<path d="M4798 2415 l-37 -50 41 -3 c22 -2 42 -2 44 0 1 2 0 26 -4 53 l-7 49
-37 -49z"/>
<path d="M955 2419 c-4 -6 -4 -13 -1 -16 8 -8 36 5 36 17 0 13 -27 13 -35 -1z"/>
<path d="M952 2338 c-30 -30 0 -75 42 -64 29 7 43 41 26 61 -15 18 -52 19 -68
3z"/>
<path d="M4315 2375 c-31 -30 -33 -65 -5 -65 14 0 20 7 20 23 0 29 18 47 45
46 20 0 20 0 -1 -9 -28 -11 -37 -35 -18 -50 10 -9 14 -9 14 -1 0 6 5 11 10 11
20 0 10 -41 -12 -49 l-23 -8 22 -7 c47 -15 92 39 73 88 -19 50 -86 61 -125 21z"/>
<path d="M4001 2351 c-17 -11 -8 -41 12 -41 10 0 13 8 9 25 -2 14 -5 25 -6 25
0 0 -7 -4 -15 -9z"/>
<path d="M4044 2339 c-3 -6 -1 -16 5 -22 8 -8 11 -5 11 11 0 24 -5 28 -16 11z"/>
<path d="M3162 2269 c3 -37 21 -46 26 -13 2 11 -4 27 -13 34 -15 12 -16 10
-13 -21z"/>
<path d="M3121 2281 c-7 -5 -10 -14 -6 -20 5 -9 10 -9 21 0 26 22 14 38 -15
20z"/>
<path d="M4722 2261 c2 -7 7 -12 11 -12 12 1 9 15 -3 20 -7 2 -11 -2 -8 -8z"/>
<path d="M2926 2194 c-8 -22 1 -31 16 -16 9 9 9 15 1 23 -7 7 -12 5 -17 -7z"/>
<path d="M3240 2221 c0 -26 17 -36 35 -21 12 10 15 9 15 -3 0 -9 -4 -19 -10
-22 -18 -11 -11 -53 12 -69 31 -22 45 -20 73 9 33 32 31 50 -5 87 -30 29 -32
30 -45 12 -12 -16 -14 -17 -15 -3 0 31 -60 40 -60 10z"/>
<path d="M4925 2220 c-4 -6 -1 -18 6 -26 12 -14 14 -14 26 2 7 9 10 21 7 25
-7 12 -31 11 -39 -1z"/>
<path d="M2380 2190 c0 -11 7 -20 15 -20 8 0 15 9 15 20 0 11 -7 20 -15 20 -8
0 -15 -9 -15 -20z"/>
<path d="M956 2155 c-19 -20 -21 -87 -3 -118 11 -19 13 -13 17 53 3 41 5 76 4
78 -1 2 -9 -4 -18 -13z"/>
<path d="M4086 2134 c-11 -7 -17 -16 -15 -19 3 -3 14 2 25 9 10 8 17 17 14 19
-3 3 -14 -1 -24 -9z"/>
<path d="M4036 2035 c-16 -24 -16 -25 4 -25 15 0 20 7 20 25 0 14 -2 25 -4 25
-2 0 -11 -11 -20 -25z"/>
<path d="M3520 2140 c0 -5 9 -10 21 -10 11 0 17 5 14 10 -3 6 -13 10 -21 10
-8 0 -14 -4 -14 -10z"/>
<path d="M3520 2098 c0 -23 18 -32 35 -18 19 16 19 30 0 30 -8 0 -15 -6 -15
-12 0 -9 -4 -8 -10 2 -8 13 -10 13 -10 -2z"/>
<path d="M4432 2068 c6 -18 28 -21 28 -4 0 9 -7 16 -16 16 -9 0 -14 -5 -12
-12z"/>
<path d="M3163 1964 c-3 -8 2 -23 11 -32 15 -15 16 -14 16 16 0 33 -16 43 -27
16z m14 -16 c-3 -8 -6 -5 -6 6 -1 11 2 17 5 13 3 -3 4 -12 1 -19z"/>
<path d="M3285 1964 c-9 -9 -14 -23 -11 -31 3 -8 6 -17 6 -19 0 -2 4 -4 10 -4
8 0 40 51 40 65 0 11 -29 4 -45 -11z"/>
<path d="M987 1865 c-10 -7 -17 -22 -15 -32 2 -14 14 -19 55 -21 47 -3 52 -1
46 15 -7 20 -43 53 -58 52 -5 0 -18 -6 -28 -14z"/>
<path d="M1235 1840 c-8 -26 7 -45 30 -36 21 8 16 50 -7 54 -10 2 -19 -5 -23
-18z"/>
<path d="M257 1929 c-45 -26 -39 -96 9 -118 27 -12 31 -6 9 15 -30 30 -8 109
25 89 7 -5 5 -12 -7 -21 -17 -12 -16 -13 10 -14 15 0 27 -4 27 -10 0 -5 -9
-10 -19 -10 -22 0 -39 -19 -19 -21 7 -1 17 -1 22 0 5 1 6 -5 3 -14 -11 -27 2
-16 19 16 20 39 12 72 -21 87 -31 14 -35 14 -58 1z"/>
<path d="M1511 1873 c1 -10 4 -29 8 -42 l7 -25 22 30 c12 16 27 35 32 42 8 9
2 12 -30 12 -32 0 -40 -4 -39 -17z"/>
<path d="M1552 1820 l-32 -30 46 0 c38 0 45 3 40 16 -3 9 -6 22 -6 30 0 21
-11 17 -48 -16z"/>
<path d="M1780 1894 c0 -8 5 -12 10 -9 6 3 10 -2 10 -11 0 -10 3 -15 6 -11 8
8 -5 47 -17 47 -5 0 -9 -7 -9 -16z"/>
<path d="M2026 1904 c-18 -18 -19 -23 -7 -43 8 -12 12 -12 25 -2 18 15 21 47
7 56 -5 3 -17 -2 -25 -11z"/>
<path d="M4350 1873 c0 -57 31 -63 68 -13 l21 28 -44 4 c-41 3 -45 1 -45 -19z"/>
<path d="M4366 1742 c-3 -6 -1 -14 5 -17 15 -10 25 3 12 16 -7 7 -13 7 -17 1z"/>
<path d="M4762 1878 c-18 -18 -15 -28 7 -28 26 0 34 15 18 29 -10 8 -17 7 -25
-1z"/>
<path d="M4080 1792 c0 -5 7 -15 15 -22 8 -7 15 -8 15 -2 0 5 -7 15 -15 22 -8
7 -15 8 -15 2z"/>
<path d="M4020 1675 c7 -8 27 -15 45 -15 18 0 38 7 45 15 11 13 5 15 -45 15
-50 0 -56 -2 -45 -15z"/>
<path d="M3417 1652 c-21 -23 -22 -62 -2 -62 17 0 57 59 49 72 -9 14 -30 9
-47 -10z"/>
<path d="M280 1635 c-17 -21 -7 -29 18 -16 15 8 21 8 25 -2 3 -9 7 -9 20 2 9
7 14 17 11 22 -9 15 -61 10 -74 -6z"/>
<path d="M341 1586 c-13 -32 -44 -34 -66 -3 l-16 22 3 -24 c4 -31 28 -46 61
-37 17 4 29 15 33 32 9 34 -3 43 -15 10z"/>
<path d="M285 1590 c-3 -6 1 -13 10 -16 19 -8 30 0 20 15 -8 14 -22 14 -30 1z"/>
<path d="M1154 1619 c-10 -17 13 -36 27 -22 12 12 4 33 -11 33 -5 0 -12 -5
-16 -11z"/>
<path d="M1502 1633 c-6 -3 -10 -9 -6 -14 7 -12 44 -12 44 0 0 11 -21 19 -38
14z"/>
<path d="M3641 1582 c-12 -23 4 -52 29 -52 21 0 37 40 25 59 -10 17 -43 13
-54 -7z m49 -18 c0 -8 -7 -14 -15 -14 -15 0 -21 21 -9 33 10 9 24 -2 24 -19z"/>
<path d="M3670 1470 c0 -16 5 -30 10 -30 6 0 10 14 10 30 0 17 -4 30 -10 30
-5 0 -10 -13 -10 -30z"/>
<path d="M4980 1516 c0 -49 12 -86 29 -86 26 0 41 21 41 55 0 37 -16 55 -47
55 -18 0 -23 -6 -23 -24z"/>
<path d="M4720 1515 c-17 -20 -8 -50 15 -50 15 0 21 8 23 33 4 35 -16 44 -38
17z"/>
<path d="M1860 1550 c0 -5 5 -10 11 -10 5 0 7 5 4 10 -3 6 -8 10 -11 10 -2 0
-4 -4 -4 -10z"/>
<path d="M4803 1534 c-8 -21 13 -42 28 -27 13 13 5 43 -11 43 -6 0 -13 -7 -17
-16z"/>
<path d="M1640 1486 c-6 -9 -10 -21 -8 -28 3 -8 9 -4 17 10 15 28 9 39 -9 18z"/>
<path d="M1637 1423 c-12 -12 -7 -43 7 -43 9 0 12 8 8 25 -5 27 -6 28 -15 18z"/>
<path d="M1115 1459 c-4 -6 -4 -13 -1 -16 8 -8 36 5 36 17 0 13 -27 13 -35 -1z"/>
<path d="M473 1434 c-8 -21 13 -42 28 -27 13 13 5 43 -11 43 -6 0 -13 -7 -17
-16z"/>
<path d="M262 1418 c-21 -21 -12 -78 13 -78 6 0 20 9 31 21 18 20 18 20 -10
17 -18 -2 -31 2 -34 11 -3 10 2 12 21 7 29 -7 48 11 26 25 -19 12 -33 11 -47
-3z"/>
<path d="M4000 1289 c-10 -18 -9 -20 7 -17 10 2 19 11 21 21 5 24 -15 21 -28
-4z"/>
<path d="M532 1288 c2 -13 10 -23 18 -23 8 0 16 10 18 23 3 17 -2 22 -18 22
-16 0 -21 -5 -18 -22z"/>
<path d="M1136 1275 c-3 -9 0 -15 9 -15 8 0 15 7 15 15 0 8 -4 15 -9 15 -5 0
-11 -7 -15 -15z"/>
<path d="M1138 1233 c-17 -20 -5 -48 23 -51 29 -3 64 29 56 52 -7 18 -63 17
-79 -1z"/>
<path d="M1810 1265 c7 -8 17 -12 22 -9 6 4 5 10 -3 15 -22 14 -33 10 -19 -6z"/>
<path d="M920 1215 c0 -8 9 -15 20 -15 11 0 20 7 20 15 0 8 -9 15 -20 15 -11
0 -20 -7 -20 -15z"/>
<path d="M1892 1218 c5 -15 28 -18 29 -3 0 6 -7 12 -17 13 -10 3 -15 -1 -12
-10z"/>
<path d="M776 1221 c-4 -7 -5 -15 -2 -18 9 -9 19 4 14 18 -4 11 -6 11 -12 0z"/>
<path d="M2625 2040 c7 -11 65 -43 65 -36 0 2 -16 13 -36 25 -19 12 -32 16
-29 11z"/>
<path d="M2861 1692 c10 -42 34 -169 54 -281 34 -198 74 -342 115 -419 l19
-37 -5 80 c-7 95 -63 384 -99 510 -23 82 -79 210 -95 220 -4 2 1 -30 11 -73z"/>
<path d="M2970 1565 c0 -26 54 -227 58 -213 2 9 -8 61 -23 114 -23 89 -35 122
-35 99z"/>
<path d="M3597 1270 c-4 -17 0 -20 24 -20 31 0 36 9 17 28 -18 18 -35 15 -41
-8z"/>
<path d="M0 995 l0 -25 518 0 c284 0 736 -3 1003 -7 l486 -6 -5 31 -4 32 -999
0 -999 0 0 -25z"/>
<path d="M2996 992 c-6 -11 51 -132 63 -132 20 0 19 17 -6 59 -40 70 -50 83
-57 73z"/>
</g>
</svg>