<?xml version="1.0" standalone="no"?>
<!DOCTYPE svg PUBLIC "-//W3C//DTD SVG 20010904//EN"
 "http://www.w3.org/TR/2001/REC-SVG-20010904/DTD/svg10.dtd">
<svg version="1.0" xmlns="http://www.w3.org/2000/svg"
 width="512.000000pt" height="512.000000pt" viewBox="0 0 512.000000 512.000000"
 preserveAspectRatio="xMidYMid meet">
<metadata>
Created by potrace 1.16, written by Peter Selinger 2001-2019
</metadata>
<g transform="translate(0.000000,512.000000) scale(0.100000,-0.100000)"
fill="#000000" stroke="none">
<path d="M489 4733 c-11 -12 -15 -66 -17 -222 -2 -113 -8 -211 -13 -217 -5 -7
-14 -173 -19 -370 -6 -198 -15 -519 -20 -714 -11 -414 -13 -1570 -2 -1586 4
-6 17 -14 28 -18 25 -8 924 10 1054 21 179 14 23 21 -507 22 -384 1 -544 4
-549 12 -4 8 1 9 15 4 13 -4 519 -1 1127 6 607 7 1107 9 1110 6 4 -3 0 -39 -7
-79 l-14 -73 -85 -6 c-47 -4 -341 -9 -655 -13 -637 -7 -865 -14 -865 -28 0 -5
9 -6 20 -3 17 5 20 2 20 -25 0 -19 9 -40 25 -55 23 -24 30 -25 152 -25 70 0
342 4 603 10 836 18 750 18 750 -3 0 -24 -48 -290 -56 -311 -4 -10 -1 -16 9
-16 14 0 16 -29 16 -222 0 -310 19 -469 56 -477 16 -3 17 2 11 55 -3 33 -13
100 -21 149 -8 50 -20 177 -26 283 l-13 193 54 47 c60 52 103 134 163 308 19
55 43 116 53 135 l18 34 7 -40 c19 -106 92 -243 153 -290 105 -80 212 -74 574
32 107 31 146 52 130 68 -4 5 -221 -42 -338 -73 -170 -45 -170 -35 0 38 91 39
179 77 195 85 l30 15 -32 -2 c-18 -2 -32 2 -32 7 0 27 12 85 18 85 4 0 49 27
101 60 52 33 99 60 103 60 10 0 0 -266 -14 -365 -7 -47 -25 -103 -56 -169 -54
-115 -66 -185 -38 -216 28 -31 32 -24 22 32 -12 70 3 125 48 174 55 60 70 135
81 402 l7 180 36 6 c20 3 150 6 289 6 162 0 261 4 274 11 49 27 51 45 59 634
5 303 13 685 19 850 5 165 13 399 15 520 8 295 13 365 30 365 18 0 30 19 18
31 -5 5 -6 38 -2 77 4 37 11 159 15 272 6 170 5 207 -7 216 -9 8 -180 17 -499
29 -483 17 -485 17 -533 42 -69 36 -146 41 -224 14 -74 -25 -113 -26 -154 -6
-31 17 -62 8 -85 -23 -10 -13 -74 -13 -555 2 -680 21 -1022 32 -1549 51 -519
19 -504 19 -521 -2z m662 -33 c310 -11 733 -24 939 -30 206 -6 506 -15 665
-20 160 -6 298 -10 307 -10 16 0 16 -3 2 -42 -13 -37 -14 -58 -4 -143 14 -122
6 -158 -36 -165 -27 -5 -29 -8 -28 -52 0 -52 22 -85 58 -90 18 -3 21 -11 24
-55 l3 -52 -43 -5 c-165 -21 -1241 -45 -2040 -46 l-458 0 -14 -22 c-21 -33
-44 -578 -52 -1245 -4 -293 -11 -530 -16 -527 -18 11 -7 977 20 1853 6 185 9
215 24 224 20 13 409 -3 810 -33 667 -51 951 -67 872 -50 -39 8 -277 30 -719
65 -394 31 -911 63 -964 58 -22 -2 -23 0 -17 45 3 26 8 108 11 182 8 184 7
180 54 180 21 0 292 -9 602 -20z m2006 -28 c-43 -47 3 -102 83 -102 26 0 67 7
90 15 67 24 123 20 160 -11 40 -34 33 -41 -14 -13 -39 23 -53 23 -181 -1 -81
-15 -117 -9 -152 26 l-25 25 4 -35 c2 -19 0 -32 -5 -29 -17 10 -2 115 18 129
27 20 41 17 22 -4z m990 -47 c205 -8 389 -15 409 -15 l37 0 -7 -267 c-4 -148
-10 -270 -13 -273 -2 -3 -82 -6 -176 -6 l-172 -1 125 9 c166 12 225 29 75 22
-60 -3 -139 -9 -175 -14 -36 -5 -86 -10 -112 -10 -26 0 -49 -4 -52 -9 -8 -13
121 -30 287 -37 l148 -7 -6 -371 c-3 -204 -11 -531 -16 -726 -6 -195 -14 -540
-17 -765 -6 -370 -9 -414 -25 -438 l-17 -27 -241 0 -241 0 119 78 c65 43 132
95 150 115 51 59 58 98 57 327 -1 209 -12 338 -41 490 -11 60 -17 146 -17 290
-1 191 -3 208 -24 254 -12 27 -25 47 -28 43 -3 -3 -29 6 -57 19 -107 50 -230
23 -314 -68 -101 -111 -128 -235 -103 -473 26 -246 22 -279 -10 -69 l-19 129
4 -125 c7 -195 48 -407 96 -502 19 -36 19 -41 5 -57 -9 -10 -16 -26 -16 -37 0
-13 -33 -44 -102 -94 -56 -41 -140 -112 -186 -157 l-83 -82 -102 9 c-56 5
-122 13 -145 16 -39 6 -44 5 -40 -12 5 -30 47 -44 133 -45 44 -1 92 -4 107 -8
27 -6 27 -6 12 -41 -9 -19 -19 -42 -23 -50 -4 -8 -34 -25 -67 -38 -97 -38
-105 -43 -54 -36 25 3 69 17 98 32 l54 27 62 -61 c35 -34 80 -71 101 -82 l39
-19 -25 -25 c-14 -14 -32 -28 -40 -31 -11 -5 -11 -8 4 -17 9 -6 14 -16 11 -22
-11 -17 -207 -107 -270 -123 -44 -11 -67 -12 -97 -4 -53 14 -127 85 -168 162
l-34 62 1 190 c0 217 21 385 61 508 33 100 114 231 288 468 l140 190 83 -5
c65 -5 83 -3 80 6 -3 8 -32 15 -81 18 l-76 5 -124 -155 c-165 -205 -241 -315
-299 -429 -26 -52 -48 -90 -48 -84 0 44 26 185 40 218 55 127 415 617 634 860
l44 50 -36 39 c-34 35 -35 38 -12 31 49 -15 94 -24 101 -19 5 2 22 31 40 63
l33 59 145 -73 c80 -41 161 -84 179 -96 41 -27 42 -9 1 26 -35 29 -86 57 -231
126 -132 62 -184 127 -214 268 -14 68 -19 218 -7 259 6 23 8 24 87 17 352 -28
636 -66 673 -91 l26 -16 -6 -567 c-4 -311 -10 -784 -13 -1051 -4 -267 -3 -482
1 -478 13 12 44 2060 32 2109 -16 62 -145 87 -567 110 -113 6 -207 13 -209 15
-2 1 19 38 45 80 98 157 111 278 39 354 -13 14 -25 36 -27 50 -2 14 -18 34
-40 50 -20 14 -46 36 -56 50 l-20 26 61 -3 c34 -2 229 -10 434 -18z m-905
-137 c24 -1 77 7 119 17 115 27 148 14 156 -66 3 -30 12 -66 19 -81 8 -16 12
-28 10 -28 -3 0 -12 12 -20 28 -13 23 -15 24 -16 7 0 -11 6 -29 13 -40 8 -11
17 -28 21 -39 6 -17 3 -18 -36 -12 -43 7 -71 23 -63 36 2 3 -3 16 -11 28 -12
18 -24 22 -62 21 -65 -2 -105 -12 -110 -27 -3 -11 10 -13 70 -7 61 6 76 4 87
-9 12 -15 6 -16 -65 -15 -44 0 -101 -4 -127 -10 -54 -13 -67 -9 -67 19 0 23
-35 44 -61 37 -10 -3 -19 -4 -19 -2 0 2 12 36 26 77 14 40 27 80 27 89 1 14 5
13 34 -4 18 -10 52 -19 75 -19z m323 -76 c-9 -10 -25 42 -19 61 7 19 9 16 15
-18 4 -22 5 -42 4 -43z m132 -28 c21 -4 39 -2 49 7 14 12 14 14 -3 27 -16 13
-16 14 0 9 10 -4 17 -1 17 6 0 7 5 4 11 -6 14 -24 5 -45 -25 -58 -20 -9 -34
-7 -78 13 -29 14 -64 35 -78 47 -16 14 -8 11 24 -9 27 -16 65 -33 83 -36z
m-556 -74 c5 0 9 -4 9 -10 0 -5 -16 -10 -35 -10 -19 0 -35 4 -35 9 0 12 21 21
38 15 8 -2 18 -4 23 -4z m214 -39 c3 -5 1 -12 -5 -16 -18 -11 -12 -47 8 -43
11 2 17 13 17 31 -1 24 3 28 25 25 22 -3 25 -7 24 -42 -2 -48 -14 -56 -87 -56
-57 0 -58 1 -73 35 -20 48 -18 63 9 68 41 8 76 7 82 -2z m-285 -45 c0 -19 5
-38 12 -42 8 -5 9 5 5 34 -5 42 -5 42 26 42 18 0 27 -4 20 -8 -6 -4 -13 -23
-15 -42 -3 -32 -6 -35 -38 -38 -40 -4 -60 16 -60 60 0 23 4 28 25 28 22 0 25
-4 25 -34z m102 -17 c-6 -41 13 -31 21 11 8 38 33 39 42 3 15 -63 29 -73 105
-73 80 0 110 19 110 68 0 26 3 28 33 25 68 -8 77 -13 77 -37 0 -13 6 -29 14
-35 11 -9 18 -5 35 23 20 32 39 46 63 46 5 0 -4 -16 -22 -36 -17 -20 -28 -39
-25 -43 4 -3 15 4 25 17 24 29 27 28 35 -8 4 -16 11 -32 16 -35 16 -10 10 42
-6 55 -11 9 -13 16 -5 24 13 13 27 -1 33 -34 3 -18 5 -14 6 13 1 30 -3 39 -21
47 l-23 9 22 0 c55 2 53 -82 -3 -147 -36 -43 -60 -52 -82 -30 -17 17 -25 3
-12 -22 8 -16 19 -21 35 -18 22 5 23 3 13 -21 -15 -37 -12 -204 5 -283 l14
-66 -66 -28 c-36 -15 -119 -54 -184 -86 -65 -32 -122 -56 -127 -53 -6 4 -10
25 -9 48 0 37 1 39 10 18 5 -13 11 -22 13 -20 2 2 0 56 -4 119 -5 63 -6 118
-2 121 4 4 45 23 91 43 46 19 98 47 116 61 35 26 59 80 53 117 -3 18 -7 14
-18 -20 -7 -24 -26 -54 -41 -66 -34 -29 -174 -81 -258 -96 -91 -16 -104 -6
-124 107 -30 166 -30 176 -2 228 14 26 25 56 25 65 0 9 3 20 6 23 13 13 21 -3
16 -34z m-76 -264 c7 -33 13 -73 13 -88 1 -43 42 -77 91 -77 37 0 42 -3 54
-32 8 -18 17 -59 21 -91 6 -51 4 -62 -13 -80 -28 -30 -62 -98 -62 -122 0 -31
-9 -39 -92 -84 -150 -82 -249 -231 -277 -418 -6 -39 -23 -85 -48 -130 -21 -37
-47 -88 -58 -113 -11 -25 -39 -63 -62 -86 -40 -38 -55 -76 -34 -88 5 -3 14 0
20 8 6 8 31 17 54 20 23 4 49 11 57 16 13 9 13 11 0 20 -8 5 -28 10 -44 10
l-29 0 42 45 c23 25 59 72 80 104 33 52 39 70 45 140 11 135 69 277 142 351
23 23 22 20 -10 -52 -54 -115 -158 -525 -172 -676 l-7 -73 -26 24 c-14 13 -37
31 -51 40 -48 33 -41 16 15 -35 l57 -52 -6 -91 c-4 -49 -10 -111 -13 -137 -5
-47 -26 -89 -37 -77 -4 3 -11 43 -16 89 -9 83 -44 176 -90 241 -16 22 -18 29
-7 29 25 0 63 -37 82 -79 24 -54 29 -47 9 13 -20 58 -81 104 -114 86 -11 -6
-25 -8 -31 -5 -5 4 -47 15 -92 26 -101 24 -311 93 -363 119 -21 11 -48 20 -59
20 -26 0 -55 31 -129 137 -32 46 -76 96 -99 112 -23 16 -98 79 -167 140 -69
61 -133 111 -142 111 -24 0 -41 -35 -29 -57 5 -10 24 -31 41 -48 18 -16 47
-52 65 -80 19 -27 43 -56 54 -63 27 -16 26 -26 -3 -45 -21 -14 -35 -14 -135
-1 -116 15 -151 10 -151 -21 0 -18 35 -55 53 -55 6 0 28 -5 48 -10 l36 -10 -5
-55 c-4 -46 0 -61 22 -100 35 -59 71 -78 135 -69 51 7 133 -8 180 -32 14 -7
45 -16 68 -20 24 -3 43 -9 43 -13 -1 -3 -7 -33 -15 -66 -25 -101 -45 -84 235
-198 74 -30 216 -90 315 -132 136 -59 192 -78 228 -79 48 -1 48 -1 42 -31 -3
-16 -13 -75 -22 -130 -9 -55 -22 -105 -29 -111 -9 -7 -302 -13 -956 -17 -519
-4 -1017 -10 -1107 -14 l-164 -6 6 379 c19 1067 42 1817 58 1860 l7 21 904 6
c837 5 1280 16 1503 36 133 13 127 15 141 -54z m609 -345 c5 -25 2 -34 -17
-49 -12 -10 -81 -66 -152 -125 l-129 -106 -22 32 c-12 18 -31 50 -44 71 l-23
37 174 84 c95 46 181 85 190 85 10 1 19 -10 23 -29z m67 -91 l26 -35 -26 -47
c-28 -52 -28 -52 -124 -33 -38 7 -68 10 -68 7 0 -3 18 -24 41 -47 l40 -41 -78
-89 c-95 -108 -177 -209 -268 -329 l-68 -90 7 57 c3 32 21 117 40 190 44 171
50 212 37 236 -8 15 -6 23 10 38 20 18 21 18 39 -4 10 -12 22 -22 27 -22 5 0
81 58 168 129 88 71 162 126 166 123 3 -4 17 -23 31 -43z m-498 -28 c17 -19
17 -20 -13 -36 -30 -15 -31 -15 -31 8 0 13 5 28 12 35 15 15 12 16 32 -7z
m-128 -173 c-109 -190 -150 -309 -180 -525 -52 -372 -71 -495 -96 -633 -35
-189 -86 -519 -100 -655 -14 -122 -43 -252 -69 -303 -21 -40 -71 -93 -71 -74
0 32 93 481 105 504 7 15 11 36 8 47 -3 11 7 88 21 173 59 357 62 381 76 598
19 288 48 366 51 140 2 -99 3 -89 10 75 4 105 14 226 23 270 20 99 67 239 109
324 27 54 41 70 87 98 30 18 56 30 58 28 2 -2 -12 -32 -32 -67z m61 1 c1 -22
-16 -106 -37 -186 -22 -80 -60 -238 -85 -352 -50 -230 -67 -292 -96 -354 l-20
-42 5 165 c8 249 48 474 109 610 21 49 112 200 120 200 1 0 3 -18 4 -41z m887
-13 c70 -29 97 -94 102 -246 1 -52 5 -113 9 -135 5 -34 -1 -56 -40 -140 -25
-55 -45 -101 -45 -103 0 -14 30 24 45 58 10 22 20 39 22 36 2 -2 13 -49 23
-106 24 -123 41 -451 30 -595 -9 -128 -24 -163 -92 -213 -85 -64 -444 -269
-485 -277 -34 -7 -35 -9 -14 -14 23 -6 21 -8 -18 -26 -42 -18 -43 -18 -78 0
-41 22 -141 130 -149 161 -3 13 3 31 18 48 39 46 211 190 319 267 101 72 102
74 76 83 -15 6 -27 12 -27 15 0 3 15 16 33 29 67 45 188 20 290 -60 55 -44 34
-8 -37 61 -49 48 -62 56 -118 66 -49 10 -59 14 -43 21 13 5 54 -1 117 -18 54
-14 98 -24 98 -22 0 11 -137 114 -151 114 -10 0 -45 -25 -77 -55 -33 -30 -67
-55 -75 -55 -41 0 -95 301 -104 577 -8 254 12 345 98 438 86 93 187 127 273
91z m-785 -48 c0 -24 -6 -61 -14 -83 -13 -40 -13 -40 -14 43 -1 67 2 82 14 82
11 0 15 -11 14 -42z m-1664 -209 c55 -50 126 -110 158 -132 41 -29 76 -68 118
-129 33 -49 76 -104 96 -123 39 -38 40 -60 2 -122 -17 -27 -23 -30 -47 -22
-15 5 -52 15 -82 24 -36 9 -66 25 -85 45 l-29 30 40 0 c21 0 59 -9 83 -20 24
-11 46 -18 48 -16 5 4 -119 76 -131 76 -4 0 -48 20 -98 45 -126 62 -153 59
-57 -7 l24 -17 -25 5 c-25 5 -25 4 -2 -7 33 -18 27 -29 -17 -29 -41 0 -44 3
-62 65 -12 41 -1 93 22 100 10 3 57 -3 104 -14 48 -12 103 -21 123 -20 l37 1
-39 11 c-23 7 -42 20 -46 32 -7 18 -8 19 -15 3 -11 -27 -25 -11 -25 28 0 30
-10 45 -57 94 -65 65 -144 155 -156 176 -21 38 28 6 118 -77z m61 -215 c-3 -8
-10 -12 -16 -9 -7 4 -6 14 2 28 12 24 24 8 14 -19z m-185 15 c56 -10 67 -14
58 -25 -6 -8 -22 -14 -36 -14 -39 0 -117 21 -133 36 -12 12 -10 14 13 14 16 0
59 -5 98 -11z m1366 -81 c-3 -7 -5 -2 -5 12 0 14 2 19 5 13 2 -7 2 -19 0 -25z
m-1337 -20 c1 -18 9 -58 20 -88 21 -63 19 -73 -9 -39 -29 35 -44 85 -37 125 9
43 26 44 26 2z m564 -121 c16 -12 16 -18 6 -58 -7 -24 -21 -65 -32 -91 l-20
-48 -38 21 -37 21 34 57 c19 31 37 68 40 84 6 30 20 34 47 14z m-359 -22 l30
-25 -60 7 c-69 7 -69 7 -62 28 9 23 58 18 92 -10z m-107 3 c-6 -18 -28 -21
-28 -4 0 9 7 16 16 16 9 0 14 -5 12 -12z m883 -157 c33 -36 65 -121 80 -211 7
-39 16 -70 21 -70 4 0 6 10 4 23 -3 12 -7 47 -10 77 -8 80 -33 155 -63 191
-24 28 -25 31 -6 20 56 -29 123 -159 123 -238 0 -96 -11 -100 -135 -52 -74 29
-346 130 -442 165 l-42 15 24 35 c27 40 65 135 65 163 0 10 2 20 5 22 2 3 82
-21 177 -53 135 -45 179 -64 199 -87z m1196 62 c-3 -10 -5 -4 -5 12 0 17 2 24
5 18 2 -7 2 -21 0 -30z m-1687 -124 c0 -10 -7 -11 -37 -3 -13 4 -23 12 -23 20
0 10 6 11 30 3 17 -6 30 -15 30 -20z m92 -85 c68 -25 227 -88 355 -140 200
-82 235 -93 258 -84 23 9 26 8 23 -7 -3 -15 -13 -18 -53 -17 -39 1 -90 18
-230 79 -99 42 -256 108 -350 146 -191 76 -193 94 -3 23z m757 -645 c-14 -36
-22 -36 -37 -4 -17 36 -15 44 16 89 l27 40 3 -49 c2 -26 -2 -61 -9 -76z m-229
-186 c-1 -29 -30 -31 -743 -43 l-729 -13 -21 22 -21 21 249 1 c138 1 423 5
635 8 212 4 440 8 508 9 67 1 122 -1 122 -5z"/>
<path d="M3052 2158 c-7 -7 -12 -21 -12 -33 0 -46 53 -62 71 -21 21 45 -26 87
-59 54z"/>
<path d="M3106 1597 c-13 -58 -1 -138 28 -196 15 -28 28 -51 30 -51 2 0 -5 33
-15 73 -11 39 -23 104 -28 142 -7 68 -8 69 -15 32z"/>
<path d="M3110 4112 c0 -6 16 -23 35 -37 l34 -27 40 22 c28 17 38 27 33 39 -6
14 -7 14 -10 -1 -2 -9 -9 -15 -16 -12 -8 3 -21 -2 -30 -11 -17 -17 -27 -14
-63 18 -13 11 -23 15 -23 9z"/>
<path d="M3427 4003 c-13 -47 -13 -54 -1 -39 14 20 30 84 22 91 -3 3 -12 -21
-21 -52z"/>
<path d="M3303 4017 l17 -27 -84 0 c-48 0 -88 -5 -91 -10 -4 -7 30 -10 105 -9
l111 1 -24 31 c-31 40 -59 51 -34 14z"/>
<path d="M3162 3934 c13 -13 26 -15 64 -9 60 9 41 25 -31 25 -45 0 -48 -1 -33
-16z"/>
<path d="M3525 3803 c-24 -70 -68 -116 -129 -133 -47 -13 -62 -30 -27 -30 67
0 132 59 162 147 11 36 19 66 17 68 -2 3 -13 -21 -23 -52z"/>
<path d="M4137 3016 c8 -98 -10 -168 -55 -217 -49 -56 -30 -48 35 13 67 64 88
100 73 128 -6 11 -20 49 -31 85 -11 36 -22 65 -24 65 -2 0 -1 -33 2 -74z"/>
<path d="M3900 2834 c0 -13 39 -76 64 -102 19 -22 86 -62 102 -62 4 0 -17 17
-46 38 -29 20 -68 59 -87 86 -18 26 -33 44 -33 40z"/>
<path d="M4185 2680 c3 -14 8 -115 12 -225 4 -129 9 -188 14 -165 10 43 -8
363 -22 393 -9 21 -9 20 -4 -3z"/>
<path d="M3901 2494 c0 -11 3 -14 6 -6 3 7 2 16 -1 19 -3 4 -6 -2 -5 -13z"/>
<path d="M3862 2371 c-17 -54 -34 -107 -38 -117 -5 -16 -4 -16 5 -4 13 18 75
210 69 215 -2 2 -18 -40 -36 -94z"/>
<path d="M3940 2123 c8 -3 36 -14 63 -24 26 -10 47 -16 47 -13 0 9 -84 44
-105 43 -14 0 -16 -2 -5 -6z"/>
<path d="M3998 1834 c-49 -24 -88 -46 -88 -49 0 -7 104 40 153 69 66 40 31 29
-65 -20z"/>
<path d="M3657 1768 c-59 -17 -106 -32 -104 -35 5 -4 228 56 236 63 10 9 -30
1 -132 -28z"/>
<path d="M2816 1165 c5 -129 22 -244 63 -410 38 -152 99 -356 113 -372 39 -47
23 39 -47 263 -82 260 -108 381 -129 589 -2 22 -2 -9 0 -70z"/>
<path d="M3582 785 c0 -177 5 -341 13 -420 l13 -130 -5 155 c-3 85 -8 274 -12
420 l-8 265 -1 -290z"/>
</g>
</svg>